SplineFontDB: 3.0
FontName: Jost-Light
FullName: Jost* 300 Light
FamilyName: Jost* Light
Weight: Light
Copyright: This typeface is licensed under the SIL open font license.
UComments: "2018-6-8: Created with FontForge (http://fontforge.org)"
Version: 003.300
ItalicAngle: 0
UnderlinePosition: -100
UnderlineWidth: 50
Ascent: 800
Descent: 200
InvalidEm: 0
LayerCount: 2
Layer: 0 0 "Back" 1
Layer: 1 0 "Fore" 0
XUID: [1021 69 1495626776 760146]
FSType: 0
OS2Version: 0
OS2_WeightWidthSlopeOnly: 0
OS2_UseTypoMetrics: 0
CreationTime: 1528480336
ModificationTime: 1536028746
PfmFamily: 17
TTFWeight: 300
TTFWidth: 5
LineGap: 100
VLineGap: 0
OS2TypoAscent: 825
OS2TypoAOffset: 0
OS2TypoDescent: -225
OS2TypoDOffset: 0
OS2TypoLinegap: 100
OS2WinAscent: 900
OS2WinAOffset: 0
OS2WinDescent: 300
OS2WinDOffset: 0
HheadAscent: 1030
HheadAOffset: 0
HheadDescent: -350
HheadDOffset: 0
OS2CapHeight: 700
OS2XHeight: 460
OS2Vendor: 'PfEd'
Lookup: 1 0 0 "alt a" { "alt a"  } ['ss01' ('DFLT' <'dflt' > 'latn' <'dflt' > ) ]
Lookup: 1 0 0 "Tabular Numbers lookup" { "Tabular Numbers lookup"  } ['tnum' ('DFLT' <'dflt' > 'grek' <'dflt' > 'latn' <'dflt' > ) ]
Lookup: 258 0 0 "Lets get our kern on" { "kernin like nobodys business" [150,0,4] } ['kern' ('DFLT' <'dflt' > 'latn' <'dflt' > ) ]
MarkAttachClasses: 1
DEI: 91125
KernClass2: 16 14 "kernin like nobodys business"
 15 slash seven V W
 175 quotedbl quotesingle asterisk grave dieresis ordfeminine macron degree acute ordmasculine circumflex breve dotaccent ring tilde quoteleft quoteright quotedblleft quotedblright
 17 nine question F P
 107 A L backslash Agrave Aacute Acircumflex Atilde Adieresis Aring Amacron Abreve Aogonek Lacute uni013B Lslash
 26 three eight B C germandbls
 5 K X Z
 125 at D G O Ograve Oacute Ocircumflex Otilde Odieresis Oslash Dcaron Dcroat Gcircumflex Gbreve Gdotaccent uni0122 Omacron Obreve

StartChar: H
Encoding: 72 72 0
Width: 646
VWidth: 0
Flags: HMW
LayerCount: 2
Fore
SplineSet
174 355 m 257
 191 407 l 257
 637 407 l 257
 620 355 l 257
 174 355 l 257
699 699 m 257
 756 700 l 257
 513 0 l 257
 462 0 l 257
 699 699 l 257
262 699 m 257
 318 700 l 257
 77 0 l 257
 25 0 l 257
 262 699 l 257
EndSplineSet
EndChar

StartChar: O
Encoding: 79 79 1
Width: 737
VWidth: 0
Flags: HMW
LayerCount: 2
Fore
SplineSet
163 350 m 256
 115 213 157 49 326 47 c 256
 499 45 651 196 705 350 c 256
 753 487 711 651 542 653 c 256
 369 655 217 504 163 350 c 256
105 350 m 256
 166 536 348 710 552 709 c 256
 751 708 818 517 763 350 c 256
 702 164 520 -10 316 -9 c 256
 117 -8 50 183 105 350 c 256
EndSplineSet
EndChar

StartChar: I
Encoding: 73 73 2
Width: 205
VWidth: 0
Flags: HMW
LayerCount: 2
Fore
SplineSet
261 700 m 257
 316 700 l 257
 74 0 l 257
 23 0 l 257
 261 700 l 257
EndSplineSet
EndChar

StartChar: C
Encoding: 67 67 3
Width: 644
VWidth: 0
Flags: HMW
LayerCount: 2
Fore
SplineSet
163 350 m 256
 116 216 155 51 321 48 c 256
 413 46 496 90 569 141 c 257
 546 68 l 257
 474 22 396 -10 310 -9 c 256
 113 -7 50 185 105 350 c 256
 166 535 344 707 547 709 c 256
 623 710 684 685 737 631 c 257
 713 558 l 257
 672 622 612 653 536 653 c 256
 365 652 217 503 163 350 c 256
EndSplineSet
EndChar

StartChar: E
Encoding: 69 69 4
Width: 501
VWidth: 0
Flags: HMW
LayerCount: 2
Fore
SplineSet
52 0 m 257
 69 52 l 257
 398 52 l 257
 381 0 l 257
 52 0 l 257
274 648 m 257
 291 700 l 257
 619 700 l 257
 602 648 l 257
 274 648 l 257
174 358 m 257
 192 410 l 257
 501 410 l 257
 484 358 l 257
 174 358 l 257
262 700 m 257
 318 700 l 257
 77 0 l 257
 25 0 l 257
 262 700 l 257
EndSplineSet
EndChar

StartChar: F
Encoding: 70 70 6
Width: 451
VWidth: 0
Flags: HMW
LayerCount: 2
Fore
SplineSet
274 648 m 257
 291 700 l 257
 582 700 l 257
 564 648 l 257
 274 648 l 257
173 354 m 257
 191 405 l 257
 472 405 l 257
 454 353 l 257
 173 354 l 257
262 700 m 257
 318 700 l 257
 77 0 l 257
 25 0 l 257
 262 700 l 257
EndSplineSet
EndChar

StartChar: G
Encoding: 71 71 7
Width: 725
VWidth: 0
Flags: HMW
LayerCount: 2
Fore
SplineSet
432 297 m 257
 451 348 l 257
 744 348 l 257
 676 170 522 -9 316 -9 c 256
 117 -9 50 183 105 350 c 256
 167 537 349 709 554 709 c 256
 660 710 737 655 776 558 c 257
 728 524 l 257
 699 608 633 654 543 653 c 256
 370 653 218 506 163 350 c 256
 115 213 158 48 327 47 c 256
 483 46 596 172 666 297 c 257
 432 297 l 257
EndSplineSet
EndChar

StartChar: T
Encoding: 84 84 8
Width: 424
VWidth: 0
Flags: HMW
LayerCount: 2
Fore
SplineSet
178 648 m 257
 197 700 l 257
 598 700 l 257
 579 648 l 257
 406 648 l 257
 184 0 l 257
 130 0 l 257
 352 648 l 257
 178 648 l 257
EndSplineSet
EndChar

StartChar: L
Encoding: 76 76 9
Width: 415
VWidth: 0
Flags: HMW
LayerCount: 2
Fore
SplineSet
263 700 m 257
 318 700 l 257
 95 52 l 257
 367 52 l 257
 349 0 l 257
 23 0 l 257
 263 700 l 257
EndSplineSet
EndChar

StartChar: D
Encoding: 68 68 10
Width: 622
VWidth: 0
Flags: HMW
LayerCount: 2
Fore
SplineSet
262 699 m 257
 318 700 l 257
 77 0 l 257
 25 0 l 257
 262 699 l 257
208 0 m 258
 52 0 l 257
 71 55 l 257
 219 55 l 258
 392 55 538 190 594 350 c 256
 645 494 594 645 427 645 c 258
 272 645 l 257
 291 700 l 257
 438 700 l 258
 635 700 705 522 648 350 c 256
 586 161 412 0 208 0 c 258
EndSplineSet
EndChar

StartChar: Q
Encoding: 81 81 11
Width: 735
VWidth: 0
Flags: HMW
LayerCount: 2
Fore
SplineSet
163 350 m 256
 115 213 157 49 326 47 c 256
 499 45 651 196 705 350 c 256
 753 487 711 651 542 653 c 256
 369 655 217 504 163 350 c 256
105 350 m 256
 166 536 348 710 552 709 c 256
 751 708 818 517 763 350 c 256
 702 164 520 -10 316 -9 c 256
 117 -8 50 183 105 350 c 256
414 300 m 257
 478 300 l 257
 667 0 l 257
 602 0 l 257
 414 300 l 257
EndSplineSet
EndChar

StartChar: A
Encoding: 65 65 12
Width: 597
VWidth: 0
Flags: HMW
LayerCount: 2
Fore
SplineSet
158 235 m 257
 191 286 l 257
 497 286 l 257
 497 235 l 257
 158 235 l 257
454 600 m 257
 211 269 l 257
 202 257 l 257
 13 0 l 257
 -50 0 l 257
 493 729 l 257
 535 0 l 257
 477 0 l 257
 467 253 l 257
 467 266 l 257
 454 600 l 257
EndSplineSet
EndChar

StartChar: R
Encoding: 82 82 13
Width: 491
VWidth: 0
Flags: HMW
LayerCount: 2
Fore
SplineSet
250 334 m 257
 307 334 l 257
 418 0 l 257
 357 0 l 257
 250 334 l 257
262 700 m 257
 318 700 l 257
 77 0 l 257
 25 0 l 257
 262 700 l 257
272 651 m 257
 290 700 l 257
 411 700 l 258
 528 700 608 616 569 496 c 256
 529 372 405 296 279 294 c 258
 150 294 l 257
 168 343 l 257
 288 343 l 258
 386 345 482 402 516 497 c 256
 548 588 490 649 401 651 c 258
 272 651 l 257
EndSplineSet
EndChar

StartChar: V
Encoding: 86 86 14
Width: 597
VWidth: 0
Flags: HMW
LayerCount: 2
Fore
SplineSet
293 101 m 257
 712 699 l 257
 774 699 l 257
 256 -29 l 257
 191 700 l 257
 247 700 l 257
 293 101 l 257
EndSplineSet
EndChar

StartChar: M
Encoding: 77 77 15
Width: 769
VWidth: 0
Flags: HMW
LayerCount: 2
Fore
SplineSet
291 553 m 257
 43 0 l 257
 -12 0 l 257
 316 728 l 257
 393 191 l 257
 846 732 l 257
 670 0 l 257
 616 0 l 257
 751 547 l 257
 359 79 l 257
 291 553 l 257
EndSplineSet
EndChar

StartChar: W
Encoding: 87 87 16
Width: 915
VWidth: 0
Flags: HMW
LayerCount: 2
Fore
SplineSet
657 119 m 257
 1026 699 l 257
 1088 699 l 257
 616 -30 l 257
 603 573 l 257
 214 -30 l 257
 195 700 l 257
 252 700 l 257
 259 119 l 257
 649 730 l 257
 657 119 l 257
EndSplineSet
EndChar

StartChar: N
Encoding: 78 78 17
Width: 687
VWidth: 0
Flags: HMW
LayerCount: 2
Fore
SplineSet
749 700 m 257
 803 700 l 257
 553 -26 l 257
 264 584 l 257
 62 0 l 257
 7 0 l 257
 257 726 l 257
 547 114 l 257
 749 700 l 257
EndSplineSet
EndChar

StartChar: a
Encoding: 97 97 18
Width: 437
VWidth: 0
Flags: HMW
LayerCount: 2
Fore
SplineSet
73 135 m 256
 55 79 89 39 145 38 c 256
 232 36 294 100 334 171 c 257
 335 140 l 257
 294 58 222 -10 125 -9 c 256
 43 -8 -3 56 22 134 c 256
 52 228 155 284 250 283 c 256
 301 282 340 265 374 228 c 257
 363 198 l 257
 329 227 291 243 245 242 c 256
 176 241 96 205 73 135 c 256
167 370 m 257
 154 412 l 257
 208 443 267 470 330 469 c 256
 415 467 461 406 435 326 c 258
 323 0 l 257
 271 0 l 257
 386 326 l 258
 403 376 382 420 321 422 c 256
 266 424 213 396 167 370 c 257
EndSplineSet
Substitution2: "alt a" a.alt
EndChar

StartChar: X
Encoding: 88 88 19
Width: 501
VWidth: 0
Flags: HMW
LayerCount: 2
Fore
SplineSet
592 699 m 257
 659 699 l 257
 358 364 l 257
 453 0 l 257
 394 0 l 257
 319 316 l 257
 42 0 l 257
 -25 0 l 257
 307 370 l 257
 219 700 l 257
 279 700 l 257
 345 418 l 257
 592 699 l 257
EndSplineSet
EndChar

StartChar: K
Encoding: 75 75 20
Width: 489
VWidth: 0
Flags: HMW
LayerCount: 2
Fore
SplineSet
261 700 m 257
 316 700 l 257
 75 0 l 257
 23 0 l 257
 261 700 l 257
584 699 m 257
 656 699 l 257
 249 369 l 257
 425 0 l 257
 364 0 l 257
 186 374 l 257
 584 699 l 257
EndSplineSet
EndChar

StartChar: Y
Encoding: 89 89 21
Width: 507
VWidth: 0
Flags: HMW
LayerCount: 2
Fore
SplineSet
623 699 m 257
 687 699 l 257
 322 285 l 257
 224 0 l 257
 169 0 l 257
 271 291 l 257
 194 700 l 257
 251 700 l 257
 311 340 l 257
 623 699 l 257
EndSplineSet
EndChar

StartChar: B
Encoding: 66 66 22
Width: 501
VWidth: 0
Flags: HMW
LayerCount: 2
Fore
SplineSet
194 377 m 257
 203 407 l 257
 304 408 l 258
 381 410 460 451 487 528 c 256
 513 602 464 649 393 650 c 258
 300 651 l 257
 94 49 l 257
 190 50 l 258
 288 51 381 111 414 206 c 256
 444 293 390 358 303 359 c 258
 187 360 l 257
 198 390 l 257
 311 391 l 258
 419 389 502 316 467 202 c 256
 428 77 307 0 181 0 c 258
 23 0 l 257
 263 700 l 257
 403 700 l 258
 502 700 577 636 542 530 c 256
 508 428 404 380 303 377 c 258
 194 377 l 257
EndSplineSet
EndChar

StartChar: Z
Encoding: 90 90 23
Width: 508
VWidth: 0
Flags: HMW
LayerCount: 2
Fore
SplineSet
200 648 m 257
 219 700 l 257
 680 699 l 257
 71 53 l 257
 443 53 l 257
 424 0 l 257
 -42 0 l 257
 568 647 l 257
 200 648 l 257
EndSplineSet
EndChar

StartChar: o
Encoding: 111 111 24
Width: 517
VWidth: 0
Flags: HMW
LayerCount: 2
Fore
SplineSet
72 230 m 256
 108 355 231 469 366 469 c 256
 498 469 553 345 519 230 c 256
 483 105 360 -9 225 -9 c 256
 93 -9 38 115 72 230 c 256
123 230 m 256
 95 143 129 41 233 40 c 256
 340 39 437 133 468 230 c 256
 496 317 461 419 357 420 c 256
 250 421 154 327 123 230 c 256
EndSplineSet
EndChar

StartChar: J
Encoding: 74 74 25
Width: 209
VWidth: 0
Flags: HMW
LayerCount: 2
Fore
SplineSet
-186 -127 m 257
 -167 -150 -148 -168 -115 -167 c 256
 -50 -166 -10 -104 9 -50 c 258
 266 700 l 257
 318 700 l 257
 58 -61 l 258
 28 -142 -33 -221 -128 -219 c 256
 -171 -218 -200 -198 -226 -167 c 257
 -186 -127 l 257
EndSplineSet
EndChar

StartChar: t
Encoding: 116 116 26
Width: 206
VWidth: 0
Flags: HMW
LayerCount: 2
Fore
SplineSet
114 460 m 257
 306 460 l 257
 288 411 l 257
 96 411 l 257
 114 460 l 257
235 619 m 257
 288 620 l 257
 73 0 l 257
 25 0 l 257
 235 619 l 257
EndSplineSet
EndChar

StartChar: d
Encoding: 100 100 27
Width: 525
VWidth: 0
Flags: HMW
LayerCount: 2
Fore
SplineSet
617 779 m 257
 670 780 l 257
 401 0 l 257
 352 0 l 257
 617 779 l 257
59 230 m 256
 98 350 214 472 348 470 c 256
 478 468 487 326 455 230 c 256
 419 118 321 -8 192 -9 c 256
 58 -10 24 123 59 230 c 256
111 230 m 256
 82 147 101 39 207 40 c 256
 309 41 399 141 431 230 c 256
 457 306 444 416 345 420 c 256
 238 424 144 324 111 230 c 256
EndSplineSet
EndChar

StartChar: l
Encoding: 108 108 28
Width: 197
VWidth: 0
Flags: HMW
LayerCount: 2
Fore
SplineSet
285 779 m 257
 338 780 l 257
 68 0 l 257
 20 0 l 257
 285 779 l 257
EndSplineSet
EndChar

StartChar: i
Encoding: 105 105 29
Width: 217
VWidth: 0
Flags: HMW
LayerCount: 2
Fore
SplineSet
247 668 m 256
 247 688 263 704 283 704 c 256
 303 704 320 688 320 668 c 256
 320 648 303 632 283 632 c 256
 263 632 247 648 247 668 c 256
186 459 m 257
 239 459 l 257
 81 0 l 257
 30 0 l 257
 186 459 l 257
EndSplineSet
EndChar

StartChar: r
Encoding: 114 114 30
Width: 302
VWidth: 0
Flags: HMW
LayerCount: 2
Fore
SplineSet
228 460 m 257
 69 0 l 257
 17 0 l 257
 177 460 l 257
 228 460 l 257
353 400 m 257
 338 410 323 420 304 421 c 256
 230 424 189 337 164 282 c 257
 140 282 l 257
 172 357 229 471 325 469 c 256
 352 469 371 456 392 440 c 257
 353 400 l 257
EndSplineSet
EndChar

StartChar: c
Encoding: 99 99 31
Width: 453
VWidth: 0
Flags: HMW
LayerCount: 2
Fore
SplineSet
118 230 m 256
 90 142 125 42 229 40 c 256
 295 39 354 73 404 112 c 257
 385 48 l 257
 335 15 281 -9 220 -9 c 256
 88 -8 33 115 67 230 c 256
 103 356 225 469 361 469 c 256
 415 469 459 450 496 411 c 257
 477 347 l 257
 451 395 410 421 353 420 c 256
 246 419 150 328 118 230 c 256
EndSplineSet
EndChar

StartChar: b
Encoding: 98 98 32
Width: 525
VWidth: 0
Flags: HMW
LayerCount: 2
Fore
SplineSet
333 780 m 257
 64 0 l 257
 13 0 l 257
 281 780 l 257
 333 780 l 257
514 230 m 256
 475 110 360 -12 226 -10 c 256
 96 -8 88 134 120 230 c 256
 156 342 253 468 382 469 c 256
 516 470 549 337 514 230 c 256
463 230 m 256
 492 313 472 421 366 420 c 256
 264 419 175 319 143 230 c 256
 117 154 129 44 228 40 c 256
 335 36 430 136 463 230 c 256
EndSplineSet
EndChar

StartChar: p
Encoding: 112 112 33
Width: 525
VWidth: 0
Flags: HMW
LayerCount: 2
Fore
SplineSet
-9 -219 m 257
 -63 -220 l 257
 173 460 l 257
 221 459 l 257
 -9 -219 l 257
514 230 m 256
 475 110 360 -12 226 -10 c 256
 96 -8 88 134 120 230 c 256
 156 342 253 468 382 469 c 256
 516 470 549 337 514 230 c 256
463 230 m 256
 492 313 472 421 366 420 c 256
 264 419 175 319 143 230 c 256
 117 154 129 44 228 40 c 256
 335 36 430 136 463 230 c 256
EndSplineSet
EndChar

StartChar: q
Encoding: 113 113 34
Width: 525
VWidth: 0
Flags: HMW
LayerCount: 2
Fore
SplineSet
275 -220 m 257
 509 460 l 257
 561 460 l 257
 326 -220 l 257
 275 -220 l 257
59 230 m 256
 98 350 214 472 348 470 c 256
 478 468 487 326 455 230 c 256
 419 118 321 -8 192 -9 c 256
 58 -10 24 123 59 230 c 256
111 230 m 256
 82 147 101 39 207 40 c 256
 309 41 399 141 431 230 c 256
 457 306 444 416 345 420 c 256
 238 424 144 324 111 230 c 256
EndSplineSet
EndChar

StartChar: h
Encoding: 104 104 35
Width: 474
VWidth: 0
Flags: HMW
LayerCount: 2
Fore
SplineSet
338 780 m 257
 69 0 l 257
 18 0 l 257
 286 780 l 257
 338 780 l 257
399 296 m 258
 416 351 417 417 344 420 c 256
 261 423 200 347 164 282 c 257
 146 282 l 257
 185 370 257 469 364 469 c 256
 463 469 474 379 451 302 c 257
 346 0 l 257
 297 0 l 257
 399 296 l 258
EndSplineSet
EndChar

StartChar: n
Encoding: 110 110 36
Width: 474
VWidth: 0
Flags: HMW
LayerCount: 2
Fore
SplineSet
228 460 m 257
 69 0 l 257
 17 0 l 257
 177 460 l 257
 228 460 l 257
399 296 m 258
 416 351 417 417 344 420 c 256
 261 423 200 347 164 282 c 257
 146 282 l 257
 185 370 257 469 364 469 c 256
 463 469 474 379 451 302 c 257
 346 0 l 257
 297 0 l 257
 399 296 l 258
EndSplineSet
EndChar

StartChar: m
Encoding: 109 109 37
Width: 699
VWidth: 0
Flags: HMW
LayerCount: 2
Fore
SplineSet
373 296 m 258
 388 344 401 416 331 419 c 256
 252 423 196 343 164 282 c 257
 146 282 l 257
 183 364 248 470 351 469 c 256
 447 468 445 372 424 302 c 258
 320 0 l 257
 271 0 l 257
 373 296 l 258
228 460 m 257
 69 0 l 257
 17 0 l 257
 177 460 l 257
 228 460 l 257
675 302 m 258
 572 0 l 257
 520 0 l 257
 624 296 l 258
 639 344 651 416 581 419 c 256
 502 423 448 343 416 282 c 257
 388 282 l 257
 426 366 497 471 602 469 c 256
 698 468 696 372 675 302 c 258
EndSplineSet
EndChar

StartChar: k
Encoding: 107 107 38
Width: 387
VWidth: 0
Flags: HMW
LayerCount: 2
Fore
SplineSet
280 779 m 257
 333 780 l 257
 64 0 l 257
 15 0 l 257
 280 779 l 257
404 459 m 257
 473 459 l 257
 196 262 l 257
 329 0 l 257
 271 0 l 257
 139 273 l 257
 404 459 l 257
EndSplineSet
EndChar

StartChar: u
Encoding: 117 117 39
Width: 474
VWidth: 0
Flags: HMW
LayerCount: 2
Fore
SplineSet
295 0 m 257
 454 460 l 257
 506 460 l 257
 347 0 l 257
 295 0 l 257
126 168 m 258
 109 113 105 42 180 40 c 256
 263 37 323 112 359 178 c 257
 377 178 l 257
 338 90 266 -10 159 -9 c 256
 58 -9 51 85 74 162 c 257
 178 460 l 257
 226 459 l 257
 126 168 l 258
EndSplineSet
EndChar

StartChar: e
Encoding: 101 101 40
Width: 479
VWidth: 0
Flags: HMW
LayerCount: 2
Fore
SplineSet
101 217 m 257
 114 262 l 257
 434 262 l 257
 458 332 438 421 344 423 c 256
 242 425 164 335 130 250 c 257
 123 231 l 257
 99 149 112 41 217 40 c 256
 289 39 349 86 400 134 c 257
 436 104 l 257
 373 42 296 -10 203 -9 c 256
 73 -7 42 125 72 231 c 256
 78 252 86 272 96 291 c 256
 143 385 240 470 351 469 c 256
 478 468 512 348 484 242 c 256
 482 234 478 225 476 217 c 257
 101 217 l 257
EndSplineSet
EndChar

StartChar: g
Encoding: 103 103 41
Width: 525
VWidth: 0
Flags: HMW
LayerCount: 2
Fore
SplineSet
-18 -30 m 257
 32 -31 l 257
 17 -108 38 -178 129 -180 c 256
 237 -182 322 -84 354 10 c 258
 509 460 l 257
 561 460 l 257
 407 10 l 258
 365 -111 272 -229 128 -229 c 256
 8 -229 -41 -136 -18 -30 c 257
59 230 m 256
 98 350 214 472 348 470 c 256
 478 468 487 326 455 230 c 256
 419 118 321 -8 192 -9 c 256
 58 -10 24 123 59 230 c 256
111 230 m 256
 81 147 101 40 207 40 c 256
 310 40 400 142 431 232 c 256
 457 308 443 416 345 420 c 256
 238 424 144 324 111 230 c 256
EndSplineSet
EndChar

StartChar: f
Encoding: 102 102 42
Width: 265
VWidth: 0
Flags: HMW
LayerCount: 2
Fore
SplineSet
143 460 m 257
 349 460 l 257
 331 411 l 257
 126 411 l 257
 143 460 l 257
443 704 m 257
 432 720 420 736 398 737 c 256
 344 738 313 674 296 632 c 258
 79 0 l 257
 27 0 l 257
 245 639 l 258
 271 709 326 792 412 788 c 256
 445 787 464 768 483 744 c 257
 443 704 l 257
EndSplineSet
EndChar

StartChar: s
Encoding: 115 115 43
Width: 379
VWidth: 0
Flags: HMW
LayerCount: 2
Fore
SplineSet
80 155 m 257
 87 102 105 42 171 40 c 256
 219 39 274 73 288 120 c 256
 304 174 256 200 215 219 c 256
 157 246 107 282 128 354 c 256
 148 425 219 468 296 468 c 256
 360 468 396 430 415 374 c 257
 369 350 l 257
 355 389 334 419 288 420 c 256
 245 421 192 395 178 352 c 256
 160 297 218 276 258 258 c 256
 314 232 358 187 341 121 c 256
 321 43 248 -11 162 -10 c 256
 77 -9 45 60 35 133 c 257
 80 155 l 257
EndSplineSet
EndChar

StartChar: y
Encoding: 121 121 44
Width: 407
VWidth: 0
Flags: HMW
LayerCount: 2
Fore
SplineSet
511 459 m 257
 -6 -219 l 257
 -65 -219 l 257
 141 50 l 257
 107 460 l 257
 159 460 l 257
 189 68 l 257
 165 71 l 257
 452 459 l 257
 511 459 l 257
EndSplineSet
EndChar

StartChar: w
Encoding: 119 119 45
Width: 616
VWidth: 0
Flags: HMW
LayerCount: 2
Fore
SplineSet
113 460 m 257
 166 460 l 257
 159 108 l 257
 417 490 l 257
 416 106 l 257
 656 459 l 257
 715 459 l 257
 376 -30 l 257
 374 354 l 257
 112 -30 l 257
 113 460 l 257
EndSplineSet
EndChar

StartChar: v
Encoding: 118 118 46
Width: 405
VWidth: 0
Flags: HMW
LayerCount: 2
Fore
SplineSet
112 460 m 257
 166 460 l 257
 194 89 l 257
 454 459 l 257
 514 459 l 257
 160 -29 l 257
 112 460 l 257
EndSplineSet
EndChar

StartChar: x
Encoding: 120 120 47
Width: 379
VWidth: 0
Flags: HMW
LayerCount: 2
Fore
SplineSet
416 459 m 257
 478 459 l 257
 258 232 l 257
 341 0 l 257
 288 0 l 257
 218 198 l 257
 28 0 l 257
 -34 0 l 257
 203 243 l 257
 121 460 l 257
 175 460 l 257
 242 277 l 257
 416 459 l 257
EndSplineSet
EndChar

StartChar: z
Encoding: 122 122 48
Width: 420
VWidth: 0
Flags: HMW
LayerCount: 2
Fore
SplineSet
395 411 m 257
 125 411 l 257
 142 460 l 257
 508 460 l 257
 71 49 l 257
 358 49 l 257
 341 0 l 257
 -42 0 l 257
 395 411 l 257
EndSplineSet
EndChar

StartChar: j
Encoding: 106 106 49
Width: 208
VWidth: 0
Flags: HMW
LayerCount: 2
Fore
SplineSet
237 668 m 256
 237 688 253 704 273 704 c 256
 293 704 310 688 310 668 c 256
 310 648 293 632 273 632 c 256
 253 632 237 648 237 668 c 256
-149 -135 m 257
 -140 -150 -123 -167 -105 -168 c 256
 -51 -170 -17 -102 -2 -63 c 258
 178 460 l 257
 229 460 l 257
 49 -69 l 258
 23 -139 -25 -221 -111 -219 c 256
 -144 -218 -169 -199 -189 -175 c 257
 -149 -135 l 257
EndSplineSet
EndChar

StartChar: P
Encoding: 80 80 50
Width: 489
VWidth: 0
Flags: HMW
LayerCount: 2
Fore
SplineSet
262 699 m 257
 318 700 l 257
 77 0 l 257
 25 0 l 257
 262 699 l 257
273 648 m 257
 292 700 l 257
 414 700 l 258
 532 700 602 608 564 492 c 256
 525 370 405 286 280 286 c 258
 150 286 l 257
 168 338 l 257
 291 338 l 258
 388 340 477 400 510 493 c 256
 541 581 494 646 404 647 c 258
 273 648 l 257
EndSplineSet
EndChar

StartChar: U
Encoding: 85 85 51
Width: 569
VWidth: 0
Flags: HMW
LayerCount: 2
Fore
SplineSet
259 700 m 257
 313 700 l 257
 149 226 l 258
 123 143 135 43 242 43 c 256
 362 43 432 132 465 226 c 258
 629 700 l 257
 683 700 l 257
 521 226 l 258
 478 103 390 -9 233 -9 c 256
 97 -9 60 114 97 226 c 258
 259 700 l 257
EndSplineSet
EndChar

StartChar: S
Encoding: 83 83 52
Width: 492
VWidth: 0
Flags: HMW
LayerCount: 2
Fore
SplineSet
100 214 m 257
 104 137 123 45 219 44 c 256
 302 43 377 103 404 180 c 256
 433 263 377 312 309 346 c 256
 230 385 171 443 201 539 c 256
 232 636 334 708 436 708 c 256
 530 708 569 638 580 555 c 257
 529 528 l 257
 521 592 496 654 421 655 c 256
 351 656 279 603 256 537 c 256
 228 456 300 416 361 385 c 256
 442 344 490 276 461 183 c 256
 428 75 321 -9 206 -8 c 256
 92 -7 54 90 47 188 c 257
 100 214 l 257
EndSplineSet
EndChar

StartChar: at
Encoding: 64 64 53
Width: 724
VWidth: 0
Flags: HMW
LayerCount: 2
Fore
SplineSet
286 320 m 256
 270 272 275 213 336 209 c 256
 419 204 497 299 520 370 c 256
 535 416 530 478 470 482 c 256
 386 487 309 391 286 320 c 256
237 319 m 256
 266 415 368 534 479 528 c 256
 564 524 564 430 544 368 c 256
 514 275 426 160 317 162 c 256
 231 164 216 251 237 319 c 256
86 320 m 256
 153 522 352 711 574 709 c 256
 751 707 824 545 772 390 c 256
 739 293 643 140 523 151 c 256
 450 157 468 230 485 279 c 257
 480 279 l 257
 598 519 l 257
 649 519 l 257
 528 289 l 258
 524 279 518 269 515 259 c 256
 508 233 504 203 537 196 c 256
 623 177 703 327 726 390 c 256
 774 521 721 662 567 665 c 256
 369 668 194 497 132 320 c 256
 84 181 128 39 293 35 c 256
 372 33 447 58 518 88 c 257
 530 48 l 257
 453 14 371 -9 286 -8 c 256
 95 -5 31 154 86 320 c 256
EndSplineSet
EndChar

StartChar: period
Encoding: 46 46 54
Width: 266
VWidth: 0
Flags: HMW
LayerCount: 2
Fore
SplineSet
50 24 m 256
 50 44 67 61 87 61 c 256
 107 61 124 44 124 24 c 256
 124 4 107 -12 87 -12 c 256
 67 -12 50 4 50 24 c 256
EndSplineSet
EndChar

StartChar: comma
Encoding: 44 44 55
Width: 277
VWidth: 0
Flags: HMW
LayerCount: 2
Fore
SplineSet
129 102 m 257
 176 80 l 257
 -14 -164 l 257
 -49 -151 l 257
 129 102 l 257
EndSplineSet
EndChar

StartChar: colon
Encoding: 58 58 56
Width: 282
VWidth: 0
Flags: HMW
LayerCount: 2
Fore
SplineSet
50 24 m 256
 50 44 67 61 87 61 c 256
 107 61 124 44 124 24 c 256
 124 4 107 -12 87 -12 c 256
 67 -12 50 4 50 24 c 256
176 392 m 256
 176 412 193 428 213 428 c 256
 233 428 250 412 250 392 c 256
 250 372 233 355 213 355 c 256
 193 355 176 372 176 392 c 256
EndSplineSet
EndChar

StartChar: semicolon
Encoding: 59 59 57
Width: 289
VWidth: 0
Flags: HMW
LayerCount: 2
Fore
SplineSet
205 392 m 256
 205 412 221 428 241 428 c 256
 261 428 278 412 278 392 c 256
 278 372 261 355 241 355 c 256
 221 355 205 372 205 392 c 256
129 102 m 257
 176 80 l 257
 -14 -164 l 257
 -49 -151 l 257
 129 102 l 257
EndSplineSet
EndChar

StartChar: quotedbl
Encoding: 34 34 58
Width: 413
VWidth: 0
Flags: HMW
LayerCount: 2
Fore
SplineSet
306 699 m 257
 370 699 l 257
 205 410 l 257
 169 409 l 257
 306 699 l 257
476 699 m 257
 539 699 l 257
 374 410 l 257
 338 409 l 257
 476 699 l 257
EndSplineSet
EndChar

StartChar: exclam
Encoding: 33 33 59
Width: 267
VWidth: 0
Flags: HMW
LayerCount: 2
Fore
SplineSet
286 700 m 257
 352 700 l 257
 168 201 l 257
 130 201 l 257
 286 700 l 257
50 24 m 256
 50 45 68 62 88 62 c 256
 108 62 125 45 125 24 c 256
 125 3 108 -13 88 -13 c 256
 68 -13 50 3 50 24 c 256
EndSplineSet
EndChar

StartChar: quotesingle
Encoding: 39 39 60
Width: 244
VWidth: 0
Flags: HMW
LayerCount: 2
Fore
SplineSet
306 699 m 257
 370 699 l 257
 205 410 l 257
 169 409 l 257
 306 699 l 257
EndSplineSet
EndChar

StartChar: numbersign
Encoding: 35 35 61
Width: 556
VWidth: 0
Flags: HMW
LayerCount: 2
Fore
SplineSet
168 446 m 257
 182 488 l 257
 637 488 l 257
 622 446 l 257
 502 446 l 257
 493 446 l 257
 306 446 l 257
 297 446 l 257
 168 446 l 257
52 217 m 257
 66 259 l 257
 183 259 l 257
 194 259 l 257
 383 259 l 257
 397 259 l 257
 520 259 l 257
 507 217 l 257
 52 217 l 257
617 699 m 257
 668 699 l 257
 266 0 l 257
 216 0 l 257
 351 234 l 257
 358 246 l 257
 480 460 l 257
 486 472 l 257
 617 699 l 257
419 699 m 257
 470 699 l 257
 340 474 l 257
 334 463 l 257
 209 244 l 257
 203 233 l 257
 69 0 l 257
 21 0 l 257
 419 699 l 257
EndSplineSet
EndChar

StartChar: hyphen
Encoding: 45 45 62
Width: 197
VWidth: 0
Flags: HMW
LayerCount: 2
Fore
SplineSet
28 227 m 257
 44 275 l 257
 235 275 l 257
 218 227 l 257
 28 227 l 257
EndSplineSet
EndChar

StartChar: dollar
Encoding: 36 36 63
Width: 545
VWidth: 0
Flags: HMW
LayerCount: 2
Fore
SplineSet
457 817 m 257
 504 817 l 257
 460 682 l 257
 414 682 l 257
 457 817 l 257
215 27 m 257
 261 27 l 257
 217 -111 l 257
 170 -111 l 257
 215 27 l 257
540 528 m 257
 531 592 506 653 432 655 c 256
 362 657 289 608 267 540 c 256
 240 457 314 417 376 385 c 256
 457 344 509 277 483 183 c 256
 453 74 350 -9 235 -8 c 256
 121 -7 79 90 69 188 c 257
 121 214 l 257
 128 135 151 45 247 44 c 256
 329 43 402 103 426 180 c 256
 452 264 394 312 326 346 c 256
 246 386 185 450 213 545 c 256
 241 639 344 709 441 708 c 256
 534 707 578 638 590 555 c 257
 540 528 l 257
EndSplineSet
EndChar

StartChar: bar
Encoding: 124 124 64
Width: 233
VWidth: 0
Flags: HMW
LayerCount: 2
Fore
SplineSet
301 784 m 257
 348 784 l 257
 40 -214 l 257
 -7 -214 l 257
 301 784 l 257
EndSplineSet
EndChar

StartChar: zero
Encoding: 48 48 65
Width: 545
VWidth: 0
Flags: HMW
LayerCount: 2
Fore
SplineSet
162 350 m 256
 132 264 79 46 229 43 c 256
 379 40 474 231 515 350 c 256
 545 436 597 654 447 657 c 256
 297 660 203 469 162 350 c 256
107 350 m 256
 156 498 276 710 457 709 c 256
 642 708 608 467 569 350 c 256
 520 202 400 -10 219 -9 c 256
 34 -8 68 233 107 350 c 256
EndSplineSet
Substitution2: "Tabular Numbers lookup" uniFF10
EndChar

StartChar: one
Encoding: 49 49 66
Width: 407
VWidth: 0
Flags: HMW
LayerCount: 2
Fore
SplineSet
229 599 m 257
 250 658 l 257
 474 709 l 257
 229 0 l 257
 176 0 l 257
 396 639 l 257
 229 599 l 257
EndSplineSet
Substitution2: "Tabular Numbers lookup" uniFF11
EndChar

StartChar: two
Encoding: 50 50 67
Width: 514
VWidth: 0
Flags: HMW
LayerCount: 2
Fore
SplineSet
-14 0 m 257
 397 345 l 258
 450 390 507 442 528 511 c 256
 551 584 516 656 434 658 c 256
 322 661 252 552 214 461 c 257
 161 461 l 257
 207 582 299 711 443 710 c 256
 552 709 612 615 583 513 c 256
 560 433 497 368 435 315 c 258
 114 53 l 257
 454 52 l 257
 438 0 l 257
 -14 0 l 257
EndSplineSet
Substitution2: "Tabular Numbers lookup" uniFF12
EndChar

StartChar: four
Encoding: 52 52 68
Width: 536
VWidth: 0
Flags: HMW
LayerCount: 2
Fore
SplineSet
15 142 m 257
 567 698 l 257
 590 699 l 257
 349 0 l 257
 296 0 l 257
 352 162 l 257
 355 171 l 257
 492 565 l 257
 120 190 l 257
 379 189 l 257
 390 189 l 257
 519 189 l 257
 503 140 l 257
 15 142 l 257
EndSplineSet
Substitution2: "Tabular Numbers lookup" uniFF14
EndChar

StartChar: slash
Encoding: 47 47 69
Width: 468
VWidth: 0
Flags: HMW
LayerCount: 2
Fore
SplineSet
588 699 m 257
 644 699 l 257
 -41 -149 l 257
 -92 -148 l 257
 588 699 l 257
EndSplineSet
EndChar

StartChar: backslash
Encoding: 92 92 70
Width: 454
VWidth: 0
Flags: HMW
LayerCount: 2
Fore
SplineSet
198 701 m 257
 251 700 l 257
 385 0 l 257
 336 0 l 257
 198 701 l 257
EndSplineSet
EndChar

StartChar: eight
Encoding: 56 56 71
Width: 501
VWidth: 0
Flags: HMW
LayerCount: 2
Fore
SplineSet
205 536 m 256
 235 629 335 710 435 709 c 256
 531 708 583 622 555 534 c 256
 525 439 425 361 324 361 c 256
 226 361 176 446 205 536 c 256
253 529 m 256
 233 470 258 399 328 397 c 256
 401 395 478 463 502 529 c 256
 524 590 499 658 427 660 c 256
 353 662 277 597 253 529 c 256
64 189 m 256
 99 295 211 383 324 382 c 256
 433 382 490 288 458 187 c 256
 424 79 311 -10 197 -9 c 256
 87 -8 32 89 64 189 c 256
117 194 m 256
 90 120 120 42 206 40 c 256
 294 38 382 113 410 194 c 256
 434 264 401 344 319 346 c 256
 234 348 145 271 117 194 c 256
EndSplineSet
Substitution2: "Tabular Numbers lookup" uniFF18
EndChar

StartChar: nine
Encoding: 57 57 72
Width: 526
VWidth: 0
Flags: HMW
LayerCount: 2
Fore
SplineSet
542 474 m 256
 570 559 538 658 436 659 c 256
 332 660 238 569 208 474 c 256
 182 392 213 295 311 293 c 256
 415 291 511 380 542 474 c 256
184 0 m 257
 113 0 l 257
 426 311 l 257
 432 306 l 257
 389 276 342 251 288 252 c 256
 169 255 129 373 158 474 c 256
 193 598 310 709 444 709 c 256
 576 709 627 588 593 474 c 256
 576 418 542 366 502 323 c 258
 184 0 l 257
EndSplineSet
Substitution2: "Tabular Numbers lookup" uniFF19
EndChar

StartChar: three
Encoding: 51 51 73
Width: 515
VWidth: 0
Flags: HMW
LayerCount: 2
Fore
SplineSet
310 353 m 257
 320 388 l 257
 404 400 493 439 522 526 c 256
 544 591 515 657 441 659 c 256
 357 661 300 594 265 527 c 257
 213 528 l 257
 254 625 335 710 449 709 c 256
 550 708 604 621 576 527 c 256
 541 411 421 362 310 353 c 257
230 -9 m 256
 112 -9 61 76 80 185 c 257
 133 184 l 257
 121 104 150 44 239 43 c 256
 325 42 411 105 436 187 c 256
 466 284 389 328 305 339 c 257
 316 374 l 257
 426 365 525 305 489 180 c 256
 457 70 344 -9 230 -9 c 256
EndSplineSet
Substitution2: "Tabular Numbers lookup" uniFF13
EndChar

StartChar: five
Encoding: 53 53 74
Width: 527
VWidth: 0
Flags: HMW
LayerCount: 2
Fore
SplineSet
517 230 m 256
 480 101 362 -9 223 -9 c 256
 126 -9 70 50 45 138 c 257
 97 168 l 257
 115 98 153 44 232 43 c 256
 340 42 432 131 463 230 c 256
 489 313 458 403 361 407 c 256
 285 410 216 369 155 329 c 257
 355 700 l 257
 668 700 l 257
 652 651 l 257
 384 651 l 257
 247 408 l 257
 290 435 338 458 390 457 c 256
 514 455 547 332 517 230 c 256
EndSplineSet
Substitution2: "Tabular Numbers lookup" uniFF15
EndChar

StartChar: six
Encoding: 54 54 75
Width: 526
VWidth: 0
Flags: HMW
LayerCount: 2
Fore
SplineSet
132 226 m 256
 104 141 136 42 238 41 c 256
 342 40 436 131 466 226 c 256
 492 308 461 405 363 407 c 256
 259 409 163 320 132 226 c 256
490 699 m 257
 561 699 l 257
 248 389 l 257
 242 394 l 257
 285 424 332 449 386 448 c 256
 505 445 545 327 516 226 c 256
 481 102 364 -9 230 -9 c 256
 98 -9 47 112 81 226 c 256
 98 282 132 334 172 377 c 258
 490 699 l 257
EndSplineSet
Substitution2: "Tabular Numbers lookup" uniFF16
EndChar

StartChar: seven
Encoding: 55 55 76
Width: 489
VWidth: 0
Flags: HMW
LayerCount: 2
Fore
SplineSet
194 648 m 257
 210 700 l 257
 668 699 l 257
 122 0 l 257
 63 0 l 257
 569 647 l 257
 194 648 l 257
EndSplineSet
Substitution2: "Tabular Numbers lookup" uniFF17
EndChar

StartChar: plus
Encoding: 43 43 77
Width: 553
VWidth: 0
Flags: HMW
LayerCount: 2
Fore
SplineSet
85 230 m 257
 102 281 l 257
 533 281 l 257
 515 229 l 257
 85 230 l 257
362 491 m 257
 417 492 l 257
 252 18 l 257
 201 19 l 257
 362 491 l 257
EndSplineSet
EndChar

StartChar: equal
Encoding: 61 61 78
Width: 578
VWidth: 0
Flags: HMW
LayerCount: 2
Fore
SplineSet
62 159 m 257
 77 207 l 257
 536 207 l 257
 519 158 l 257
 62 159 l 257
109 299 m 257
 125 347 l 257
 584 347 l 257
 567 298 l 257
 109 299 l 257
EndSplineSet
EndChar

StartChar: percent
Encoding: 37 37 79
Width: 687
VWidth: 0
Flags: HMW
LayerCount: 2
Fore
SplineSet
167 555 m 256
 193 636 274 709 362 709 c 256
 449 709 483 629 459 553 c 256
 433 472 351 399 263 399 c 256
 176 399 143 479 167 555 c 256
211 554 m 256
 193 504 210 444 271 442 c 256
 333 440 394 498 414 554 c 256
 432 604 416 664 355 666 c 256
 293 668 231 610 211 554 c 256
360 147 m 256
 386 228 467 301 555 301 c 256
 642 301 676 221 652 145 c 256
 626 64 544 -9 456 -9 c 256
 369 -9 336 71 360 147 c 256
404 146 m 256
 386 96 402 36 463 34 c 256
 525 32 587 90 607 146 c 256
 625 196 608 256 547 258 c 256
 485 260 424 202 404 146 c 256
716 699 m 257
 769 699 l 257
 102 0 l 257
 52 0 l 257
 716 699 l 257
EndSplineSet
EndChar

StartChar: ampersand
Encoding: 38 38 80
Width: 635
VWidth: 0
Flags: HMW
LayerCount: 2
Fore
SplineSet
285 401 m 258
 258 453 231 505 248 565 c 256
 272 648 358 712 445 710 c 256
 527 709 573 639 550 561 c 256
 525 474 433 422 359 382 c 256
 268 333 146 291 112 182 c 256
 87 101 137 41 219 39 c 256
 386 34 520 209 628 314 c 257
 662 288 l 257
 540 169 396 -12 208 -9 c 256
 102 -7 27 72 57 179 c 256
 93 306 222 358 328 413 c 256
 391 446 476 489 499 562 c 256
 515 612 493 661 437 663 c 256
 378 665 318 618 300 564 c 256
 284 516 308 471 329 429 c 258
 550 0 l 257
 494 0 l 257
 285 401 l 258
EndSplineSet
EndChar

StartChar: question
Encoding: 63 63 81
Width: 518
VWidth: 0
Flags: HMW
LayerCount: 2
Fore
SplineSet
524 508 m 256
 553 587 514 659 426 660 c 256
 352 661 292 614 240 567 c 257
 205 596 l 257
 270 657 347 711 441 709 c 256
 554 707 609 610 575 507 c 256
 536 390 419 327 304 309 c 257
 250 171 l 257
 212 171 l 257
 257 345 l 257
 271 345 l 257
 373 353 487 406 524 508 c 256
143 24 m 256
 143 44 159 61 180 61 c 256
 202 61 217 42 217 24 c 256
 217 4 200 -12 180 -12 c 256
 158 -12 143 4 143 24 c 256
EndSplineSet
EndChar

StartChar: parenleft
Encoding: 40 40 82
Width: 264
VWidth: 0
Flags: HMW
LayerCount: 2
Fore
SplineSet
398 778 m 257
 444 778 l 257
 335 630 250 466 195 290 c 256
 146 131 123 -35 142 -201 c 257
 98 -201 l 257
 71 -36 90 131 138 290 c 256
 192 468 281 634 398 778 c 257
EndSplineSet
EndChar

StartChar: parenright
Encoding: 41 41 83
Width: 264
VWidth: 0
Flags: HMW
LayerCount: 2
Fore
SplineSet
-22 -198 m 257
 -68 -198 l 257
 41 -50 125 114 180 290 c 256
 229 449 252 615 233 781 c 257
 277 781 l 257
 304 616 285 449 237 290 c 256
 183 112 95 -54 -22 -198 c 257
EndSplineSet
EndChar

StartChar: asterisk
Encoding: 42 42 84
Width: 557
VWidth: 0
Flags: HMW
LayerCount: 2
Fore
SplineSet
587 592 m 257
 586 547 l 257
 399 498 l 257
 399 530 l 257
 587 592 l 257
474 374 m 257
 430 348 l 257
 383 504 l 257
 412 523 l 257
 474 374 l 257
259 350 m 257
 229 379 l 257
 388 522 l 257
 409 500 l 257
 259 350 l 257
236 550 m 257
 264 592 l 257
 411 528 l 257
 392 499 l 257
 236 550 l 257
442 699 m 257
 487 699 l 257
 415 514 l 257
 383 514 l 257
 442 699 l 257
EndSplineSet
EndChar

StartChar: less
Encoding: 60 60 85
Width: 602
VWidth: 0
Flags: HMW
LayerCount: 2
Fore
SplineSet
177 255 m 257
 515 74 l 257
 498 29 l 257
 89 243 l 257
 99 272 l 257
 656 489 l 257
 637 433 l 257
 177 255 l 257
EndSplineSet
EndChar

StartChar: greater
Encoding: 62 62 86
Width: 602
VWidth: 0
Flags: HMW
LayerCount: 2
Fore
SplineSet
492 259 m 257
 155 441 l 257
 172 486 l 257
 580 272 l 257
 571 243 l 257
 14 26 l 257
 32 82 l 257
 492 259 l 257
EndSplineSet
EndChar

StartChar: bracketleft
Encoding: 91 91 87
Width: 266
VWidth: 0
Flags: HMW
LayerCount: 2
Fore
SplineSet
336 731 m 257
 57 -171 l 257
 163 -171 l 257
 147 -220 l 257
 -10 -220 l 257
 299 780 l 257
 456 780 l 257
 441 731 l 257
 336 731 l 257
EndSplineSet
EndChar

StartChar: bracketright
Encoding: 93 93 88
Width: 266
VWidth: 0
Flags: HMW
LayerCount: 2
Fore
SplineSet
36 -171 m 257
 314 731 l 257
 208 731 l 257
 224 780 l 257
 380 780 l 257
 71 -220 l 257
 -85 -220 l 257
 -70 -171 l 257
 36 -171 l 257
EndSplineSet
EndChar

StartChar: asciicircum
Encoding: 94 94 89
Width: 479
VWidth: 0
Flags: HMW
LayerCount: 2
Fore
SplineSet
411 648 m 257
 217 461 l 257
 160 461 l 257
 414 709 l 257
 437 709 l 257
 522 459 l 257
 474 459 l 257
 411 648 l 257
EndSplineSet
EndChar

StartChar: underscore
Encoding: 95 95 90
Width: 470
VWidth: 0
Flags: HMW
LayerCount: 2
Fore
SplineSet
-97 -123 m 257
 -85 -87 l 257
 387 -87 l 257
 375 -123 l 257
 -97 -123 l 257
EndSplineSet
EndChar

StartChar: grave
Encoding: 96 96 91
Width: 344
VWidth: 0
Flags: HMW
LayerCount: 2
Fore
SplineSet
252 674 m 257
 304 700 l 257
 407 539 l 257
 376 521 l 257
 252 674 l 257
EndSplineSet
EndChar

StartChar: braceleft
Encoding: 123 123 92
Width: 280
VWidth: 0
Flags: HMW
LayerCount: 2
Fore
SplineSet
324 652 m 258
 267 466 l 258
 241 384 208 309 119 284 c 257
 123 297 l 257
 203 264 178 182 158 114 c 258
 99 -73 l 258
 88 -111 85 -152 132 -153 c 258
 161 -153 l 257
 148 -200 l 257
 107 -200 l 258
 32 -201 37 -115 54 -60 c 258
 119 150 l 258
 132 196 139 233 106 270 c 257
 118 310 l 257
 164 339 187 379 204 430 c 258
 268 641 l 258
 290 706 330 779 404 779 c 258
 448 779 l 257
 435 734 l 257
 408 734 l 258
 359 734 338 696 324 652 c 258
EndSplineSet
EndChar

StartChar: braceright
Encoding: 125 125 93
Width: 280
VWidth: 0
Flags: HMW
LayerCount: 2
Fore
SplineSet
73 -72 m 258
 129 114 l 258
 155 196 188 271 277 296 c 257
 273 283 l 257
 193 316 219 398 239 466 c 258
 297 653 l 258
 308 691 311 732 264 733 c 258
 236 734 l 257
 249 780 l 257
 289 780 l 258
 364 780 359 695 342 640 c 258
 277 430 l 258
 264 384 258 347 291 310 c 257
 279 270 l 257
 233 241 210 201 193 150 c 258
 129 -61 l 258
 107 -126 66 -199 -8 -199 c 258
 -52 -199 l 257
 -38 -154 l 257
 -12 -154 l 258
 37 -154 59 -116 73 -72 c 258
EndSplineSet
EndChar

StartChar: asciitilde
Encoding: 126 126 94
Width: 541
VWidth: 0
Flags: HMW
LayerCount: 2
Fore
SplineSet
134 177 m 257
 89 181 l 257
 90 189 90 198 92 206 c 256
 101 233 119 261 139 281 c 256
 166 307 204 326 242 326 c 256
 285 326 312 297 338 267 c 256
 353 247 373 222 402 222 c 256
 440 222 472 260 484 293 c 256
 488 302 488 313 488 322 c 257
 537 318 l 257
 536 309 535 298 532 289 c 256
 524 262 509 234 489 214 c 256
 466 191 430 172 397 173 c 256
 357 174 331 202 307 229 c 256
 288 252 268 278 234 278 c 256
 187 278 152 238 138 199 c 256
 135 192 135 184 134 177 c 257
EndSplineSet
EndChar

StartChar: exclamdown
Encoding: 161 161 95
Width: 282
VWidth: 0
Flags: HMW
LayerCount: 2
Fore
SplineSet
43 -245 m 257
 -23 -245 l 257
 162 254 l 257
 200 254 l 257
 43 -245 l 257
277 429 m 256
 273 413 247 392 230 394 c 256
 212 396 201 414 205 432 c 256
 209 448 235 469 252 467 c 256
 270 465 281 447 277 429 c 256
EndSplineSet
EndChar

StartChar: cent
Encoding: 162 162 96
Width: 545
VWidth: 0
Flags: HMW
LayerCount: 2
Fore
SplineSet
230 20 m 257
 269 20 l 257
 224 -111 l 257
 182 -111 l 257
 230 20 l 257
152 230 m 256
 121 144 152 42 256 40 c 256
 323 39 382 73 433 112 c 257
 413 48 l 257
 363 15 307 -9 246 -9 c 256
 113 -8 64 116 101 230 c 256
 142 356 266 468 403 469 c 256
 456 469 499 450 535 411 c 257
 515 347 l 257
 491 396 450 421 394 420 c 256
 286 419 187 328 152 230 c 256
418 577 m 257
 461 577 l 257
 411 443 l 257
 372 443 l 257
 418 577 l 257
EndSplineSet
EndChar

StartChar: sterling
Encoding: 163 163 97
Width: 545
VWidth: 0
Flags: HMW
LayerCount: 2
Fore
SplineSet
133 344 m 257
 455 344 l 257
 437 295 l 257
 115 295 l 257
 133 344 l 257
547 487 m 257
 562 556 566 652 472 655 c 256
 396 658 321 596 295 527 c 256
 262 438 334 353 306 263 c 256
 273 157 173 85 82 32 c 257
 88 52 l 257
 444 52 l 257
 425 0 l 257
 17 0 l 257
 100 75 215 143 252 255 c 256
 282 347 211 434 240 527 c 256
 272 627 375 711 482 709 c 256
 598 707 614 595 597 504 c 257
 547 487 l 257
EndSplineSet
EndChar

StartChar: currency
Encoding: 164 164 98
Width: 537
VWidth: 0
Flags: HMW
LayerCount: 2
Fore
SplineSet
161 513 m 257
 204 544 l 257
 255 461 l 257
 214 431 l 257
 161 513 l 257
40 56 m 257
 17 92 l 257
 122 169 l 257
 145 134 l 257
 40 56 l 257
517 431 m 257
 493 466 l 257
 598 544 l 257
 620 508 l 257
 517 431 l 257
382 139 m 257
 424 169 l 257
 476 87 l 257
 435 56 l 257
 382 139 l 257
95 300 m 256
 135 423 260 539 395 539 c 256
 527 539 576 413 539 300 c 256
 499 177 374 61 239 61 c 256
 107 61 58 187 95 300 c 256
147 300 m 256
 117 215 143 111 248 110 c 256
 355 109 454 204 488 300 c 256
 518 385 491 489 386 490 c 256
 279 491 181 396 147 300 c 256
EndSplineSet
EndChar

StartChar: yen
Encoding: 165 165 99
Width: 539
VWidth: 0
Flags: HMW
LayerCount: 2
Fore
SplineSet
79 283 m 257
 95 331 l 257
 550 331 l 257
 534 282 l 257
 79 283 l 257
31 143 m 257
 47 191 l 257
 503 191 l 257
 487 142 l 257
 31 143 l 257
635 699 m 257
 698 699 l 257
 335 286 l 257
 236 0 l 257
 180 0 l 257
 283 293 l 257
 206 700 l 257
 262 700 l 257
 322 340 l 257
 635 699 l 257
EndSplineSet
EndChar

StartChar: brokenbar
Encoding: 166 166 100
Width: 233
VWidth: 0
Flags: HMW
LayerCount: 2
Fore
SplineSet
277 694 m 257
 324 694 l 257
 241 456 l 257
 194 456 l 257
 277 694 l 257
170 244 m 257
 87 6 l 257
 40 6 l 257
 123 244 l 257
 170 244 l 257
EndSplineSet
EndChar

StartChar: section
Encoding: 167 167 101
Width: 379
VWidth: 0
Flags: HMW
LayerCount: 2
Fore
SplineSet
461 594 m 257
 444 635 416 659 369 659 c 256
 327 659 267 636 253 592 c 256
 236 539 303 516 339 497 c 256
 390 470 442 430 424 365 c 256
 398 273 305 248 223 242 c 257
 230 261 l 257
 284 279 354 301 371 362 c 256
 386 416 335 442 295 462 c 256
 242 489 181 524 203 594 c 256
 225 665 307 708 378 709 c 256
 442 710 487 679 506 619 c 257
 461 594 l 257
63 147 m 257
 66 87 93 41 158 40 c 256
 207 39 268 64 286 114 c 256
 307 172 252 199 210 222 c 256
 157 251 101 292 122 360 c 256
 149 450 243 471 323 478 c 257
 318 463 l 257
 264 443 193 425 174 365 c 256
 155 306 211 279 254 256 c 256
 308 227 359 185 339 117 c 256
 316 36 225 -11 145 -9 c 256
 63 -7 18 46 15 124 c 257
 63 147 l 257
EndSplineSet
EndChar

StartChar: dieresis
Encoding: 168 168 102
Width: 424
VWidth: 0
Flags: HMW
LayerCount: 2
Fore
SplineSet
443 673 m 256
 446 689 472 710 489 708 c 256
 507 706 518 688 515 670 c 256
 512 654 485 633 468 635 c 256
 450 637 440 655 443 673 c 256
255 673 m 256
 258 689 284 710 301 708 c 256
 319 706 330 688 327 670 c 256
 324 654 297 633 280 635 c 256
 262 637 252 655 255 673 c 256
EndSplineSet
EndChar

StartChar: copyright
Encoding: 169 169 103
Width: 752
VWidth: 0
Flags: HMW
LayerCount: 2
Fore
SplineSet
283 350 m 256
 256 268 284 171 384 169 c 256
 439 167 488 194 532 223 c 257
 519 180 l 257
 476 154 431 134 380 135 c 256
 263 136 218 249 248 350 c 256
 280 461 386 563 506 565 c 256
 553 566 589 549 623 519 c 257
 610 475 l 257
 582 511 550 531 503 531 c 256
 401 531 313 442 283 350 c 256
147 350 m 256
 98 196 167 26 346 25 c 256
 531 24 699 180 753 350 c 256
 802 504 733 674 554 675 c 256
 369 676 201 520 147 350 c 256
110 350 m 256
 167 541 352 711 557 710 c 256
 755 709 842 525 790 350 c 256
 733 159 548 -11 343 -10 c 256
 145 -9 58 175 110 350 c 256
EndSplineSet
EndChar

StartChar: registered
Encoding: 174 174 104
Width: 752
VWidth: 0
Flags: HMW
LayerCount: 2
Fore
SplineSet
406 351 m 257
 441 351 l 257
 518 149 l 257
 479 149 l 257
 406 351 l 257
409 569 m 257
 442 569 l 257
 311 151 l 257
 279 151 l 257
 409 569 l 257
415 540 m 257
 424 569 l 257
 497 570 l 257
 566 566 618 520 597 447 c 256
 576 372 499 331 426 327 c 257
 349 327 l 257
 358 355 l 257
 431 355 l 257
 487 359 547 390 564 448 c 256
 581 503 544 534 492 539 c 257
 415 540 l 257
147 350 m 256
 98 196 167 26 346 25 c 256
 531 24 699 180 753 350 c 256
 802 504 733 674 554 675 c 256
 369 676 201 520 147 350 c 256
110 350 m 256
 167 540 352 711 557 710 c 256
 755 709 842 525 790 350 c 256
 733 160 548 -11 343 -10 c 256
 145 -9 58 175 110 350 c 256
EndSplineSet
EndChar

StartChar: ordfeminine
Encoding: 170 170 105
Width: 223
VWidth: 0
Flags: HMW
LayerCount: 2
Fore
SplineSet
172 530 m 256
 165 504 181 482 207 480 c 256
 250 477 279 515 302 545 c 257
 303 529 l 257
 279 492 247 454 198 456 c 256
 157 458 134 493 147 532 c 256
 162 576 217 607 261 607 c 256
 287 607 304 595 324 580 c 257
 319 564 l 257
 300 576 283 588 260 588 c 256
 228 588 181 563 172 530 c 256
222 653 m 257
 215 674 l 257
 241 687 272 705 303 703 c 256
 345 700 364 670 356 630 c 257
 297 461 l 257
 271 461 l 257
 331 631 l 257
 331 655 329 675 300 678 c 256
 273 681 244 665 222 653 c 257
EndSplineSet
EndChar

StartChar: ordmasculine
Encoding: 186 186 106
Width: 261
VWidth: 0
Flags: HMW
LayerCount: 2
Fore
SplineSet
161 581 m 256
 180 642 247 700 313 699 c 256
 379 698 406 637 388 579 c 256
 369 518 302 460 236 461 c 256
 170 462 143 523 161 581 c 256
188 580 m 256
 173 539 189 489 239 488 c 256
 290 487 344 534 361 580 c 256
 376 621 360 671 310 672 c 256
 259 673 205 626 188 580 c 256
EndSplineSet
EndChar

StartChar: guillemotleft
Encoding: 171 171 107
Width: 469
VWidth: 0
Flags: HMW
LayerCount: 2
Fore
SplineSet
276 257 m 257
 368 49 l 257
 329 20 l 257
 221 259 l 257
 485 489 l 257
 509 458 l 257
 276 257 l 257
125 257 m 257
 218 49 l 257
 178 20 l 257
 70 259 l 257
 334 489 l 257
 359 458 l 257
 125 257 l 257
EndSplineSet
EndChar

StartChar: guillemotright
Encoding: 187 187 108
Width: 469
VWidth: 0
Flags: HMW
LayerCount: 2
Fore
SplineSet
260 253 m 257
 168 461 l 257
 207 490 l 257
 316 251 l 257
 51 21 l 257
 27 52 l 257
 260 253 l 257
411 253 m 257
 319 461 l 257
 358 490 l 257
 466 251 l 257
 201 21 l 257
 178 52 l 257
 411 253 l 257
EndSplineSet
EndChar

StartChar: uni00AD
Encoding: 173 173 109
Width: 197
VWidth: 0
Flags: HMW
LayerCount: 2
Fore
SplineSet
28 227 m 257
 44 275 l 257
 235 275 l 257
 218 227 l 257
 28 227 l 257
EndSplineSet
EndChar

StartChar: logicalnot
Encoding: 172 172 110
Width: 583
VWidth: 0
Flags: HMW
LayerCount: 2
Fore
SplineSet
117 326 m 257
 134 375 l 257
 598 375 l 257
 527 176 l 257
 479 176 l 257
 533 326 l 257
 117 326 l 257
EndSplineSet
EndChar

StartChar: macron
Encoding: 175 175 111
Width: 479
VWidth: 0
Flags: HMW
LayerCount: 2
Fore
SplineSet
234 626 m 257
 249 675 l 257
 580 675 l 257
 565 626 l 257
 234 626 l 257
EndSplineSet
EndChar

StartChar: degree
Encoding: 176 176 112
Width: 261
VWidth: 0
Flags: HMW
LayerCount: 2
Fore
SplineSet
168 601 m 256
 187 662 254 720 320 719 c 256
 386 718 413 657 395 599 c 256
 376 538 309 480 243 481 c 256
 177 482 150 543 168 601 c 256
195 600 m 256
 180 559 196 509 246 508 c 256
 297 507 350 554 367 600 c 256
 382 641 366 691 316 692 c 256
 265 693 212 646 195 600 c 256
EndSplineSet
EndChar

StartChar: plusminus
Encoding: 177 177 113
Width: 576
VWidth: 0
Flags: HMW
LayerCount: 2
Fore
SplineSet
28 0 m 257
 43 52 l 257
 499 52 l 257
 483 0 l 257
 28 0 l 257
138 359 m 257
 154 411 l 257
 610 411 l 257
 594 359 l 257
 138 359 l 257
418 620 m 257
 473 620 l 257
 326 150 l 257
 274 151 l 257
 418 620 l 257
EndSplineSet
EndChar

StartChar: uni00B2
Encoding: 178 178 114
Width: 319
VWidth: 0
Flags: HMW
LayerCount: 2
Fore
SplineSet
67 284 m 257
 319 490 l 258
 351 516 389 548 403 589 c 256
 417 630 401 674 353 677 c 256
 285 682 240 612 213 560 c 257
 180 560 l 257
 213 630 269 710 357 708 c 256
 425 707 453 646 434 586 c 256
 419 539 381 502 344 471 c 258
 146 314 l 257
 348 313 l 257
 337 283 l 257
 67 284 l 257
EndSplineSet
EndChar

StartChar: uni00B3
Encoding: 179 179 115
Width: 291
VWidth: 0
Flags: HMW
LayerCount: 2
Fore
SplineSet
245 493 m 257
 252 513 l 257
 302 523 358 543 377 596 c 256
 391 634 374 672 332 675 c 256
 282 678 247 635 222 598 c 257
 190 599 l 257
 220 654 267 707 336 705 c 256
 396 703 428 650 409 595 c 256
 386 525 311 502 245 493 c 257
192 275 m 256
 118 275 96 326 104 391 c 257
 136 391 l 257
 132 345 141 308 196 306 c 256
 247 304 303 345 318 393 c 256
 337 452 291 473 242 483 c 257
 249 504 l 257
 315 495 374 465 350 388 c 256
 330 323 259 275 192 275 c 256
EndSplineSet
EndChar

StartChar: acute
Encoding: 180 180 116
Width: 344
VWidth: 0
Flags: HMW
LayerCount: 2
Fore
SplineSet
439 670 m 257
 225 522 l 257
 201 543 l 257
 398 699 l 257
 439 670 l 257
EndSplineSet
EndChar

StartChar: mu
Encoding: 181 181 117
Width: 474
VWidth: 0
Flags: HMW
LayerCount: 2
Fore
SplineSet
295 0 m 257
 454 460 l 257
 506 460 l 257
 347 0 l 257
 295 0 l 257
126 168 m 258
 109 113 105 42 180 40 c 256
 263 37 323 112 359 178 c 257
 383 178 l 257
 343 90 267 -10 159 -9 c 256
 58 -9 51 85 74 162 c 257
 178 460 l 257
 226 459 l 257
 126 168 l 258
176 459 m 257
 229 460 l 257
 -41 -320 l 257
 -89 -319 l 257
 176 459 l 257
EndSplineSet
EndChar

StartChar: paragraph
Encoding: 182 182 118
Width: 494
VWidth: 0
Flags: HMW
LayerCount: 2
Fore
SplineSet
441 658 m 257
 454 699 l 257
 606 699 l 257
 593 658 l 257
 441 658 l 257
579 699 m 257
 624 699 l 257
 310 -219 l 257
 265 -219 l 257
 579 699 l 257
454 699 m 257
 500 699 l 257
 185 -219 l 257
 141 -219 l 257
 454 699 l 257
311 271 m 257
 191 284 127 367 166 486 c 256
 208 615 323 699 454 699 c 257
 311 271 l 257
EndSplineSet
EndChar

StartChar: periodcentered
Encoding: 183 183 119
Width: 260
VWidth: 0
Flags: HMW
LayerCount: 2
Fore
SplineSet
119 234 m 256
 123 250 149 271 166 269 c 256
 184 267 196 249 192 231 c 256
 188 215 161 194 144 196 c 256
 126 198 115 216 119 234 c 256
EndSplineSet
EndChar

StartChar: uni00B9
Encoding: 185 185 120
Width: 442
VWidth: 0
Flags: HMW
LayerCount: 2
Fore
SplineSet
302 635 m 257
 312 668 l 257
 449 699 l 257
 301 275 l 257
 269 275 l 257
 399 657 l 257
 302 635 l 257
EndSplineSet
EndChar

StartChar: cedilla
Encoding: 184 184 121
Width: 329
VWidth: 0
Flags: HMW
LayerCount: 2
Fore
SplineSet
134 35 m 257
 175 35 l 257
 83 -61 l 257
 93 -57 104 -51 115 -52 c 256
 154 -58 172 -90 163 -128 c 256
 150 -181 83 -220 31 -219 c 256
 -2 -219 -21 -202 -43 -180 c 257
 -15 -156 l 257
 0 -170 15 -183 38 -183 c 256
 70 -183 117 -157 126 -125 c 256
 133 -100 116 -81 92 -79 c 256
 68 -76 41 -89 19 -98 c 257
 134 35 l 257
EndSplineSet
EndChar

StartChar: questiondown
Encoding: 191 191 122
Width: 518
VWidth: 0
Flags: HMW
LayerCount: 2
Fore
SplineSet
125 192 m 256
 94 113 135 41 222 40 c 256
 296 39 357 86 409 133 c 257
 444 104 l 257
 379 43 302 -11 208 -9 c 256
 95 -7 40 90 74 193 c 256
 113 310 230 373 345 391 c 257
 399 529 l 257
 437 530 l 257
 393 355 l 257
 379 355 l 257
 247 343 156 273 125 192 c 256
505 674 m 256
 501 658 474 637 457 639 c 256
 439 641 429 659 433 677 c 256
 437 693 463 714 480 712 c 256
 498 710 509 692 505 674 c 256
EndSplineSet
EndChar

StartChar: multiply
Encoding: 215 215 123
Width: 553
VWidth: 0
Flags: HMW
LayerCount: 2
Fore
SplineSet
60 32 m 257
 35 72 l 257
 280 257 l 257
 163 445 l 257
 207 478 l 257
 318 289 l 257
 560 477 l 257
 584 437 l 257
 340 252 l 257
 456 65 l 257
 412 32 l 257
 301 220 l 257
 60 32 l 257
EndSplineSet
EndChar

StartChar: Oslash
Encoding: 216 216 124
Width: 743
VWidth: 0
Flags: HMW
LayerCount: 2
Fore
SplineSet
163 350 m 256
 115 213 157 49 326 47 c 256
 499 45 651 196 705 350 c 256
 753 487 711 651 542 653 c 256
 369 655 217 504 163 350 c 256
105 350 m 256
 166 536 348 710 552 709 c 256
 751 708 818 517 763 350 c 256
 702 164 520 -10 316 -9 c 256
 117 -8 50 183 105 350 c 256
853 742 m 257
 886 714 l 257
 17 -42 l 257
 -15 -14 l 257
 853 742 l 257
EndSplineSet
EndChar

StartChar: Thorn
Encoding: 222 222 125
Width: 505
VWidth: 0
Flags: HMW
LayerCount: 2
Fore
SplineSet
259 699 m 257
 314 700 l 257
 72 0 l 257
 21 0 l 257
 259 699 l 257
220 508 m 257
 239 560 l 257
 376 560 l 256
 495 555 572 468 533 349 c 256
 493 224 367 145 240 140 c 256
 95 140 l 257
 114 192 l 257
 250 192 l 257
 348 197 446 255 480 350 c 256
 512 441 456 502 365 507 c 257
 220 508 l 257
EndSplineSet
EndChar

StartChar: divide
Encoding: 247 247 126
Width: 586
VWidth: 0
Flags: HMW
LayerCount: 2
Fore
SplineSet
355 452 m 256
 359 468 385 489 402 487 c 256
 420 485 431 467 427 449 c 256
 423 433 397 412 380 414 c 256
 362 416 351 434 355 452 c 256
220 56 m 256
 224 72 250 93 267 91 c 256
 285 89 296 71 292 53 c 256
 288 37 262 16 245 18 c 256
 227 20 216 38 220 56 c 256
81 230 m 257
 98 281 l 257
 570 281 l 257
 553 229 l 257
 81 230 l 257
EndSplineSet
EndChar

StartChar: oslash
Encoding: 248 248 127
Width: 513
VWidth: 0
Flags: HMW
LayerCount: 2
Fore
SplineSet
59 230 m 256
 99 354 225 469 361 469 c 256
 494 469 544 344 507 230 c 256
 467 106 341 -9 205 -9 c 256
 72 -9 22 116 59 230 c 256
111 230 m 256
 80 144 109 41 214 40 c 256
 322 39 421 133 455 230 c 256
 486 316 457 419 352 420 c 256
 244 421 145 327 111 230 c 256
534 496 m 257
 562 480 l 257
 16 -40 l 257
 -11 -24 l 257
 534 496 l 257
EndSplineSet
EndChar

StartChar: circumflex
Encoding: 710 710 128
Width: 451
VWidth: 0
Flags: HMW
LayerCount: 2
Fore
SplineSet
405 673 m 257
 246 565 l 257
 221 593 l 257
 418 730 l 257
 525 589 l 257
 487 564 l 257
 405 673 l 257
EndSplineSet
EndChar

StartChar: ogonek
Encoding: 731 731 129
Width: 240
VWidth: 0
Flags: HMW
LayerCount: 2
Fore
SplineSet
108 -148 m 257
 121 -182 l 257
 91 -201 61 -219 24 -219 c 256
 -31 -220 -75 -185 -60 -127 c 256
 -40 -52 54 -12 117 18 c 257
 140 0 l 257
 92 -26 7 -55 -7 -116 c 256
 -14 -147 5 -170 36 -173 c 256
 61 -175 87 -160 108 -148 c 257
EndSplineSet
EndChar

StartChar: tilde
Encoding: 732 732 130
Width: 498
VWidth: 0
Flags: HMW
LayerCount: 2
Fore
SplineSet
269 637 m 257
 293 670 327 708 372 706 c 256
 411 705 435 658 475 661 c 256
 503 663 524 689 543 707 c 257
 568 679 l 257
 542 651 507 615 465 617 c 256
 427 619 404 663 365 662 c 256
 334 661 315 636 299 613 c 257
 269 637 l 257
EndSplineSet
EndChar

StartChar: ring
Encoding: 730 730 131
Width: 261
VWidth: 0
Flags: HMW
LayerCount: 2
Fore
SplineSet
247 787 m 256
 263 837 322 885 376 884 c 256
 430 883 457 832 442 783 c 256
 426 733 367 685 313 686 c 256
 259 687 232 738 247 787 c 256
280 784 m 256
 271 755 286 721 319 718 c 256
 353 715 399 755 409 786 c 256
 418 815 403 849 370 852 c 256
 336 855 290 815 280 784 c 256
EndSplineSet
EndChar

StartChar: dotaccent
Encoding: 729 729 132
Width: 260
VWidth: 0
Flags: HMW
LayerCount: 2
Fore
SplineSet
304 776 m 256
 308 792 334 813 351 811 c 256
 369 809 380 791 376 773 c 256
 372 757 346 736 329 738 c 256
 311 740 300 758 304 776 c 256
EndSplineSet
EndChar

StartChar: uni2010
Encoding: 8208 8208 133
Width: 197
VWidth: 0
Flags: HMW
LayerCount: 2
Fore
SplineSet
28 227 m 257
 44 275 l 257
 235 275 l 257
 218 227 l 257
 28 227 l 257
EndSplineSet
EndChar

StartChar: endash
Encoding: 8211 8211 134
Width: 696
VWidth: 0
Flags: HMW
LayerCount: 2
Fore
SplineSet
89 227 m 257
 105 275 l 257
 672 275 l 257
 656 226 l 257
 89 227 l 257
EndSplineSet
EndChar

StartChar: figuredash
Encoding: 8210 8210 135
Width: 555
VWidth: 0
Flags: HMW
LayerCount: 2
Fore
SplineSet
89 227 m 257
 105 275 l 257
 531 275 l 257
 515 226 l 257
 89 227 l 257
EndSplineSet
EndChar

StartChar: emdash
Encoding: 8212 8212 136
Width: 837
VWidth: 0
Flags: HMW
LayerCount: 2
Fore
SplineSet
89 227 m 257
 105 275 l 257
 813 275 l 257
 797 226 l 257
 89 227 l 257
EndSplineSet
EndChar

StartChar: minus
Encoding: 8722 8722 137
Width: 555
VWidth: 0
Flags: HMW
LayerCount: 2
Fore
SplineSet
89 227 m 257
 105 275 l 257
 531 275 l 257
 515 226 l 257
 89 227 l 257
EndSplineSet
EndChar

StartChar: quoteright
Encoding: 8217 8217 138
Width: 246
VWidth: 0
Flags: HMW
LayerCount: 2
Fore
SplineSet
311 699 m 257
 374 699 l 257
 200 472 l 257
 163 472 l 257
 311 699 l 257
EndSplineSet
EndChar

StartChar: quoteleft
Encoding: 8216 8216 139
Width: 239
VWidth: 0
Flags: HMW
LayerCount: 2
Fore
SplineSet
228 471 m 257
 164 471 l 257
 338 698 l 257
 376 698 l 257
 228 471 l 257
EndSplineSet
EndChar

StartChar: quotesinglbase
Encoding: 8218 8218 140
Width: 246
VWidth: 0
Flags: HMW
LayerCount: 2
Fore
SplineSet
97 79 m 257
 161 79 l 257
 -13 -148 l 257
 -50 -148 l 257
 97 79 l 257
EndSplineSet
EndChar

StartChar: quotedblleft
Encoding: 8220 8220 141
Width: 412
VWidth: 0
Flags: HMW
LayerCount: 2
Fore
SplineSet
235 471 m 257
 171 471 l 257
 346 698 l 257
 383 698 l 257
 235 471 l 257
401 471 m 257
 337 471 l 257
 511 698 l 257
 549 698 l 257
 401 471 l 257
EndSplineSet
EndChar

StartChar: quotedblright
Encoding: 8221 8221 142
Width: 412
VWidth: 0
Flags: HMW
LayerCount: 2
Fore
SplineSet
303 699 m 257
 367 699 l 257
 193 472 l 257
 155 472 l 257
 303 699 l 257
469 699 m 257
 533 699 l 257
 358 472 l 257
 321 472 l 257
 469 699 l 257
EndSplineSet
EndChar

StartChar: perthousand
Encoding: 8240 8240 143
Width: 1041
VWidth: 0
Flags: HMW
LayerCount: 2
Fore
SplineSet
713 147 m 256
 739 228 821 301 909 301 c 256
 996 301 1030 221 1006 145 c 256
 980 64 898 -9 810 -9 c 256
 723 -9 689 71 713 147 c 256
758 146 m 256
 740 96 756 36 817 34 c 256
 879 32 940 90 960 146 c 256
 978 196 962 256 901 258 c 256
 839 260 778 202 758 146 c 256
167 555 m 256
 193 636 274 709 362 709 c 256
 449 709 483 629 459 553 c 256
 433 472 351 399 263 399 c 256
 176 399 143 479 167 555 c 256
211 554 m 256
 193 504 210 444 271 442 c 256
 333 440 394 498 414 554 c 256
 432 604 416 664 355 666 c 256
 293 668 231 610 211 554 c 256
360 147 m 256
 386 228 467 301 555 301 c 256
 642 301 676 221 652 145 c 256
 626 64 544 -9 456 -9 c 256
 369 -9 336 71 360 147 c 256
404 146 m 256
 386 96 402 36 463 34 c 256
 525 32 587 90 607 146 c 256
 625 196 608 256 547 258 c 256
 485 260 424 202 404 146 c 256
716 699 m 257
 769 699 l 257
 102 0 l 257
 52 0 l 257
 716 699 l 257
EndSplineSet
EndChar

StartChar: guilsinglleft
Encoding: 8249 8249 144
Width: 319
VWidth: 0
Flags: HMW
LayerCount: 2
Fore
SplineSet
125 257 m 257
 218 49 l 257
 178 20 l 257
 70 259 l 257
 334 489 l 257
 359 458 l 257
 125 257 l 257
EndSplineSet
EndChar

StartChar: guilsinglright
Encoding: 8250 8250 145
Width: 329
VWidth: 0
Flags: HMW
LayerCount: 2
Fore
SplineSet
269 253 m 257
 177 461 l 257
 216 490 l 257
 325 251 l 257
 61 21 l 257
 36 52 l 257
 269 253 l 257
EndSplineSet
EndChar

StartChar: uni2031
Encoding: 8241 8241 146
Width: 1394
VWidth: 0
Flags: HMW
LayerCount: 2
Fore
SplineSet
1067 147 m 256
 1093 228 1175 301 1263 301 c 256
 1350 301 1384 221 1360 145 c 256
 1334 64 1252 -9 1164 -9 c 256
 1077 -9 1043 71 1067 147 c 256
1112 146 m 256
 1094 96 1110 36 1171 34 c 256
 1233 32 1295 90 1315 146 c 256
 1333 196 1316 256 1255 258 c 256
 1193 260 1132 202 1112 146 c 256
713 147 m 256
 739 228 821 301 909 301 c 256
 996 301 1030 221 1006 145 c 256
 980 64 898 -9 810 -9 c 256
 723 -9 689 71 713 147 c 256
758 146 m 256
 740 96 756 36 817 34 c 256
 879 32 940 90 960 146 c 256
 978 196 962 256 901 258 c 256
 839 260 778 202 758 146 c 256
167 555 m 256
 193 636 274 709 362 709 c 256
 449 709 483 629 459 553 c 256
 433 472 351 399 263 399 c 256
 176 399 143 479 167 555 c 256
211 554 m 256
 193 504 210 444 271 442 c 256
 333 440 394 498 414 554 c 256
 432 604 416 664 355 666 c 256
 293 668 231 610 211 554 c 256
360 147 m 256
 386 228 467 301 555 301 c 256
 642 301 676 221 652 145 c 256
 626 64 544 -9 456 -9 c 256
 369 -9 336 71 360 147 c 256
404 146 m 256
 386 96 402 36 463 34 c 256
 525 32 587 90 607 146 c 256
 625 196 608 256 547 258 c 256
 485 260 424 202 404 146 c 256
716 699 m 257
 769 699 l 257
 102 0 l 257
 52 0 l 257
 716 699 l 257
EndSplineSet
EndChar

StartChar: uni203D
Encoding: 8253 8253 147
Width: 524
VWidth: 0
Flags: HMW
LayerCount: 2
Fore
SplineSet
524 508 m 256
 553 587 514 659 426 660 c 256
 352 661 292 614 240 567 c 257
 205 596 l 257
 270 657 347 711 441 709 c 256
 554 707 609 610 575 507 c 256
 536 391 422 324 306 309 c 257
 284 347 l 257
 384 358 487 408 524 508 c 256
325 510 m 257
 390 509 l 257
 259 171 l 257
 222 171 l 257
 325 510 l 257
155 26 m 256
 159 42 185 63 202 61 c 256
 220 59 231 41 227 23 c 256
 223 7 197 -14 180 -12 c 256
 162 -10 151 8 155 26 c 256
EndSplineSet
EndChar

StartChar: Euro
Encoding: 8364 8364 148
Width: 590
VWidth: 0
Flags: HMW
LayerCount: 2
Fore
SplineSet
126 423 m 257
 137 454 l 257
 609 454 l 257
 599 423 l 257
 126 423 l 257
85 303 m 257
 96 334 l 257
 544 334 l 257
 533 303 l 257
 85 303 l 257
214 350 m 256
 175 238 163 45 327 43 c 256
 386 42 440 68 491 96 c 257
 470 31 l 257
 422 9 370 -9 317 -9 c 256
 122 -8 113 209 160 350 c 256
 215 517 361 710 555 709 c 256
 604 709 646 693 687 669 c 257
 666 603 l 257
 632 637 595 658 545 658 c 256
 381 659 262 489 214 350 c 256
EndSplineSet
EndChar

StartChar: fraction
Encoding: 8260 8260 149
Width: 663
VWidth: 0
Flags: HMW
LayerCount: 2
Fore
SplineSet
748 698 m 257
 792 697 l 257
 45 0 l 257
 1 0 l 257
 748 698 l 257
EndSplineSet
EndChar

StartChar: onequarter
Encoding: 188 188 150
Width: 709
VWidth: 0
Flags: HMW
LayerCount: 2
Fore
SplineSet
784 698 m 257
 828 697 l 257
 81 0 l 257
 37 0 l 257
 784 698 l 257
187 635 m 257
 197 668 l 257
 334 699 l 257
 187 275 l 257
 154 275 l 257
 284 657 l 257
 187 635 l 257
350 85 m 257
 383 112 l 257
 568 113 l 257
 575 113 l 257
 652 113 l 257
 643 85 l 257
 350 85 l 257
385 86 m 257
 349 87 l 257
 681 418 l 257
 695 419 l 257
 552 0 l 257
 519 0 l 257
 553 98 l 257
 554 102 l 257
 636 336 l 257
 385 86 l 257
EndSplineSet
EndChar

StartChar: onehalf
Encoding: 189 189 151
Width: 770
VWidth: 0
Flags: HMW
LayerCount: 2
Fore
SplineSet
784 698 m 257
 828 697 l 257
 81 0 l 257
 37 0 l 257
 784 698 l 257
187 635 m 257
 197 668 l 257
 334 699 l 257
 187 275 l 257
 154 275 l 257
 284 657 l 257
 187 635 l 257
411 4 m 257
 663 209 l 258
 695 235 733 268 747 309 c 256
 761 350 745 392 697 396 c 256
 629 401 584 332 557 280 c 257
 524 280 l 257
 557 350 613 430 701 428 c 256
 769 426 798 366 779 306 c 256
 764 259 725 222 688 191 c 258
 491 34 l 257
 692 33 l 257
 682 3 l 257
 411 4 l 257
EndSplineSet
EndChar

StartChar: threequarters
Encoding: 190 190 152
Width: 771
VWidth: 0
Flags: HMW
LayerCount: 2
Fore
SplineSet
847 698 m 257
 891 697 l 257
 144 0 l 257
 100 0 l 257
 847 698 l 257
250 493 m 257
 257 513 l 257
 307 523 363 543 382 596 c 256
 396 634 379 672 337 675 c 256
 287 678 251 635 226 598 c 257
 195 599 l 257
 225 654 272 707 341 705 c 256
 401 703 433 650 414 595 c 256
 391 525 316 502 250 493 c 257
197 275 m 256
 123 275 100 326 108 391 c 257
 140 391 l 257
 136 345 145 308 200 306 c 256
 251 304 308 345 323 393 c 256
 342 452 296 473 247 483 c 257
 254 504 l 257
 320 495 379 465 355 388 c 256
 335 323 264 275 197 275 c 256
413 85 m 257
 446 112 l 257
 631 113 l 257
 638 113 l 257
 715 113 l 257
 706 85 l 257
 413 85 l 257
448 86 m 257
 412 87 l 257
 744 418 l 257
 758 419 l 257
 615 0 l 257
 582 0 l 257
 616 98 l 257
 617 102 l 257
 699 336 l 257
 448 86 l 257
EndSplineSet
EndChar

StartChar: uni2150
Encoding: 8528 8528 153
Width: 792
VWidth: 0
Flags: HMW
LayerCount: 2
Fore
SplineSet
737 698 m 257
 781 697 l 257
 34 0 l 257
 -10 0 l 257
 737 698 l 257
187 635 m 257
 197 668 l 257
 334 699 l 257
 187 275 l 257
 154 275 l 257
 284 657 l 257
 187 635 l 257
568 389 m 257
 577 419 l 257
 854 419 l 257
 512 0 l 257
 476 0 l 257
 791 388 l 257
 568 389 l 257
EndSplineSet
EndChar

StartChar: uni2151
Encoding: 8529 8529 154
Width: 737
VWidth: 0
Flags: HMW
LayerCount: 2
Fore
SplineSet
737 698 m 257
 781 697 l 257
 34 0 l 257
 -10 0 l 257
 737 698 l 257
187 635 m 257
 197 668 l 257
 334 699 l 257
 187 275 l 257
 154 275 l 257
 284 657 l 257
 187 635 l 257
721 286 m 256
 738 336 723 395 662 397 c 256
 600 399 539 341 520 286 c 256
 504 238 520 181 578 178 c 256
 639 175 702 231 721 286 c 256
497 4 m 257
 455 5 l 257
 648 187 l 257
 652 183 l 257
 625 168 596 152 564 153 c 256
 493 155 472 228 490 287 c 256
 513 360 588 428 666 427 c 256
 745 426 775 355 752 286 c 256
 741 252 718 222 694 196 c 257
 497 4 l 257
EndSplineSet
EndChar

StartChar: uni2152
Encoding: 8530 8530 155
Width: 1016
VWidth: 0
Flags: HMW
LayerCount: 2
Fore
SplineSet
737 698 m 257
 781 697 l 257
 34 0 l 257
 -10 0 l 257
 737 698 l 257
187 635 m 257
 197 668 l 257
 334 699 l 257
 187 275 l 257
 154 275 l 257
 284 657 l 257
 187 635 l 257
508 362 m 257
 518 395 l 257
 654 426 l 257
 507 2 l 257
 474 2 l 257
 605 384 l 257
 508 362 l 257
746 210 m 256
 728 158 696 29 785 26 c 256
 874 23 932 140 957 210 c 256
 975 262 1008 391 919 394 c 256
 830 397 771 280 746 210 c 256
712 210 m 256
 741 297 815 426 922 425 c 256
 1032 424 1014 281 991 210 c 256
 962 123 888 -6 781 -5 c 256
 671 -4 689 139 712 210 c 256
EndSplineSet
EndChar

StartChar: onethird
Encoding: 8531 8531 156
Width: 710
VWidth: 0
Flags: HMW
LayerCount: 2
Fore
SplineSet
737 698 m 257
 781 697 l 257
 34 0 l 257
 -10 0 l 257
 737 698 l 257
187 635 m 257
 197 668 l 257
 334 699 l 257
 187 275 l 257
 154 275 l 257
 284 657 l 257
 187 635 l 257
561 213 m 257
 569 233 l 257
 619 243 675 263 694 316 c 256
 708 354 691 392 649 395 c 256
 599 398 563 355 538 318 c 257
 507 319 l 257
 537 374 583 427 652 425 c 256
 712 423 745 370 726 315 c 256
 703 245 627 222 561 213 c 257
508 -5 m 256
 434 -5 412 46 420 111 c 257
 452 111 l 257
 448 65 457 28 512 26 c 256
 563 24 620 65 635 113 c 256
 654 172 607 193 558 203 c 257
 566 224 l 257
 632 215 690 185 666 108 c 256
 646 43 575 -5 508 -5 c 256
EndSplineSet
EndChar

StartChar: twothirds
Encoding: 8532 8532 157
Width: 829
VWidth: 0
Flags: HMW
LayerCount: 2
Fore
SplineSet
857 698 m 257
 901 697 l 257
 153 0 l 257
 109 0 l 257
 857 698 l 257
71 284 m 257
 323 490 l 258
 355 516 393 548 407 589 c 256
 421 630 405 673 357 676 c 256
 289 681 244 612 217 560 c 257
 184 560 l 257
 217 630 273 710 361 708 c 256
 429 707 458 646 439 586 c 256
 424 539 384 502 347 471 c 258
 151 314 l 257
 352 313 l 257
 342 283 l 257
 71 284 l 257
681 213 m 257
 688 233 l 257
 738 243 794 263 813 316 c 256
 827 354 810 392 768 395 c 256
 718 398 683 355 658 318 c 257
 626 319 l 257
 656 374 703 427 772 425 c 256
 832 423 864 370 845 315 c 256
 822 245 747 222 681 213 c 257
628 -5 m 256
 554 -5 532 46 540 111 c 257
 572 111 l 257
 568 65 577 28 632 26 c 256
 683 24 739 65 754 113 c 256
 773 172 727 193 678 203 c 257
 685 224 l 257
 751 215 810 185 786 108 c 256
 766 43 695 -5 628 -5 c 256
EndSplineSet
EndChar

StartChar: uni2155
Encoding: 8533 8533 158
Width: 700
VWidth: 0
Flags: HMW
LayerCount: 2
Fore
SplineSet
737 698 m 257
 781 697 l 257
 34 0 l 257
 -10 0 l 257
 737 698 l 257
187 635 m 257
 197 668 l 257
 334 699 l 257
 187 275 l 257
 154 275 l 257
 284 657 l 257
 187 635 l 257
654 135 m 256
 630 59 555 -7 473 -7 c 256
 414 -7 384 29 367 81 c 257
 398 99 l 257
 410 58 429 25 476 24 c 256
 540 23 601 78 620 136 c 256
 637 185 621 237 564 242 c 256
 518 246 474 219 437 197 c 257
 467 225 l 257
 496 251 540 273 580 272 c 256
 655 270 674 196 654 135 c 256
584 388 m 257
 490 233 l 257
 430 190 l 257
 566 417 l 257
 753 417 l 257
 744 389 l 257
 584 388 l 257
EndSplineSet
EndChar

StartChar: uni2156
Encoding: 8534 8534 159
Width: 819
VWidth: 0
Flags: HMW
LayerCount: 2
Fore
SplineSet
857 698 m 257
 901 697 l 257
 153 0 l 257
 109 0 l 257
 857 698 l 257
71 284 m 257
 323 490 l 258
 355 516 393 548 407 589 c 256
 421 630 405 673 357 676 c 256
 289 681 244 612 217 560 c 257
 184 560 l 257
 217 630 273 710 361 708 c 256
 429 707 458 646 439 586 c 256
 424 539 384 502 347 471 c 258
 151 314 l 257
 352 313 l 257
 342 283 l 257
 71 284 l 257
773 135 m 256
 749 59 674 -7 592 -7 c 256
 533 -7 504 29 487 81 c 257
 518 99 l 257
 530 58 549 25 596 24 c 256
 660 23 720 78 739 136 c 256
 756 185 741 237 684 242 c 256
 638 246 594 219 557 197 c 257
 586 225 l 257
 615 251 660 273 700 272 c 256
 775 270 793 196 773 135 c 256
703 388 m 257
 610 233 l 257
 549 190 l 257
 685 417 l 257
 872 417 l 257
 863 389 l 257
 703 388 l 257
EndSplineSet
EndChar

StartChar: uni2157
Encoding: 8535 8535 160
Width: 781
VWidth: 0
Flags: HMW
LayerCount: 2
Fore
SplineSet
819 698 m 257
 863 697 l 257
 116 0 l 257
 72 0 l 257
 819 698 l 257
250 493 m 257
 257 513 l 257
 307 523 363 543 382 596 c 256
 396 634 379 672 337 675 c 256
 287 678 251 635 226 598 c 257
 195 599 l 257
 225 654 272 707 341 705 c 256
 401 703 433 650 414 595 c 256
 391 525 316 502 250 493 c 257
197 275 m 256
 123 275 100 326 108 391 c 257
 140 391 l 257
 136 345 145 308 200 306 c 256
 251 304 308 345 323 393 c 256
 342 452 296 473 247 483 c 257
 254 504 l 257
 320 495 379 465 355 388 c 256
 335 323 264 275 197 275 c 256
736 135 m 256
 712 59 637 -7 555 -7 c 256
 496 -7 466 29 449 81 c 257
 480 99 l 257
 492 58 511 25 558 24 c 256
 622 23 683 78 702 136 c 256
 719 185 703 237 646 242 c 256
 600 246 556 219 519 197 c 257
 549 225 l 257
 578 251 622 273 662 272 c 256
 737 270 756 196 736 135 c 256
665 388 m 257
 572 233 l 257
 512 190 l 257
 647 417 l 257
 835 417 l 257
 825 389 l 257
 665 388 l 257
EndSplineSet
EndChar

StartChar: uni2158
Encoding: 8536 8536 161
Width: 814
VWidth: 0
Flags: HMW
LayerCount: 2
Fore
SplineSet
852 698 m 257
 896 697 l 257
 149 0 l 257
 105 0 l 257
 852 698 l 257
100 365 m 257
 133 392 l 257
 318 393 l 257
 325 393 l 257
 403 393 l 257
 393 365 l 257
 100 365 l 257
135 366 m 257
 99 367 l 257
 431 698 l 257
 446 699 l 257
 302 281 l 257
 269 281 l 257
 303 378 l 257
 304 382 l 257
 386 616 l 257
 135 366 l 257
769 135 m 256
 745 59 670 -7 588 -7 c 256
 529 -7 499 29 482 81 c 257
 513 99 l 257
 525 58 544 25 591 24 c 256
 655 23 716 78 735 136 c 256
 752 185 736 237 679 242 c 256
 633 246 589 219 552 197 c 257
 581 225 l 257
 610 251 655 273 695 272 c 256
 770 270 789 196 769 135 c 256
698 388 m 257
 605 233 l 257
 545 190 l 257
 680 417 l 257
 867 417 l 257
 858 389 l 257
 698 388 l 257
EndSplineSet
EndChar

StartChar: uni2159
Encoding: 8537 8537 162
Width: 690
VWidth: 0
Flags: HMW
LayerCount: 2
Fore
SplineSet
737 698 m 257
 781 697 l 257
 34 0 l 257
 -10 0 l 257
 737 698 l 257
187 635 m 257
 197 668 l 257
 334 699 l 257
 187 275 l 257
 154 275 l 257
 284 657 l 257
 187 635 l 257
421 134 m 256
 404 84 419 25 480 23 c 256
 542 21 603 79 622 134 c 256
 638 182 623 239 565 242 c 256
 504 245 440 189 421 134 c 256
645 416 m 257
 688 415 l 257
 495 233 l 257
 491 237 l 257
 518 252 546 268 578 267 c 256
 649 265 671 192 653 133 c 256
 630 60 556 -8 477 -7 c 256
 398 -6 367 65 390 134 c 256
 401 168 425 198 449 224 c 257
 645 416 l 257
EndSplineSet
EndChar

StartChar: uni215A
Encoding: 8538 8538 163
Width: 805
VWidth: 0
Flags: HMW
LayerCount: 2
Fore
SplineSet
852 698 m 257
 896 697 l 257
 149 0 l 257
 105 0 l 257
 852 698 l 257
384 415 m 256
 360 339 285 273 203 273 c 256
 144 273 115 309 98 361 c 257
 129 379 l 257
 141 338 160 305 207 304 c 256
 271 303 331 358 350 416 c 256
 367 465 352 517 295 522 c 256
 249 526 205 499 168 477 c 257
 197 505 l 257
 226 531 271 553 311 552 c 256
 386 550 404 476 384 415 c 256
314 668 m 257
 221 513 l 257
 160 470 l 257
 296 697 l 257
 483 697 l 257
 474 669 l 257
 314 668 l 257
536 134 m 256
 519 84 534 25 595 23 c 256
 657 21 718 79 737 134 c 256
 753 182 738 239 680 242 c 256
 619 245 555 189 536 134 c 256
760 416 m 257
 803 415 l 257
 610 233 l 257
 606 237 l 257
 633 252 661 268 693 267 c 256
 764 265 786 192 768 133 c 256
 745 60 671 -8 592 -7 c 256
 513 -6 482 65 505 134 c 256
 516 168 539 198 563 224 c 257
 760 416 l 257
EndSplineSet
EndChar

StartChar: oneeighth
Encoding: 8539 8539 164
Width: 715
VWidth: 0
Flags: HMW
LayerCount: 2
Fore
SplineSet
737 698 m 257
 781 697 l 257
 34 0 l 257
 -10 0 l 257
 737 698 l 257
187 635 m 257
 197 668 l 257
 334 699 l 257
 187 275 l 257
 154 275 l 257
 284 657 l 257
 187 635 l 257
510 322 m 256
 528 377 590 426 648 425 c 256
 705 424 737 373 721 320 c 256
 704 264 641 216 582 217 c 256
 524 218 493 268 510 322 c 256
539 318 m 256
 527 283 543 242 583 239 c 256
 624 236 676 280 689 318 c 256
 701 354 685 393 644 396 c 256
 602 399 552 357 539 318 c 256
425 114 m 256
 445 176 515 230 581 229 c 256
 646 229 681 173 663 112 c 256
 644 49 573 -6 506 -5 c 256
 440 -4 406 53 425 114 c 256
457 116 m 256
 441 73 459 26 510 24 c 256
 562 22 618 68 634 116 c 256
 648 158 628 205 580 207 c 256
 530 209 473 161 457 116 c 256
EndSplineSet
EndChar

StartChar: threeeighths
Encoding: 8540 8540 165
Width: 796
VWidth: 0
Flags: HMW
LayerCount: 2
Fore
SplineSet
819 698 m 257
 863 697 l 257
 116 0 l 257
 72 0 l 257
 819 698 l 257
250 493 m 257
 257 513 l 257
 307 523 363 543 382 596 c 256
 396 634 379 672 337 675 c 256
 287 678 251 635 226 598 c 257
 195 599 l 257
 225 654 272 707 341 705 c 256
 401 703 433 650 414 595 c 256
 391 525 316 502 250 493 c 257
197 275 m 256
 123 275 100 326 108 391 c 257
 140 391 l 257
 136 345 145 308 200 306 c 256
 251 304 308 345 323 393 c 256
 342 452 296 473 247 483 c 257
 254 504 l 257
 320 495 379 465 355 388 c 256
 335 323 264 275 197 275 c 256
591 322 m 256
 609 377 672 426 730 425 c 256
 787 424 819 373 803 320 c 256
 786 264 723 216 664 217 c 256
 606 218 574 268 591 322 c 256
621 318 m 256
 609 283 625 242 665 239 c 256
 706 236 758 280 771 318 c 256
 783 354 767 393 726 396 c 256
 684 399 634 357 621 318 c 256
507 114 m 256
 527 176 597 230 663 229 c 256
 728 229 763 173 745 112 c 256
 726 49 655 -6 588 -5 c 256
 522 -4 488 53 507 114 c 256
539 116 m 256
 523 73 541 26 592 24 c 256
 644 22 699 68 715 116 c 256
 729 158 710 205 662 207 c 256
 612 209 555 161 539 116 c 256
EndSplineSet
EndChar

StartChar: fiveeighths
Encoding: 8541 8541 166
Width: 829
VWidth: 0
Flags: HMW
LayerCount: 2
Fore
SplineSet
852 698 m 257
 896 697 l 257
 149 0 l 257
 105 0 l 257
 852 698 l 257
384 415 m 256
 360 339 285 273 203 273 c 256
 144 273 115 309 98 361 c 257
 129 379 l 257
 141 338 160 305 207 304 c 256
 271 303 331 358 350 416 c 256
 367 465 352 517 295 522 c 256
 249 526 205 499 168 477 c 257
 197 505 l 257
 226 531 271 553 311 552 c 256
 386 550 404 476 384 415 c 256
314 668 m 257
 221 513 l 257
 160 470 l 257
 296 697 l 257
 483 697 l 257
 474 669 l 257
 314 668 l 257
624 322 m 256
 642 377 705 426 763 425 c 256
 820 424 852 373 836 320 c 256
 819 264 756 216 697 217 c 256
 639 218 607 268 624 322 c 256
654 318 m 256
 642 283 658 242 698 239 c 256
 739 236 791 280 804 318 c 256
 816 354 800 393 759 396 c 256
 717 399 667 357 654 318 c 256
540 114 m 256
 560 176 629 230 695 229 c 256
 760 229 796 173 778 112 c 256
 759 49 688 -6 621 -5 c 256
 555 -4 521 53 540 114 c 256
572 116 m 256
 556 73 574 26 625 24 c 256
 677 22 732 68 748 116 c 256
 762 158 743 205 695 207 c 256
 645 209 588 161 572 116 c 256
EndSplineSet
EndChar

StartChar: seveneighths
Encoding: 8542 8542 167
Width: 726
VWidth: 0
Flags: HMW
LayerCount: 2
Fore
SplineSet
748 698 m 257
 792 697 l 257
 45 0 l 257
 1 0 l 257
 748 698 l 257
204 669 m 257
 213 699 l 257
 490 699 l 257
 148 282 l 257
 113 282 l 257
 427 668 l 257
 204 669 l 257
521 322 m 256
 539 377 602 426 660 425 c 256
 717 424 748 373 732 320 c 256
 715 264 653 216 594 217 c 256
 536 218 504 268 521 322 c 256
550 318 m 256
 538 283 555 242 595 239 c 256
 636 236 688 280 701 318 c 256
 713 354 696 393 655 396 c 256
 613 399 563 357 550 318 c 256
437 114 m 256
 457 176 526 230 592 229 c 256
 657 229 692 173 674 112 c 256
 655 49 585 -6 518 -5 c 256
 452 -4 418 53 437 114 c 256
468 116 m 256
 452 73 470 26 521 24 c 256
 573 22 629 68 645 116 c 256
 659 158 640 205 592 207 c 256
 542 209 484 161 468 116 c 256
EndSplineSet
EndChar

StartChar: uni2074
Encoding: 8308 8308 168
Width: 357
VWidth: 0
Flags: HMW
LayerCount: 2
Fore
SplineSet
100 365 m 257
 133 392 l 257
 318 393 l 257
 325 393 l 257
 403 393 l 257
 393 365 l 257
 100 365 l 257
135 366 m 257
 99 367 l 257
 431 698 l 257
 446 699 l 257
 302 281 l 257
 269 281 l 257
 303 378 l 257
 304 382 l 257
 386 616 l 257
 135 366 l 257
EndSplineSet
EndChar

StartChar: uni2075
Encoding: 8309 8309 169
Width: 328
VWidth: 0
Flags: HMW
LayerCount: 2
Fore
SplineSet
384 415 m 256
 360 339 285 273 203 273 c 256
 144 273 115 309 98 361 c 257
 129 379 l 257
 141 338 160 305 207 304 c 256
 271 303 331 358 350 416 c 256
 367 465 352 517 295 522 c 256
 249 526 205 499 168 477 c 257
 197 505 l 257
 226 531 271 553 311 552 c 256
 386 550 404 476 384 415 c 256
314 668 m 257
 221 513 l 257
 160 470 l 257
 296 697 l 257
 483 697 l 257
 474 669 l 257
 314 668 l 257
EndSplineSet
EndChar

StartChar: uni2076
Encoding: 8310 8310 170
Width: 319
VWidth: 0
Flags: HMW
LayerCount: 2
Fore
SplineSet
152 414 m 256
 135 364 150 305 211 303 c 256
 273 301 334 359 353 414 c 256
 369 462 354 519 296 522 c 256
 235 525 171 469 152 414 c 256
376 696 m 257
 418 695 l 257
 225 513 l 257
 221 517 l 257
 248 532 277 548 309 547 c 256
 380 545 401 472 383 413 c 256
 360 340 286 272 207 273 c 256
 128 274 98 345 121 414 c 256
 132 448 155 478 179 504 c 257
 376 696 l 257
EndSplineSet
EndChar

StartChar: uni2077
Encoding: 8311 8311 171
Width: 332
VWidth: 0
Flags: HMW
LayerCount: 2
Fore
SplineSet
204 669 m 257
 213 699 l 257
 490 699 l 257
 148 282 l 257
 113 282 l 257
 427 668 l 257
 204 669 l 257
EndSplineSet
EndChar

StartChar: uni2078
Encoding: 8312 8312 172
Width: 294
VWidth: 0
Flags: HMW
LayerCount: 2
Fore
SplineSet
193 602 m 256
 211 657 274 706 332 705 c 256
 389 704 420 653 404 600 c 256
 387 544 325 496 266 497 c 256
 208 498 176 548 193 602 c 256
222 598 m 256
 210 563 227 522 267 519 c 256
 308 516 360 560 373 598 c 256
 385 634 368 673 327 676 c 256
 285 679 235 637 222 598 c 256
109 394 m 256
 129 456 198 510 264 509 c 256
 329 509 365 453 347 392 c 256
 328 329 257 274 190 275 c 256
 124 276 90 333 109 394 c 256
141 396 m 256
 125 353 142 306 193 304 c 256
 245 302 301 348 317 396 c 256
 331 438 312 485 264 487 c 256
 214 489 157 441 141 396 c 256
EndSplineSet
EndChar

StartChar: uni2079
Encoding: 8313 8313 173
Width: 319
VWidth: 0
Flags: HMW
LayerCount: 2
Fore
SplineSet
405 566 m 256
 422 616 407 675 346 677 c 256
 284 679 223 621 204 566 c 256
 188 518 203 461 261 458 c 256
 322 455 386 511 405 566 c 256
181 284 m 257
 139 285 l 257
 331 467 l 257
 335 463 l 257
 308 448 280 432 248 433 c 256
 177 435 155 508 173 567 c 256
 196 640 271 708 349 707 c 256
 428 706 459 635 436 566 c 256
 425 532 401 502 377 476 c 257
 181 284 l 257
EndSplineSet
EndChar

StartChar: uni2070
Encoding: 8304 8304 174
Width: 331
VWidth: 0
Flags: HMW
LayerCount: 2
Fore
SplineSet
175 490 m 256
 157 438 125 309 214 306 c 256
 303 303 362 420 387 490 c 256
 405 542 437 671 348 674 c 256
 259 677 200 560 175 490 c 256
141 490 m 256
 170 577 244 706 351 705 c 256
 461 704 443 561 420 490 c 256
 391 403 318 274 211 275 c 256
 101 276 118 419 141 490 c 256
EndSplineSet
EndChar

StartChar: uni2080
Encoding: 8320 8320 175
Width: 335
VWidth: 0
Flags: HMW
LayerCount: 2
Fore
SplineSet
79 210 m 256
 61 158 29 29 118 26 c 256
 207 23 266 140 291 210 c 256
 309 262 342 391 253 394 c 256
 164 397 104 280 79 210 c 256
46 210 m 256
 75 297 148 426 255 425 c 256
 365 424 347 281 324 210 c 256
 295 123 222 -6 115 -5 c 256
 5 -4 23 139 46 210 c 256
EndSplineSet
EndChar

StartChar: uni2084
Encoding: 8324 8324 176
Width: 357
VWidth: 0
Flags: HMW
LayerCount: 2
Fore
SplineSet
4 85 m 257
 37 112 l 257
 223 113 l 257
 230 113 l 257
 307 113 l 257
 297 85 l 257
 4 85 l 257
39 86 m 257
 4 87 l 257
 336 418 l 257
 351 419 l 257
 206 0 l 257
 174 0 l 257
 207 98 l 257
 209 102 l 257
 291 336 l 257
 39 86 l 257
EndSplineSet
EndChar

StartChar: uni2085
Encoding: 8325 8325 177
Width: 328
VWidth: 0
Flags: HMW
LayerCount: 2
Fore
SplineSet
289 135 m 256
 265 59 190 -7 108 -7 c 256
 49 -7 19 29 2 81 c 257
 33 99 l 257
 45 58 64 25 111 24 c 256
 175 23 236 78 255 136 c 256
 272 185 256 237 199 242 c 256
 153 246 109 219 72 197 c 257
 102 225 l 257
 131 251 175 273 215 272 c 256
 290 270 309 196 289 135 c 256
218 388 m 257
 125 233 l 257
 65 190 l 257
 200 417 l 257
 388 417 l 257
 378 389 l 257
 218 388 l 257
EndSplineSet
EndChar

StartChar: uni2086
Encoding: 8326 8326 178
Width: 319
VWidth: 0
Flags: HMW
LayerCount: 2
Fore
SplineSet
56 134 m 256
 39 84 53 25 114 23 c 256
 176 21 237 79 256 134 c 256
 272 182 257 239 199 242 c 256
 138 245 75 189 56 134 c 256
280 416 m 257
 323 415 l 257
 129 233 l 257
 125 237 l 257
 152 252 180 268 212 267 c 256
 283 265 305 192 287 133 c 256
 264 60 190 -8 111 -7 c 256
 32 -6 2 65 25 134 c 256
 36 168 59 198 83 224 c 257
 280 416 l 257
EndSplineSet
EndChar

StartChar: uni2087
Encoding: 8327 8327 179
Width: 332
VWidth: 0
Flags: HMW
LayerCount: 2
Fore
SplineSet
108 389 m 257
 118 419 l 257
 395 419 l 257
 52 0 l 257
 17 0 l 257
 331 388 l 257
 108 389 l 257
EndSplineSet
EndChar

StartChar: uni2088
Encoding: 8328 8328 180
Width: 294
VWidth: 0
Flags: HMW
LayerCount: 2
Fore
SplineSet
97 322 m 256
 115 377 178 426 236 425 c 256
 293 424 325 373 309 320 c 256
 292 264 229 216 170 217 c 256
 112 218 80 268 97 322 c 256
127 318 m 256
 115 283 131 242 171 239 c 256
 212 236 264 280 277 318 c 256
 289 354 273 393 232 396 c 256
 190 399 140 357 127 318 c 256
13 114 m 256
 33 176 103 230 169 229 c 256
 234 229 269 173 251 112 c 256
 232 49 161 -6 94 -5 c 256
 28 -4 -6 53 13 114 c 256
45 116 m 256
 29 73 47 26 98 24 c 256
 150 22 206 68 222 116 c 256
 236 158 216 205 168 207 c 256
 118 209 61 161 45 116 c 256
EndSplineSet
EndChar

StartChar: uni2089
Encoding: 8329 8329 181
Width: 319
VWidth: 0
Flags: HMW
LayerCount: 2
Fore
SplineSet
299 286 m 256
 316 336 302 395 241 397 c 256
 179 399 117 341 98 286 c 256
 82 238 98 181 156 178 c 256
 217 175 280 231 299 286 c 256
76 4 m 257
 33 5 l 257
 226 187 l 257
 230 183 l 257
 203 168 175 152 143 153 c 256
 72 155 50 228 68 287 c 256
 91 360 166 428 244 427 c 256
 323 426 353 355 330 286 c 256
 319 252 297 222 273 196 c 257
 76 4 l 257
EndSplineSet
EndChar

StartChar: uni2081
Encoding: 8321 8321 182
Width: 285
VWidth: 0
Flags: HMW
LayerCount: 2
Fore
SplineSet
156 362 m 257
 166 395 l 257
 303 426 l 257
 155 2 l 257
 123 2 l 257
 253 384 l 257
 156 362 l 257
EndSplineSet
EndChar

StartChar: uni2082
Encoding: 8322 8322 183
Width: 319
VWidth: 0
Flags: HMW
LayerCount: 2
Fore
SplineSet
-28 4 m 257
 224 210 l 258
 256 236 294 268 308 309 c 256
 322 350 306 394 258 397 c 256
 190 402 145 332 118 280 c 257
 85 280 l 257
 118 350 173 430 261 428 c 256
 329 427 358 366 339 306 c 256
 324 259 285 222 248 191 c 258
 51 34 l 257
 252 33 l 257
 242 3 l 257
 -28 4 l 257
EndSplineSet
EndChar

StartChar: uni2083
Encoding: 8323 8323 184
Width: 295
VWidth: 0
Flags: HMW
LayerCount: 2
Fore
SplineSet
149 213 m 257
 156 233 l 257
 206 243 263 263 282 316 c 256
 296 354 279 392 237 395 c 256
 187 398 151 355 126 318 c 257
 95 319 l 257
 125 374 171 427 240 425 c 256
 300 423 333 370 314 315 c 256
 291 245 215 222 149 213 c 257
96 -5 m 256
 22 -5 0 46 8 111 c 257
 40 111 l 257
 36 65 45 28 100 26 c 256
 151 24 208 65 223 113 c 256
 242 172 195 193 146 203 c 257
 154 224 l 257
 220 215 278 185 254 108 c 256
 234 43 163 -5 96 -5 c 256
EndSplineSet
EndChar

StartChar: Agrave
Encoding: 192 192 185
Width: 597
VWidth: 0
Flags: HMW
LayerCount: 2
Fore
SplineSet
157 236 m 257
 190 286 l 257
 497 287 l 257
 497 235 l 257
 157 236 l 257
454 600 m 257
 211 269 l 257
 202 257 l 257
 13 0 l 257
 -50 0 l 257
 493 729 l 257
 535 0 l 257
 477 0 l 257
 467 253 l 257
 467 266 l 257
 454 600 l 257
440 941 m 257
 494 967 l 257
 591 806 l 257
 559 787 l 257
 440 941 l 257
EndSplineSet
EndChar

StartChar: Aacute
Encoding: 193 193 186
Width: 597
VWidth: 0
Flags: HMW
LayerCount: 2
Fore
SplineSet
157 236 m 257
 190 286 l 257
 497 287 l 257
 497 235 l 257
 157 236 l 257
454 600 m 257
 211 269 l 257
 202 257 l 257
 13 0 l 257
 -50 0 l 257
 493 729 l 257
 535 0 l 257
 477 0 l 257
 467 253 l 257
 467 266 l 257
 454 600 l 257
692 936 m 257
 473 789 l 257
 450 810 l 257
 652 966 l 257
 692 936 l 257
EndSplineSet
EndChar

StartChar: Acircumflex
Encoding: 194 194 187
Width: 597
VWidth: 0
Flags: HMW
LayerCount: 2
Fore
SplineSet
157 236 m 257
 190 286 l 257
 497 287 l 257
 497 235 l 257
 157 236 l 257
454 600 m 257
 211 269 l 257
 202 257 l 257
 13 0 l 257
 -50 0 l 257
 493 729 l 257
 535 0 l 257
 477 0 l 257
 467 253 l 257
 467 266 l 257
 454 600 l 257
547 873 m 257
 388 764 l 257
 362 792 l 257
 560 929 l 257
 666 789 l 257
 628 764 l 257
 547 873 l 257
EndSplineSet
EndChar

StartChar: Atilde
Encoding: 195 195 188
Width: 597
VWidth: 0
Flags: HMW
LayerCount: 2
Fore
SplineSet
157 236 m 257
 190 286 l 257
 497 287 l 257
 497 235 l 257
 157 236 l 257
454 600 m 257
 211 269 l 257
 202 257 l 257
 13 0 l 257
 -50 0 l 257
 493 729 l 257
 535 0 l 257
 477 0 l 257
 467 253 l 257
 467 266 l 257
 454 600 l 257
378 808 m 257
 403 840 437 879 483 877 c 256
 526 876 544 829 583 832 c 256
 611 834 635 860 654 878 c 257
 678 850 l 257
 652 823 615 786 573 788 c 256
 531 790 514 835 475 833 c 256
 444 831 424 806 407 784 c 257
 378 808 l 257
EndSplineSet
EndChar

StartChar: Adieresis
Encoding: 196 196 189
Width: 597
VWidth: 0
Flags: HMW
LayerCount: 2
Fore
SplineSet
157 236 m 257
 190 286 l 257
 497 287 l 257
 497 235 l 257
 157 236 l 257
454 600 m 257
 211 269 l 257
 202 257 l 257
 13 0 l 257
 -50 0 l 257
 493 729 l 257
 535 0 l 257
 477 0 l 257
 467 253 l 257
 467 266 l 257
 454 600 l 257
588 834 m 256
 592 850 618 871 635 869 c 256
 653 867 663 849 659 831 c 256
 655 815 629 794 612 796 c 256
 594 798 584 816 588 834 c 256
399 834 m 256
 403 850 429 871 446 869 c 256
 464 867 475 849 471 831 c 256
 467 815 441 794 424 796 c 256
 406 798 395 816 399 834 c 256
EndSplineSet
EndChar

StartChar: Aring
Encoding: 197 197 190
Width: 597
VWidth: 0
Flags: HMW
LayerCount: 2
Fore
SplineSet
157 236 m 257
 190 286 l 257
 497 287 l 257
 497 235 l 257
 157 236 l 257
454 600 m 257
 211 269 l 257
 202 257 l 257
 13 0 l 257
 -50 0 l 257
 493 729 l 257
 535 0 l 257
 477 0 l 257
 467 253 l 257
 467 266 l 257
 454 600 l 257
421 804 m 256
 437 854 497 902 551 901 c 256
 605 900 631 849 616 800 c 256
 600 750 541 702 487 703 c 256
 433 704 406 755 421 804 c 256
455 801 m 256
 446 772 460 738 493 735 c 256
 527 732 573 772 583 803 c 256
 592 832 577 866 544 869 c 256
 510 872 465 832 455 801 c 256
EndSplineSet
EndChar

StartChar: AE
Encoding: 198 198 191
Width: 879
VWidth: 0
Flags: HMW
LayerCount: 2
Fore
SplineSet
228 239 m 257
 245 290 l 257
 526 290 l 257
 508 238 l 257
 228 239 l 257
615 700 m 257
 650 672 l 257
 11 0 l 257
 -50 0 l 257
 615 700 l 257
436 0 m 257
 454 52 l 257
 775 52 l 257
 757 0 l 257
 436 0 l 257
667 648 m 257
 615 700 l 257
 996 700 l 257
 978 648 l 257
 667 648 l 257
558 358 m 257
 576 410 l 257
 878 410 l 257
 861 358 l 257
 558 358 l 257
645 699 m 257
 701 700 l 257
 459 0 l 257
 406 0 l 257
 645 699 l 257
EndSplineSet
EndChar

StartChar: Ccedilla
Encoding: 199 199 192
Width: 644
VWidth: 0
Flags: HMW
LayerCount: 2
Fore
SplineSet
163 350 m 256
 116 216 155 51 321 48 c 256
 413 46 496 90 569 141 c 257
 546 68 l 257
 474 22 396 -10 310 -9 c 256
 113 -7 50 185 105 350 c 256
 166 535 344 707 547 709 c 256
 623 710 684 685 737 631 c 257
 713 558 l 257
 672 622 612 653 536 653 c 256
 365 652 217 503 163 350 c 256
311 33 m 257
 353 33 l 257
 260 -62 l 257
 270 -58 282 -52 293 -53 c 256
 331 -59 350 -92 340 -129 c 256
 326 -181 262 -220 210 -220 c 256
 177 -220 157 -203 135 -181 c 257
 163 -157 l 257
 178 -171 193 -184 216 -184 c 256
 248 -184 294 -158 303 -126 c 256
 310 -101 294 -82 270 -80 c 256
 246 -77 219 -90 197 -99 c 257
 311 33 l 257
EndSplineSet
EndChar

StartChar: Egrave
Encoding: 200 200 193
Width: 501
VWidth: 0
Flags: HMW
LayerCount: 2
Fore
SplineSet
52 0 m 257
 69 52 l 257
 398 52 l 257
 381 0 l 257
 52 0 l 257
274 649 m 257
 291 700 l 257
 619 700 l 257
 602 648 l 257
 274 649 l 257
174 358 m 257
 192 410 l 257
 501 410 l 257
 484 358 l 257
 174 358 l 257
262 699 m 257
 318 700 l 257
 77 0 l 257
 25 0 l 257
 262 699 l 257
383 923 m 257
 436 949 l 257
 534 788 l 257
 503 770 l 257
 383 923 l 257
EndSplineSet
EndChar

StartChar: Eacute
Encoding: 201 201 194
Width: 501
VWidth: 0
Flags: HMW
LayerCount: 2
Fore
SplineSet
52 0 m 257
 69 52 l 257
 398 52 l 257
 381 0 l 257
 52 0 l 257
274 649 m 257
 291 700 l 257
 619 700 l 257
 602 648 l 257
 274 649 l 257
174 358 m 257
 192 410 l 257
 501 410 l 257
 484 358 l 257
 174 358 l 257
262 699 m 257
 318 700 l 257
 77 0 l 257
 25 0 l 257
 262 699 l 257
650 918 m 257
 431 771 l 257
 407 792 l 257
 611 948 l 257
 650 918 l 257
EndSplineSet
EndChar

StartChar: Ecircumflex
Encoding: 202 202 195
Width: 501
VWidth: 0
Flags: HMW
LayerCount: 2
Fore
SplineSet
52 0 m 257
 69 52 l 257
 398 52 l 257
 381 0 l 257
 52 0 l 257
274 649 m 257
 291 700 l 257
 619 700 l 257
 602 648 l 257
 274 649 l 257
174 358 m 257
 192 410 l 257
 501 410 l 257
 484 358 l 257
 174 358 l 257
262 699 m 257
 318 700 l 257
 77 0 l 257
 25 0 l 257
 262 699 l 257
511 879 m 257
 352 771 l 257
 327 799 l 257
 524 936 l 257
 631 795 l 257
 593 770 l 257
 511 879 l 257
EndSplineSet
EndChar

StartChar: Edieresis
Encoding: 203 203 196
Width: 501
VWidth: 0
Flags: HMW
LayerCount: 2
Fore
SplineSet
52 0 m 257
 69 52 l 257
 398 52 l 257
 381 0 l 257
 52 0 l 257
274 649 m 257
 291 700 l 257
 619 700 l 257
 602 648 l 257
 274 649 l 257
174 358 m 257
 192 410 l 257
 501 410 l 257
 484 358 l 257
 174 358 l 257
262 699 m 257
 318 700 l 257
 77 0 l 257
 25 0 l 257
 262 699 l 257
548 828 m 256
 552 844 578 865 595 863 c 256
 613 861 624 843 620 825 c 256
 616 809 590 788 573 790 c 256
 555 792 544 810 548 828 c 256
359 828 m 256
 363 844 389 865 406 863 c 256
 424 861 436 843 432 825 c 256
 428 809 402 788 385 790 c 256
 367 792 355 810 359 828 c 256
EndSplineSet
EndChar

StartChar: Igrave
Encoding: 204 204 197
Width: 205
VWidth: 0
Flags: HMW
LayerCount: 2
Fore
SplineSet
261 699 m 257
 316 700 l 257
 74 0 l 257
 23 0 l 257
 261 699 l 257
230 923 m 257
 284 949 l 257
 381 788 l 257
 349 770 l 257
 230 923 l 257
EndSplineSet
EndChar

StartChar: Iacute
Encoding: 205 205 198
Width: 205
VWidth: 0
Flags: HMW
LayerCount: 2
Fore
SplineSet
261 699 m 257
 316 700 l 257
 74 0 l 257
 23 0 l 257
 261 699 l 257
496 918 m 257
 278 771 l 257
 255 792 l 257
 458 948 l 257
 496 918 l 257
EndSplineSet
EndChar

StartChar: Icircumflex
Encoding: 206 206 199
Width: 205
VWidth: 0
Flags: HMW
LayerCount: 2
Fore
SplineSet
261 699 m 257
 316 700 l 257
 74 0 l 257
 23 0 l 257
 261 699 l 257
353 879 m 257
 193 771 l 257
 168 799 l 257
 365 936 l 257
 472 795 l 257
 434 770 l 257
 353 879 l 257
EndSplineSet
EndChar

StartChar: Idieresis
Encoding: 207 207 200
Width: 205
VWidth: 0
Flags: HMW
LayerCount: 2
Fore
SplineSet
261 699 m 257
 316 700 l 257
 74 0 l 257
 23 0 l 257
 261 699 l 257
374 816 m 256
 378 831 404 853 421 851 c 256
 439 849 450 831 446 813 c 256
 442 797 415 776 398 778 c 256
 379 780 370 799 374 816 c 256
208 816 m 256
 212 831 238 853 255 851 c 256
 273 849 284 831 280 813 c 256
 276 797 250 776 233 778 c 256
 214 780 204 799 208 816 c 256
EndSplineSet
EndChar

StartChar: Ntilde
Encoding: 209 209 201
Width: 687
VWidth: 0
Flags: HMW
LayerCount: 2
Fore
SplineSet
749 700 m 257
 803 700 l 257
 553 -26 l 257
 264 584 l 257
 62 0 l 257
 7 0 l 257
 257 726 l 257
 547 114 l 257
 749 700 l 257
408 780 m 257
 433 812 467 851 513 849 c 256
 552 848 575 801 614 804 c 256
 642 806 665 832 684 850 c 257
 708 822 l 257
 682 795 645 758 603 760 c 256
 565 762 544 806 505 805 c 256
 474 804 454 778 437 756 c 257
 408 780 l 257
EndSplineSet
EndChar

StartChar: Eth
Encoding: 208 208 202
Width: 639
VWidth: 0
Flags: HMW
LayerCount: 2
Fore
SplineSet
61 325 m 257
 78 373 l 257
 362 373 l 257
 346 324 l 257
 61 325 l 257
262 699 m 257
 318 700 l 257
 77 0 l 257
 25 0 l 257
 262 699 l 257
208 0 m 256
 52 0 l 257
 71 55 l 257
 219 55 l 256
 392 61 538 190 594 350 c 256
 645 493 594 638 427 645 c 256
 272 645 l 257
 291 700 l 257
 438 700 l 256
 635 693 705 522 648 350 c 256
 586 161 412 6 208 0 c 256
EndSplineSet
EndChar

StartChar: Ograve
Encoding: 210 210 203
Width: 737
VWidth: 0
Flags: HMW
LayerCount: 2
Fore
SplineSet
163 350 m 256
 115 213 157 49 326 47 c 256
 499 45 651 196 705 350 c 256
 753 487 711 651 542 653 c 256
 369 655 217 504 163 350 c 256
105 350 m 256
 166 536 348 710 552 709 c 256
 751 708 818 517 763 350 c 256
 702 164 520 -10 316 -9 c 256
 117 -8 50 183 105 350 c 256
509 923 m 257
 563 949 l 257
 661 788 l 257
 628 770 l 257
 509 923 l 257
EndSplineSet
EndChar

StartChar: Oacute
Encoding: 211 211 204
Width: 737
VWidth: 0
Flags: HMW
LayerCount: 2
Fore
SplineSet
163 350 m 256
 115 213 157 49 326 47 c 256
 499 45 651 196 705 350 c 256
 753 487 711 651 542 653 c 256
 369 655 217 504 163 350 c 256
105 350 m 256
 166 536 348 710 552 709 c 256
 751 708 818 517 763 350 c 256
 702 164 520 -10 316 -9 c 256
 117 -8 50 183 105 350 c 256
749 918 m 257
 532 771 l 257
 507 792 l 257
 709 948 l 257
 749 918 l 257
EndSplineSet
EndChar

StartChar: Ocircumflex
Encoding: 212 212 205
Width: 737
VWidth: 0
Flags: HMW
LayerCount: 2
Fore
SplineSet
163 350 m 256
 115 213 157 49 326 47 c 256
 499 45 651 196 705 350 c 256
 753 487 711 651 542 653 c 256
 369 655 217 504 163 350 c 256
105 350 m 256
 166 536 348 710 552 709 c 256
 751 708 818 517 763 350 c 256
 702 164 520 -10 316 -9 c 256
 117 -8 50 183 105 350 c 256
618 879 m 257
 459 771 l 257
 434 799 l 257
 632 936 l 257
 738 795 l 257
 700 770 l 257
 618 879 l 257
EndSplineSet
EndChar

StartChar: Otilde
Encoding: 213 213 206
Width: 737
VWidth: 0
Flags: HMW
LayerCount: 2
Fore
SplineSet
163 350 m 256
 115 213 157 49 326 47 c 256
 499 45 651 196 705 350 c 256
 753 487 711 651 542 653 c 256
 369 655 217 504 163 350 c 256
105 350 m 256
 166 536 348 710 552 709 c 256
 751 708 818 517 763 350 c 256
 702 164 520 -10 316 -9 c 256
 117 -8 50 183 105 350 c 256
446 802 m 257
 448 836 518 872 550 871 c 256
 589 870 611 823 651 826 c 256
 679 828 703 854 722 872 c 257
 745 844 l 257
 719 817 683 780 641 782 c 256
 603 784 582 828 543 827 c 256
 511 826 491 800 474 778 c 257
 446 802 l 257
EndSplineSet
EndChar

StartChar: Odieresis
Encoding: 214 214 207
Width: 737
VWidth: 0
Flags: HMW
LayerCount: 2
Fore
SplineSet
163 350 m 256
 115 213 157 49 326 47 c 256
 499 45 651 196 705 350 c 256
 753 487 711 651 542 653 c 256
 369 655 217 504 163 350 c 256
105 350 m 256
 166 536 348 710 552 709 c 256
 751 708 818 517 763 350 c 256
 702 164 520 -10 316 -9 c 256
 117 -8 50 183 105 350 c 256
656 820 m 256
 660 836 686 857 703 855 c 256
 721 853 732 835 728 817 c 256
 724 801 698 780 681 782 c 256
 663 784 652 802 656 820 c 256
460 820 m 256
 464 836 490 857 507 855 c 256
 525 853 536 835 532 817 c 256
 528 801 502 780 485 782 c 256
 467 784 456 802 460 820 c 256
EndSplineSet
EndChar

StartChar: Ugrave
Encoding: 217 217 208
Width: 569
VWidth: 0
Flags: HMW
LayerCount: 2
Fore
SplineSet
259 700 m 257
 313 700 l 257
 149 226 l 258
 123 143 135 45 242 43 c 256
 350 41 429 133 465 226 c 258
 629 700 l 257
 683 700 l 257
 521 226 l 258
 477 104 371 -9 232 -9 c 256
 96 -9 63 113 97 226 c 257
 259 700 l 257
420 923 m 257
 473 949 l 257
 571 788 l 257
 539 770 l 257
 420 923 l 257
EndSplineSet
EndChar

StartChar: Uacute
Encoding: 218 218 209
Width: 569
VWidth: 0
Flags: HMW
LayerCount: 2
Fore
SplineSet
259 700 m 257
 313 700 l 257
 149 226 l 258
 123 143 135 45 242 43 c 256
 350 41 429 133 465 226 c 258
 629 700 l 257
 683 700 l 257
 521 226 l 258
 477 104 371 -9 232 -9 c 256
 96 -9 63 113 97 226 c 257
 259 700 l 257
672 918 m 257
 453 771 l 257
 429 792 l 257
 632 948 l 257
 672 918 l 257
EndSplineSet
EndChar

StartChar: Ucircumflex
Encoding: 219 219 210
Width: 569
VWidth: 0
Flags: HMW
LayerCount: 2
Fore
SplineSet
259 700 m 257
 313 700 l 257
 149 226 l 258
 123 143 135 45 242 43 c 256
 350 41 429 133 465 226 c 258
 629 700 l 257
 683 700 l 257
 521 226 l 258
 477 104 371 -9 232 -9 c 256
 96 -9 63 113 97 226 c 257
 259 700 l 257
535 879 m 257
 375 771 l 257
 351 799 l 257
 548 936 l 257
 655 795 l 257
 616 770 l 257
 535 879 l 257
EndSplineSet
EndChar

StartChar: Udieresis
Encoding: 220 220 211
Width: 569
VWidth: 0
Flags: HMW
LayerCount: 2
Fore
SplineSet
259 700 m 257
 313 700 l 257
 149 226 l 258
 123 143 135 45 242 43 c 256
 350 41 429 133 465 226 c 258
 629 700 l 257
 683 700 l 257
 521 226 l 258
 477 104 371 -9 232 -9 c 256
 96 -9 63 113 97 226 c 257
 259 700 l 257
561 808 m 256
 565 824 591 845 608 843 c 256
 626 841 637 823 633 805 c 256
 629 789 603 768 586 770 c 256
 568 772 557 790 561 808 c 256
380 808 m 256
 384 824 410 845 427 843 c 256
 445 841 456 823 452 805 c 256
 448 789 422 768 405 770 c 256
 387 772 376 790 380 808 c 256
EndSplineSet
EndChar

StartChar: Yacute
Encoding: 221 221 212
Width: 507
VWidth: 0
Flags: HMW
LayerCount: 2
Fore
SplineSet
647 918 m 257
 429 771 l 257
 406 792 l 257
 608 948 l 257
 647 918 l 257
623 699 m 257
 687 699 l 257
 322 285 l 257
 224 0 l 257
 169 0 l 257
 271 291 l 257
 194 700 l 257
 251 700 l 257
 311 340 l 257
 623 699 l 257
EndSplineSet
EndChar

StartChar: agrave
Encoding: 224 224 213
Width: 437
VWidth: 0
Flags: HMW
LayerCount: 2
Fore
SplineSet
73 135 m 256
 53 78 88 39 145 38 c 256
 233 36 294 100 334 171 c 257
 335 140 l 257
 294 58 222 -10 125 -9 c 256
 44 -8 -4 52 21 130 c 256
 51 225 154 284 250 283 c 256
 301 283 340 265 374 228 c 257
 363 198 l 257
 329 227 291 243 245 242 c 256
 176 241 97 204 73 135 c 256
167 370 m 257
 154 412 l 257
 208 443 267 470 330 469 c 256
 415 467 457 407 435 326 c 257
 323 0 l 257
 271 0 l 257
 386 326 l 257
 394 378 382 420 321 422 c 256
 266 424 213 396 167 370 c 257
267 692 m 257
 320 718 l 257
 418 557 l 257
 385 538 l 257
 267 692 l 257
EndSplineSet
Substitution2: "alt a" agrave.alt
EndChar

StartChar: aacute
Encoding: 225 225 214
Width: 437
VWidth: 0
Flags: HMW
LayerCount: 2
Fore
SplineSet
73 135 m 256
 53 78 88 39 145 38 c 256
 233 36 294 100 334 171 c 257
 335 140 l 257
 294 58 222 -10 125 -9 c 256
 44 -8 -4 52 21 130 c 256
 51 225 154 284 250 283 c 256
 301 283 340 265 374 228 c 257
 363 198 l 257
 329 227 291 243 245 242 c 256
 176 241 97 204 73 135 c 256
167 370 m 257
 154 412 l 257
 208 443 267 470 330 469 c 256
 415 467 457 407 435 326 c 257
 323 0 l 257
 271 0 l 257
 386 326 l 257
 394 378 382 420 321 422 c 256
 266 424 213 396 167 370 c 257
544 687 m 257
 327 540 l 257
 302 561 l 257
 505 717 l 257
 544 687 l 257
EndSplineSet
Substitution2: "alt a" aacute.alt
EndChar

StartChar: acircumflex
Encoding: 226 226 215
Width: 437
VWidth: 0
Flags: HMW
LayerCount: 2
Fore
SplineSet
73 135 m 256
 53 78 88 39 145 38 c 256
 233 36 294 100 334 171 c 257
 335 140 l 257
 294 58 222 -10 125 -9 c 256
 44 -8 -4 52 21 130 c 256
 51 225 154 284 250 283 c 256
 301 283 340 265 374 228 c 257
 363 198 l 257
 329 227 291 243 245 242 c 256
 176 241 97 204 73 135 c 256
167 370 m 257
 154 412 l 257
 208 443 267 470 330 469 c 256
 415 467 457 407 435 326 c 257
 323 0 l 257
 271 0 l 257
 386 326 l 257
 394 378 382 420 321 422 c 256
 266 424 213 396 167 370 c 257
398 644 m 257
 238 535 l 257
 213 563 l 257
 410 700 l 257
 517 560 l 257
 479 535 l 257
 398 644 l 257
EndSplineSet
Substitution2: "alt a" acircumflex.alt
EndChar

StartChar: atilde
Encoding: 227 227 216
Width: 437
VWidth: 0
Flags: HMW
LayerCount: 2
Fore
SplineSet
73 135 m 256
 53 78 88 39 145 38 c 256
 233 36 294 100 334 171 c 257
 335 140 l 257
 294 58 222 -10 125 -9 c 256
 44 -8 -4 52 21 130 c 256
 51 225 154 284 250 283 c 256
 301 283 340 265 374 228 c 257
 363 198 l 257
 329 227 291 243 245 242 c 256
 176 241 97 204 73 135 c 256
167 370 m 257
 154 412 l 257
 208 443 267 470 330 469 c 256
 415 467 457 407 435 326 c 257
 323 0 l 257
 271 0 l 257
 386 326 l 257
 394 378 382 420 321 422 c 256
 266 424 213 396 167 370 c 257
224 575 m 257
 249 607 282 646 328 644 c 256
 367 643 390 596 429 599 c 256
 457 601 481 627 500 645 c 257
 523 617 l 257
 497 590 460 553 418 555 c 256
 380 557 360 601 321 600 c 256
 289 599 269 573 252 551 c 257
 224 575 l 257
EndSplineSet
Substitution2: "alt a" atilde.alt
EndChar

StartChar: adieresis
Encoding: 228 228 217
Width: 437
VWidth: 0
Flags: HMW
LayerCount: 2
Fore
SplineSet
73 135 m 256
 53 78 88 39 145 38 c 256
 233 36 294 100 334 171 c 257
 335 140 l 257
 294 58 222 -10 125 -9 c 256
 44 -8 -4 52 21 130 c 256
 51 225 154 284 250 283 c 256
 301 283 340 265 374 228 c 257
 363 198 l 257
 329 227 291 243 245 242 c 256
 176 241 97 204 73 135 c 256
167 370 m 257
 154 412 l 257
 208 443 267 470 330 469 c 256
 415 467 457 407 435 326 c 257
 323 0 l 257
 271 0 l 257
 386 326 l 257
 394 378 382 420 321 422 c 256
 266 424 213 396 167 370 c 257
417 577 m 256
 421 593 447 614 464 612 c 256
 482 610 493 592 489 574 c 256
 485 558 458 537 441 539 c 256
 423 541 413 559 417 577 c 256
244 577 m 256
 248 593 274 614 291 612 c 256
 309 610 319 592 315 574 c 256
 311 558 285 537 268 539 c 256
 250 541 240 559 244 577 c 256
EndSplineSet
Substitution2: "alt a" adieresis.alt
EndChar

StartChar: aring
Encoding: 229 229 218
Width: 437
VWidth: 0
Flags: HMW
LayerCount: 2
Fore
SplineSet
73 135 m 256
 53 78 88 39 145 38 c 256
 233 36 294 100 334 171 c 257
 335 140 l 257
 294 58 222 -10 125 -9 c 256
 44 -8 -4 52 21 130 c 256
 51 225 154 284 250 283 c 256
 301 283 340 265 374 228 c 257
 363 198 l 257
 329 227 291 243 245 242 c 256
 176 241 97 204 73 135 c 256
167 370 m 257
 154 412 l 257
 208 443 267 470 330 469 c 256
 415 467 457 407 435 326 c 257
 323 0 l 257
 271 0 l 257
 386 326 l 257
 394 378 382 420 321 422 c 256
 266 424 213 396 167 370 c 257
291 632 m 256
 307 682 366 730 420 729 c 256
 474 728 501 677 486 628 c 256
 470 578 411 530 357 531 c 256
 303 532 276 583 291 632 c 256
325 629 m 256
 316 600 329 566 362 563 c 256
 396 560 443 600 453 631 c 256
 462 660 447 694 414 697 c 256
 380 700 335 660 325 629 c 256
EndSplineSet
Substitution2: "alt a" aring.alt
EndChar

StartChar: germandbls
Encoding: 223 223 219
Width: 520
VWidth: 0
Flags: HMW
LayerCount: 2
Fore
SplineSet
206 39 m 257
 316 55 416 123 454 231 c 256
 492 340 421 406 319 420 c 257
 330 454 l 257
 458 443 547 358 503 224 c 256
 458 87 329 4 190 -9 c 257
 206 39 l 257
323 434 m 257
 334 469 l 257
 422 478 509 511 542 600 c 256
 569 673 539 739 456 740 c 256
 375 741 304 678 278 606 c 258
 70 0 l 257
 19 0 l 257
 226 607 l 258
 262 706 349 789 464 789 c 256
 573 789 628 707 595 605 c 256
 554 483 441 441 323 434 c 257
EndSplineSet
EndChar

StartChar: ae
Encoding: 230 230 220
Width: 776
VWidth: 0
Flags: HMW
LayerCount: 2
Fore
SplineSet
72 134 m 256
 52 77 88 39 145 38 c 256
 233 36 300 102 333 173 c 257
 354 142 l 257
 317 59 236 -9 137 -9 c 256
 56 -9 -6 45 20 129 c 256
 50 225 154 284 251 283 c 256
 301 283 341 265 374 228 c 257
 363 198 l 257
 329 227 293 243 247 242 c 256
 177 241 96 204 72 134 c 256
168 370 m 257
 154 412 l 257
 207 443 268 471 332 469 c 256
 415 466 445 406 424 330 c 257
 362 144 l 257
 324 145 l 257
 385 320 l 257
 399 371 382 419 323 422 c 256
 268 426 214 396 168 370 c 257
385 218 m 257
 399 261 l 257
 762 262 l 257
 761 217 l 257
 385 218 l 257
720 250 m 257
 746 326 733 420 636 423 c 256
 531 426 451 337 411 250 c 257
 404 232 l 257
 378 151 382 43 490 40 c 256
 566 38 630 85 684 133 c 257
 719 104 l 257
 652 41 571 -12 476 -9 c 256
 350 -5 316 128 357 230 c 256
 364 247 374 263 383 279 c 256
 440 375 529 471 651 469 c 256
 775 467 801 341 771 242 c 256
 769 234 766 226 763 218 c 257
 713 231 l 257
 720 250 l 257
EndSplineSet
EndChar

StartChar: ccedilla
Encoding: 231 231 221
Width: 453
VWidth: 0
Flags: HMW
LayerCount: 2
Fore
SplineSet
106 230 m 256
 75 144 105 42 210 40 c 256
 276 39 336 73 387 112 c 257
 367 48 l 257
 317 15 261 -9 200 -9 c 256
 67 -8 18 116 55 230 c 256
 95 356 220 469 357 469 c 256
 410 469 453 450 489 411 c 257
 469 347 l 257
 445 396 404 421 348 420 c 256
 240 419 141 328 106 230 c 256
202 33 m 257
 243 33 l 257
 151 -63 l 257
 161 -59 173 -53 184 -54 c 256
 222 -60 241 -92 231 -129 c 256
 217 -181 152 -221 100 -221 c 256
 67 -221 47 -204 25 -182 c 257
 54 -158 l 257
 69 -172 84 -185 107 -185 c 256
 139 -185 185 -159 194 -127 c 256
 201 -102 184 -83 160 -81 c 256
 136 -78 110 -91 88 -100 c 257
 202 33 l 257
EndSplineSet
EndChar

StartChar: egrave
Encoding: 232 232 222
Width: 479
VWidth: 0
Flags: HMW
LayerCount: 2
Fore
SplineSet
101 217 m 257
 114 262 l 257
 434 262 l 257
 458 332 438 421 344 423 c 256
 242 425 164 335 130 250 c 257
 123 231 l 257
 99 149 112 41 217 40 c 256
 289 39 349 86 400 134 c 257
 436 104 l 257
 373 42 296 -10 203 -9 c 256
 73 -7 42 125 72 231 c 256
 78 252 86 272 96 291 c 256
 143 385 240 470 351 469 c 256
 478 468 512 348 484 242 c 256
 482 234 478 225 476 217 c 257
 101 217 l 257
236.786 682.009 m 257
 288.786 708.009 l 257
 391.786 547.009 l 257
 360.786 529.009 l 257
 236.786 682.009 l 257
EndSplineSet
EndChar

StartChar: eacute
Encoding: 233 233 223
Width: 479
VWidth: 0
Flags: HMW
LayerCount: 2
Fore
SplineSet
101 217 m 257
 114 262 l 257
 434 262 l 257
 458 332 438 421 344 423 c 256
 242 425 164 335 130 250 c 257
 123 231 l 257
 99 149 112 41 217 40 c 256
 289 39 349 86 400 134 c 257
 436 104 l 257
 373 42 296 -10 203 -9 c 256
 73 -7 42 125 72 231 c 256
 78 252 86 272 96 291 c 256
 143 385 240 470 351 469 c 256
 478 468 512 348 484 242 c 256
 482 234 478 225 476 217 c 257
 101 217 l 257
574.786 677.009 m 257
 360.786 529.009 l 257
 336.786 550.009 l 257
 533.786 706.009 l 257
 574.786 677.009 l 257
EndSplineSet
EndChar

StartChar: ecircumflex
Encoding: 234 234 224
Width: 479
VWidth: 0
Flags: HMW
LayerCount: 2
Fore
SplineSet
93 218 m 257
 107 261 l 257
 428 262 l 257
 448 332 435 421 341 423 c 256
 238 425 158 335 123 250 c 257
 116 231 l 257
 91 149 101 43 206 40 c 256
 278 38 340 86 391 133 c 257
 426 104 l 257
 361 42 284 -10 191 -9 c 256
 61 -7 34 126 65 231 c 256
 71 252 80 272 90 291 c 256
 139 384 237 470 348 469 c 256
 476 468 507 346 477 242 c 256
 475 234 472 226 469 218 c 257
 93 218 l 257
409 640 m 257
 250 531 l 257
 225 559 l 257
 422 696 l 257
 529 555 l 257
 491 530 l 257
 409 640 l 257
EndSplineSet
EndChar

StartChar: edieresis
Encoding: 235 235 225
Width: 479
VWidth: 0
Flags: HMW
LayerCount: 2
Fore
SplineSet
93 218 m 257
 107 261 l 257
 428 262 l 257
 448 332 435 421 341 423 c 256
 238 425 158 335 123 250 c 257
 116 231 l 257
 91 149 101 43 206 40 c 256
 278 38 340 86 391 133 c 257
 426 104 l 257
 361 42 284 -10 191 -9 c 256
 61 -7 34 126 65 231 c 256
 71 252 80 272 90 291 c 256
 139 384 237 470 348 469 c 256
 476 468 507 346 477 242 c 256
 475 234 472 226 469 218 c 257
 93 218 l 257
438 568 m 256
 442 584 468 606 485 604 c 256
 503 602 514 584 510 566 c 256
 506 550 480 528 463 530 c 256
 445 532 434 550 438 568 c 256
250 568 m 256
 254 584 280 606 297 604 c 256
 315 602 326 584 322 566 c 256
 318 550 292 528 275 530 c 256
 257 532 246 550 250 568 c 256
EndSplineSet
EndChar

StartChar: igrave
Encoding: 236 236 226
Width: 217
VWidth: 0
Flags: HMW
LayerCount: 2
Fore
SplineSet
186 459 m 257
 239 460 l 257
 79 0 l 257
 30 0 l 257
 186 459 l 257
142 696 m 257
 196 722 l 257
 293 561 l 257
 261 542 l 257
 142 696 l 257
EndSplineSet
EndChar

StartChar: dotlessi
Encoding: 305 305 227
Width: 217
VWidth: 0
Flags: HMW
LayerCount: 2
Fore
SplineSet
186 459 m 257
 239 460 l 257
 79 0 l 257
 30 0 l 257
 186 459 l 257
EndSplineSet
EndChar

StartChar: kgreenlandic
Encoding: 312 312 228
Width: 387
VWidth: 0
Flags: HMW
LayerCount: 2
Fore
SplineSet
171 459 m 257
 224 460 l 257
 64 0 l 257
 15 0 l 257
 171 459 l 257
404 459 m 257
 473 459 l 257
 200 268 l 257
 329 0 l 257
 270 0 l 257
 139 273 l 257
 404 459 l 257
EndSplineSet
EndChar

StartChar: iacute
Encoding: 237 237 229
Width: 217
VWidth: 0
Flags: HMW
LayerCount: 2
Fore
SplineSet
186 459 m 257
 239 460 l 257
 79 0 l 257
 30 0 l 257
 186 459 l 257
442 691 m 257
 225 544 l 257
 200 565 l 257
 403 721 l 257
 442 691 l 257
EndSplineSet
EndChar

StartChar: icircumflex
Encoding: 238 238 230
Width: 217
VWidth: 0
Flags: HMW
LayerCount: 2
Fore
SplineSet
186 459 m 257
 239 460 l 257
 79 0 l 257
 30 0 l 257
 186 459 l 257
279 646 m 257
 120 537 l 257
 95 565 l 257
 292 702 l 257
 399 562 l 257
 361 537 l 257
 279 646 l 257
EndSplineSet
EndChar

StartChar: idieresis
Encoding: 239 239 231
Width: 217
VWidth: 0
Flags: HMW
LayerCount: 2
Fore
SplineSet
186 459 m 257
 239 460 l 257
 79 0 l 257
 30 0 l 257
 186 459 l 257
305 587 m 256
 309 603 335 624 352 622 c 256
 370 620 381 602 377 584 c 256
 373 568 347 547 330 549 c 256
 312 551 301 569 305 587 c 256
132 587 m 256
 136 603 162 624 179 622 c 256
 197 620 208 602 204 584 c 256
 200 568 174 547 157 549 c 256
 139 551 128 569 132 587 c 256
EndSplineSet
EndChar

StartChar: ntilde
Encoding: 241 241 232
Width: 474
VWidth: 0
Flags: HMW
LayerCount: 2
Fore
SplineSet
228 460 m 257
 69 0 l 257
 17 0 l 257
 177 460 l 257
 228 460 l 257
399 296 m 258
 416 351 417 417 344 420 c 256
 261 423 200 347 164 282 c 257
 141 282 l 257
 181 370 256 469 364 469 c 256
 463 469 474 379 451 302 c 257
 346 0 l 257
 297 0 l 257
 399 296 l 258
233 563 m 257
 258 595 292 634 338 632 c 256
 377 631 400 584 439 587 c 256
 467 589 490 615 509 633 c 257
 533 605 l 257
 507 578 470 541 428 543 c 256
 390 545 369 589 330 588 c 256
 299 587 279 561 262 539 c 257
 233 563 l 257
EndSplineSet
EndChar

StartChar: ograve
Encoding: 242 242 233
Width: 517
VWidth: 0
Flags: HMW
LayerCount: 2
Fore
SplineSet
59 230 m 256
 99 354 225 469 361 469 c 256
 494 469 544 344 507 230 c 256
 467 106 341 -9 205 -9 c 256
 72 -9 22 116 59 230 c 256
111 230 m 256
 80 144 109 41 214 40 c 256
 322 39 421 133 455 230 c 256
 486 316 457 419 352 420 c 256
 244 421 145 327 111 230 c 256
299 696 m 257
 352 722 l 257
 450 561 l 257
 418 542 l 257
 299 696 l 257
EndSplineSet
EndChar

StartChar: oacute
Encoding: 243 243 234
Width: 517
VWidth: 0
Flags: HMW
LayerCount: 2
Fore
SplineSet
59 230 m 256
 99 354 225 469 361 469 c 256
 494 469 544 344 507 230 c 256
 467 106 341 -9 205 -9 c 256
 72 -9 22 116 59 230 c 256
111 230 m 256
 80 144 109 41 214 40 c 256
 322 39 421 133 455 230 c 256
 486 316 457 419 352 420 c 256
 244 421 145 327 111 230 c 256
584 691 m 257
 366 544 l 257
 342 565 l 257
 545 721 l 257
 584 691 l 257
EndSplineSet
EndChar

StartChar: ocircumflex
Encoding: 244 244 235
Width: 517
VWidth: 0
Flags: HMW
LayerCount: 2
Fore
SplineSet
59 230 m 256
 99 354 225 469 361 469 c 256
 494 469 544 344 507 230 c 256
 467 106 341 -9 205 -9 c 256
 72 -9 22 116 59 230 c 256
111 230 m 256
 80 144 109 41 214 40 c 256
 322 39 421 133 455 230 c 256
 486 316 457 419 352 420 c 256
 244 421 145 327 111 230 c 256
434 660 m 257
 274 551 l 257
 250 579 l 257
 447 716 l 257
 553 576 l 257
 515 551 l 257
 434 660 l 257
EndSplineSet
EndChar

StartChar: otilde
Encoding: 245 245 236
Width: 517
VWidth: 0
Flags: HMW
LayerCount: 2
Fore
SplineSet
59 230 m 256
 99 354 225 469 361 469 c 256
 494 469 544 344 507 230 c 256
 467 106 341 -9 205 -9 c 256
 72 -9 22 116 59 230 c 256
111 230 m 256
 80 144 109 41 214 40 c 256
 322 39 421 133 455 230 c 256
 486 316 457 419 352 420 c 256
 244 421 145 327 111 230 c 256
253 563 m 257
 242 597 335 633 358 632 c 256
 397 631 419 584 459 587 c 256
 487 589 511 615 530 633 c 257
 554 605 l 257
 528 578 491 541 449 543 c 256
 411 545 390 590 351 588 c 256
 320 586 300 561 283 539 c 257
 253 563 l 257
EndSplineSet
EndChar

StartChar: odieresis
Encoding: 246 246 237
Width: 517
VWidth: 0
Flags: HMW
LayerCount: 2
Fore
SplineSet
59 230 m 256
 99 354 225 469 361 469 c 256
 494 469 544 344 507 230 c 256
 467 106 341 -9 205 -9 c 256
 72 -9 22 116 59 230 c 256
111 230 m 256
 80 144 109 41 214 40 c 256
 322 39 421 133 455 230 c 256
 486 316 457 419 352 420 c 256
 244 421 145 327 111 230 c 256
465 595 m 256
 469 611 495 632 512 630 c 256
 530 628 541 610 537 592 c 256
 533 576 507 555 490 557 c 256
 472 559 461 577 465 595 c 256
277 595 m 256
 281 611 307 632 324 630 c 256
 342 628 353 610 349 592 c 256
 345 576 319 555 302 557 c 256
 284 559 273 577 277 595 c 256
EndSplineSet
EndChar

StartChar: ugrave
Encoding: 249 249 238
Width: 474
VWidth: 0
Flags: HMW
LayerCount: 2
Fore
SplineSet
295 0 m 257
 454 460 l 257
 506 460 l 257
 347 0 l 257
 295 0 l 257
126 168 m 258
 109 113 105 42 180 40 c 256
 263 37 323 112 359 178 c 257
 383 178 l 257
 343 90 267 -10 159 -9 c 256
 58 -9 51 85 74 162 c 257
 178 460 l 257
 226 459 l 257
 126 168 l 258
294 700 m 257
 348 726 l 257
 445 565 l 257
 413 546 l 257
 294 700 l 257
EndSplineSet
EndChar

StartChar: uacute
Encoding: 250 250 239
Width: 474
VWidth: 0
Flags: HMW
LayerCount: 2
Fore
SplineSet
295 0 m 257
 454 460 l 257
 506 460 l 257
 347 0 l 257
 295 0 l 257
126 168 m 258
 109 113 105 42 180 40 c 256
 263 37 323 112 359 178 c 257
 383 178 l 257
 343 90 267 -10 159 -9 c 256
 58 -9 51 85 74 162 c 257
 178 460 l 257
 226 459 l 257
 126 168 l 258
549 695 m 257
 332 547 l 257
 308 569 l 257
 510 725 l 257
 549 695 l 257
EndSplineSet
EndChar

StartChar: ucircumflex
Encoding: 251 251 240
Width: 474
VWidth: 0
Flags: HMW
LayerCount: 2
Fore
SplineSet
295 0 m 257
 454 460 l 257
 506 460 l 257
 347 0 l 257
 295 0 l 257
126 168 m 258
 109 113 105 42 180 40 c 256
 263 37 323 112 359 178 c 257
 383 178 l 257
 343 90 267 -10 159 -9 c 256
 58 -9 51 85 74 162 c 257
 178 460 l 257
 226 459 l 257
 126 168 l 258
411 656 m 257
 252 547 l 257
 227 575 l 257
 424 712 l 257
 531 572 l 257
 492 547 l 257
 411 656 l 257
EndSplineSet
EndChar

StartChar: udieresis
Encoding: 252 252 241
Width: 474
VWidth: 0
Flags: HMW
LayerCount: 2
Fore
SplineSet
295 0 m 257
 454 460 l 257
 506 460 l 257
 347 0 l 257
 295 0 l 257
126 168 m 258
 109 113 105 42 180 40 c 256
 263 37 323 112 359 178 c 257
 383 178 l 257
 343 90 267 -10 159 -9 c 256
 58 -9 51 85 74 162 c 257
 178 460 l 257
 226 459 l 257
 126 168 l 258
435 589 m 256
 439 604 464 626 481 624 c 256
 499 622 511 604 507 586 c 256
 503 570 476 549 459 551 c 256
 440 553 431 572 435 589 c 256
261 589 m 256
 265 604 291 626 308 624 c 256
 326 622 337 604 333 586 c 256
 329 570 303 549 286 551 c 256
 267 553 257 572 261 589 c 256
EndSplineSet
EndChar

StartChar: yacute
Encoding: 253 253 242
Width: 407
VWidth: 0
Flags: HMW
LayerCount: 2
Fore
SplineSet
511 459 m 257
 -6 -219 l 257
 -65 -219 l 257
 141 50 l 257
 107 460 l 257
 165 460 l 257
 188 68 l 257
 165 71 l 257
 452 459 l 257
 511 459 l 257
520 691 m 257
 302 544 l 257
 278 565 l 257
 481 721 l 257
 520 691 l 257
EndSplineSet
EndChar

StartChar: thorn
Encoding: 254 254 243
Width: 525
VWidth: 0
Flags: HMW
LayerCount: 2
Fore
SplineSet
-9 -219 m 257
 -62 -220 l 257
 282 780 l 257
 331 779 l 257
 -9 -219 l 257
514 230 m 256
 475 110 360 -12 226 -10 c 256
 96 -8 88 134 120 230 c 256
 156 342 253 468 382 469 c 256
 516 470 549 337 514 230 c 256
463 230 m 256
 492 313 472 421 366 420 c 256
 264 419 175 319 143 230 c 256
 117 154 129 44 228 40 c 256
 335 36 430 136 463 230 c 256
EndSplineSet
EndChar

StartChar: ydieresis
Encoding: 255 255 244
Width: 407
VWidth: 0
Flags: HMW
LayerCount: 2
Fore
SplineSet
511 459 m 257
 -6 -219 l 257
 -65 -219 l 257
 141 50 l 257
 107 460 l 257
 165 460 l 257
 188 68 l 257
 165 71 l 257
 452 459 l 257
 511 459 l 257
397 577 m 256
 401 593 427 614 444 612 c 256
 462 610 473 592 469 574 c 256
 465 558 439 537 422 539 c 256
 404 541 393 559 397 577 c 256
224 577 m 256
 228 593 254 614 271 612 c 256
 289 610 300 592 296 574 c 256
 292 558 265 537 248 539 c 256
 230 541 220 559 224 577 c 256
EndSplineSet
EndChar

StartChar: Amacron
Encoding: 256 256 245
Width: 597
VWidth: 0
Flags: HMW
LayerCount: 2
Fore
SplineSet
157 236 m 257
 190 286 l 257
 497 287 l 257
 497 235 l 257
 157 236 l 257
454 600 m 257
 211 269 l 257
 202 257 l 257
 13 0 l 257
 -50 0 l 257
 493 729 l 257
 535 0 l 257
 477 0 l 257
 467 253 l 257
 467 266 l 257
 454 600 l 257
352 796 m 257
 368 844 l 257
 700 844 l 257
 683 795 l 257
 352 796 l 257
EndSplineSet
EndChar

StartChar: amacron
Encoding: 257 257 246
Width: 437
VWidth: 0
Flags: HMW
LayerCount: 2
Fore
SplineSet
73 135 m 256
 53 78 88 39 145 38 c 256
 233 36 294 100 334 171 c 257
 335 140 l 257
 294 58 222 -10 125 -9 c 256
 44 -8 -4 52 21 130 c 256
 51 225 154 284 250 283 c 256
 301 283 340 265 374 228 c 257
 363 198 l 257
 329 227 291 243 245 242 c 256
 176 241 97 204 73 135 c 256
167 370 m 257
 154 412 l 257
 208 443 267 470 330 469 c 256
 415 467 457 407 435 326 c 257
 323 0 l 257
 271 0 l 257
 386 326 l 257
 394 378 382 420 321 422 c 256
 266 424 213 396 167 370 c 257
197 551 m 257
 213 599 l 257
 544 599 l 257
 528 550 l 257
 197 551 l 257
EndSplineSet
Substitution2: "alt a" amacron.alt
EndChar

StartChar: breve
Encoding: 728 728 247
Width: 513
VWidth: 0
Flags: HMW
LayerCount: 2
Fore
SplineSet
335 850 m 257
 379 850 l 257
 374 798 391 755 451 754 c 256
 515 753 558 798 588 849 c 257
 634 848 l 257
 598 772 533 711 444 711 c 256
 358 711 325 772 335 850 c 257
EndSplineSet
EndChar

StartChar: Abreve
Encoding: 258 258 248
Width: 597
VWidth: 0
Flags: HMW
LayerCount: 2
Fore
SplineSet
157 236 m 257
 190 286 l 257
 497 287 l 257
 497 235 l 257
 157 236 l 257
454 600 m 257
 211 269 l 257
 202 257 l 257
 13 0 l 257
 -50 0 l 257
 493 729 l 257
 535 0 l 257
 477 0 l 257
 467 253 l 257
 467 266 l 257
 454 600 l 257
413 931 m 257
 457 930 l 257
 450 878 466 836 526 835 c 256
 590 834 635 880 667 930 c 257
 713 929 l 257
 674 853 608 792 519 792 c 256
 432 792 401 853 413 931 c 257
EndSplineSet
EndChar

StartChar: abreve
Encoding: 259 259 249
Width: 437
VWidth: 0
Flags: HMW
LayerCount: 2
Fore
SplineSet
73 135 m 256
 53 78 88 39 145 38 c 256
 233 36 294 100 334 171 c 257
 335 140 l 257
 294 58 222 -10 125 -9 c 256
 44 -8 -4 52 21 130 c 256
 51 225 154 284 250 283 c 256
 301 283 340 265 374 228 c 257
 363 198 l 257
 329 227 291 243 245 242 c 256
 176 241 97 204 73 135 c 256
167 370 m 257
 154 412 l 257
 208 443 267 470 330 469 c 256
 415 467 457 407 435 326 c 257
 323 0 l 257
 271 0 l 257
 386 326 l 257
 394 378 382 420 321 422 c 256
 266 424 213 396 167 370 c 257
250 674 m 257
 294 673 l 257
 287 621 302 579 362 578 c 256
 426 577 471 623 503 673 c 257
 550 672 l 257
 511 597 444 535 355 535 c 256
 268 535 238 596 250 674 c 257
EndSplineSet
Substitution2: "alt a" abreve.alt
EndChar

StartChar: Aogonek
Encoding: 260 260 250
Width: 597
VWidth: 0
Flags: HMW
LayerCount: 2
Fore
SplineSet
158 236 m 257
 191 286 l 257
 497 287 l 257
 497 235 l 257
 158 236 l 257
454 600 m 257
 211 269 l 257
 202 257 l 257
 13 0 l 257
 -50 0 l 257
 493 729 l 257
 535 0 l 257
 477 0 l 257
 467 253 l 257
 467 266 l 257
 454 600 l 257
500 -148 m 257
 512 -183 l 257
 482 -202 451 -219 414 -219 c 256
 359 -220 317 -185 333 -127 c 256
 355 -51 449 -12 514 18 c 257
 537 0 l 257
 488 -26 403 -55 387 -116 c 256
 379 -147 396 -170 427 -173 c 256
 452 -175 479 -160 500 -148 c 257
EndSplineSet
EndChar

StartChar: aogonek
Encoding: 261 261 251
Width: 437
VWidth: 0
Flags: HMW
LayerCount: 2
Fore
SplineSet
73 135 m 256
 55 79 89 39 145 38 c 256
 232 36 294 100 334 171 c 257
 335 140 l 257
 294 58 222 -10 125 -9 c 256
 43 -8 -3 56 22 134 c 256
 52 228 155 284 250 283 c 256
 301 282 340 265 374 228 c 257
 363 198 l 257
 329 227 291 243 245 242 c 256
 176 241 96 205 73 135 c 256
167 370 m 257
 154 412 l 257
 208 443 267 470 330 469 c 256
 415 467 457 407 435 326 c 257
 323 0 l 257
 271 0 l 257
 386 326 l 257
 394 378 382 420 321 422 c 256
 266 424 213 396 167 370 c 257
287 -148 m 257
 299 -183 l 257
 269 -202 238 -219 201 -219 c 256
 146 -220 104 -185 120 -127 c 256
 142 -51 237 -12 302 18 c 257
 324 0 l 257
 275 -26 190 -55 174 -116 c 256
 166 -147 184 -170 215 -173 c 256
 240 -175 266 -160 287 -148 c 257
EndSplineSet
Substitution2: "alt a" aogonek.alt
EndChar

StartChar: Cacute
Encoding: 262 262 252
Width: 644
VWidth: 0
Flags: HMW
LayerCount: 2
Fore
SplineSet
163 350 m 256
 116 216 155 51 321 48 c 256
 413 46 496 90 569 141 c 257
 546 68 l 257
 474 22 396 -10 310 -9 c 256
 113 -7 50 185 105 350 c 256
 166 535 344 707 547 709 c 256
 623 710 684 685 737 631 c 257
 713 558 l 257
 672 622 612 653 536 653 c 256
 365 652 217 503 163 350 c 256
749 918 m 257
 531 771 l 257
 507 792 l 257
 710 948 l 257
 749 918 l 257
EndSplineSet
EndChar

StartChar: cacute
Encoding: 263 263 253
Width: 453
VWidth: 0
Flags: HMW
LayerCount: 2
Fore
SplineSet
106 230 m 256
 75 144 105 42 210 40 c 256
 276 39 336 73 387 112 c 257
 367 48 l 257
 317 15 261 -9 200 -9 c 256
 67 -8 18 116 55 230 c 256
 95 356 220 469 357 469 c 256
 410 469 453 450 489 411 c 257
 469 347 l 257
 445 396 404 421 348 420 c 256
 240 419 141 328 106 230 c 256
564 683 m 257
 346 536 l 257
 321 557 l 257
 524 713 l 257
 564 683 l 257
EndSplineSet
EndChar

StartChar: Ccircumflex
Encoding: 264 264 254
Width: 644
VWidth: 0
Flags: HMW
LayerCount: 2
Fore
SplineSet
163 350 m 256
 116 216 155 51 321 48 c 256
 413 46 496 90 569 141 c 257
 546 68 l 257
 474 22 396 -10 310 -9 c 256
 113 -7 50 185 105 350 c 256
 166 535 344 707 547 709 c 256
 623 710 684 685 737 631 c 257
 713 558 l 257
 672 622 612 653 536 653 c 256
 365 652 217 503 163 350 c 256
613 879 m 257
 454 771 l 257
 429 799 l 257
 626 936 l 257
 732 795 l 257
 695 770 l 257
 613 879 l 257
EndSplineSet
EndChar

StartChar: ccircumflex
Encoding: 265 265 255
Width: 453
VWidth: 0
Flags: HMW
LayerCount: 2
Fore
SplineSet
106 230 m 256
 75 144 105 42 210 40 c 256
 276 39 336 73 387 112 c 257
 367 48 l 257
 317 15 261 -9 200 -9 c 256
 67 -8 18 116 55 230 c 256
 95 356 220 469 357 469 c 256
 410 469 453 450 489 411 c 257
 469 347 l 257
 445 396 404 421 348 420 c 256
 240 419 141 328 106 230 c 256
423 640 m 257
 263 531 l 257
 238 559 l 257
 435 696 l 257
 542 556 l 257
 504 531 l 257
 423 640 l 257
EndSplineSet
EndChar

StartChar: Cdotaccent
Encoding: 266 266 256
Width: 644
VWidth: 0
Flags: HMW
LayerCount: 2
Fore
SplineSet
163 350 m 256
 116 216 155 51 321 48 c 256
 413 46 496 90 569 141 c 257
 546 68 l 257
 474 22 396 -10 310 -9 c 256
 113 -7 50 185 105 350 c 256
 166 535 344 707 547 709 c 256
 623 710 684 685 737 631 c 257
 713 558 l 257
 672 622 612 653 536 653 c 256
 365 652 217 503 163 350 c 256
550 812 m 256
 554 828 580 849 597 847 c 256
 615 845 625 827 621 809 c 256
 617 793 591 772 574 774 c 256
 556 776 546 794 550 812 c 256
EndSplineSet
EndChar

StartChar: cdotaccent
Encoding: 267 267 257
Width: 453
VWidth: 0
Flags: HMW
LayerCount: 2
Fore
SplineSet
106 230 m 256
 75 144 105 42 210 40 c 256
 276 39 336 73 387 112 c 257
 367 48 l 257
 317 15 261 -9 200 -9 c 256
 67 -8 18 116 55 230 c 256
 95 356 220 469 357 469 c 256
 410 469 453 450 489 411 c 257
 469 347 l 257
 445 396 404 421 348 420 c 256
 240 419 141 328 106 230 c 256
359 573 m 256
 363 589 389 610 406 608 c 256
 424 606 434 588 430 570 c 256
 426 554 400 533 383 535 c 256
 365 537 355 555 359 573 c 256
EndSplineSet
EndChar

StartChar: Ccaron
Encoding: 268 268 258
Width: 644
VWidth: 0
Flags: HMW
LayerCount: 2
Fore
SplineSet
163 350 m 256
 116 216 155 51 321 48 c 256
 413 46 496 90 569 141 c 257
 546 68 l 257
 474 22 396 -10 310 -9 c 256
 113 -7 50 185 105 350 c 256
 166 535 344 707 547 709 c 256
 623 710 684 685 737 631 c 257
 713 558 l 257
 672 622 612 653 536 653 c 256
 365 652 217 503 163 350 c 256
588 830 m 257
 747 939 l 257
 772 911 l 257
 575 774 l 257
 469 914 l 257
 507 940 l 257
 588 830 l 257
EndSplineSet
EndChar

StartChar: ccaron
Encoding: 269 269 259
Width: 453
VWidth: 0
Flags: HMW
LayerCount: 2
Fore
SplineSet
106 230 m 256
 75 144 105 42 210 40 c 256
 276 39 336 73 387 112 c 257
 367 48 l 257
 317 15 261 -9 200 -9 c 256
 67 -8 18 116 55 230 c 256
 95 356 220 469 357 469 c 256
 410 469 453 450 489 411 c 257
 469 347 l 257
 445 396 404 421 348 420 c 256
 240 419 141 328 106 230 c 256
399 595 m 257
 558 704 l 257
 583 675 l 257
 386 538 l 257
 279 679 l 257
 318 705 l 257
 399 595 l 257
EndSplineSet
EndChar

StartChar: Dcaron
Encoding: 270 270 260
Width: 622
VWidth: 0
Flags: HMW
LayerCount: 2
Fore
SplineSet
262 699 m 257
 318 700 l 257
 77 0 l 257
 25 0 l 257
 262 699 l 257
208 0 m 256
 52 0 l 257
 71 55 l 257
 219 55 l 256
 392 61 538 190 594 350 c 256
 645 494 594 638 427 645 c 256
 272 645 l 257
 291 700 l 257
 438 700 l 256
 635 693 705 522 648 350 c 256
 586 161 412 6 208 0 c 256
534 838 m 257
 692 947 l 257
 718 919 l 257
 521 782 l 257
 415 922 l 257
 452 948 l 257
 534 838 l 257
EndSplineSet
EndChar

StartChar: dcaron
Encoding: 271 271 261
Width: 536
VWidth: 0
Flags: HMW
LayerCount: 2
Fore
SplineSet
617 779 m 257
 670 780 l 257
 401 0 l 257
 352 0 l 257
 617 779 l 257
59 230 m 256
 98 350 214 472 348 470 c 256
 478 468 487 326 455 230 c 256
 419 118 321 -8 192 -9 c 256
 58 -10 24 123 59 230 c 256
111 230 m 256
 82 147 101 39 207 40 c 256
 309 41 399 141 431 230 c 256
 457 306 444 416 345 420 c 256
 238 424 144 324 111 230 c 256
804 772 m 257
 851 750 l 257
 660 506 l 257
 626 519 l 257
 804 772 l 257
EndSplineSet
EndChar

StartChar: Dcroat
Encoding: 272 272 262
Width: 639
VWidth: 0
Flags: HMW
LayerCount: 2
Fore
SplineSet
61 325 m 257
 78 373 l 257
 362 373 l 257
 346 324 l 257
 61 325 l 257
262 699 m 257
 318 700 l 257
 77 0 l 257
 25 0 l 257
 262 699 l 257
208 0 m 256
 52 0 l 257
 71 55 l 257
 219 55 l 256
 392 61 538 190 594 350 c 256
 645 493 594 638 427 645 c 256
 272 645 l 257
 291 700 l 257
 438 700 l 256
 635 693 705 522 648 350 c 256
 586 161 412 6 208 0 c 256
EndSplineSet
EndChar

StartChar: dcroat
Encoding: 273 273 263
Width: 525
VWidth: 0
Flags: HMW
LayerCount: 2
Fore
SplineSet
434 617 m 257
 450 665 l 257
 735 665 l 257
 718 616 l 257
 434 617 l 257
617 779 m 257
 670 780 l 257
 401 0 l 257
 352 0 l 257
 617 779 l 257
59 230 m 256
 98 350 214 472 348 470 c 256
 478 468 487 326 455 230 c 256
 419 118 321 -8 192 -9 c 256
 58 -10 23 122 59 230 c 256
111 230 m 256
 82 147 101 39 207 40 c 256
 309 41 399 141 431 230 c 256
 457 306 444 416 345 420 c 256
 238 424 144 323 111 230 c 256
EndSplineSet
EndChar

StartChar: Emacron
Encoding: 274 274 264
Width: 501
VWidth: 0
Flags: HMW
LayerCount: 2
Fore
SplineSet
52 0 m 257
 69 52 l 257
 398 52 l 257
 381 0 l 257
 52 0 l 257
274 649 m 257
 291 700 l 257
 619 700 l 257
 602 648 l 257
 274 649 l 257
174 358 m 257
 192 410 l 257
 501 410 l 257
 484 358 l 257
 174 358 l 257
262 699 m 257
 318 700 l 257
 77 0 l 257
 25 0 l 257
 262 699 l 257
316 797 m 257
 333 845 l 257
 664 845 l 257
 648 796 l 257
 316 797 l 257
EndSplineSet
EndChar

StartChar: emacron
Encoding: 275 275 265
Width: 479
VWidth: 0
Flags: HMW
LayerCount: 2
Fore
SplineSet
101 217 m 257
 114 262 l 257
 434 262 l 257
 458 332 438 421 344 423 c 256
 242 425 164 335 130 250 c 257
 123 231 l 257
 99 149 112 41 217 40 c 256
 289 39 349 86 400 134 c 257
 436 104 l 257
 373 42 296 -10 203 -9 c 256
 73 -7 42 125 72 231 c 256
 78 252 86 272 96 291 c 256
 143 385 240 470 351 469 c 256
 478 468 512 348 484 242 c 256
 482 234 478 225 476 217 c 257
 101 217 l 257
192.106 544.009 m 257
 207.106 593.009 l 257
 538.106 593.009 l 257
 523.106 544.009 l 257
 192.106 544.009 l 257
EndSplineSet
EndChar

StartChar: Ebreve
Encoding: 276 276 266
Width: 501
VWidth: 0
Flags: HMW
LayerCount: 2
Fore
SplineSet
52 0 m 257
 69 52 l 257
 398 52 l 257
 381 0 l 257
 52 0 l 257
274 649 m 257
 291 700 l 257
 619 700 l 257
 602 648 l 257
 274 649 l 257
174 358 m 257
 192 410 l 257
 501 410 l 257
 484 358 l 257
 174 358 l 257
262 699 m 257
 318 700 l 257
 77 0 l 257
 25 0 l 257
 262 699 l 257
366 909 m 257
 410 909 l 257
 403 857 418 814 478 813 c 256
 542 812 587 858 619 908 c 257
 666 907 l 257
 627 831 560 770 471 770 c 256
 384 770 354 831 366 909 c 257
EndSplineSet
EndChar

StartChar: ebreve
Encoding: 277 277 267
Width: 479
VWidth: 0
Flags: HMW
LayerCount: 2
Fore
SplineSet
93 218 m 257
 107 261 l 257
 428 262 l 257
 448 332 435 421 341 423 c 256
 238 425 158 335 123 250 c 257
 116 231 l 257
 91 149 101 43 206 40 c 256
 278 38 340 86 391 133 c 257
 426 104 l 257
 361 42 284 -10 191 -9 c 256
 61 -7 34 126 65 231 c 256
 71 252 80 272 90 291 c 256
 139 384 237 470 348 469 c 256
 476 468 507 346 477 242 c 256
 475 234 472 226 469 218 c 257
 93 218 l 257
257 669 m 257
 300 669 l 257
 295 617 311 574 371 573 c 256
 435 572 479 618 510 668 c 257
 556 667 l 257
 518 592 452 530 363 530 c 256
 276 530 246 591 257 669 c 257
EndSplineSet
EndChar

StartChar: Edotaccent
Encoding: 278 278 268
Width: 501
VWidth: 0
Flags: HMW
LayerCount: 2
Fore
SplineSet
52 0 m 257
 69 52 l 257
 398 52 l 257
 381 0 l 257
 52 0 l 257
274 649 m 257
 291 700 l 257
 619 700 l 257
 602 648 l 257
 274 649 l 257
174 358 m 257
 192 410 l 257
 501 410 l 257
 484 358 l 257
 174 358 l 257
262 699 m 257
 318 700 l 257
 77 0 l 257
 25 0 l 257
 262 699 l 257
441 808 m 256
 445 824 471 845 488 843 c 256
 506 841 517 823 513 805 c 256
 509 789 483 768 466 770 c 256
 448 772 437 790 441 808 c 256
EndSplineSet
EndChar

StartChar: edotaccent
Encoding: 279 279 269
Width: 479
VWidth: 0
Flags: HMW
LayerCount: 2
Fore
SplineSet
93 218 m 257
 107 261 l 257
 428 262 l 257
 448 332 435 421 341 423 c 256
 238 425 158 335 123 250 c 257
 116 231 l 257
 91 149 101 43 206 40 c 256
 278 38 340 86 391 133 c 257
 426 104 l 257
 361 42 284 -10 191 -9 c 256
 61 -7 34 126 65 231 c 256
 71 252 80 272 90 291 c 256
 139 384 237 470 348 469 c 256
 476 468 507 346 477 242 c 256
 475 234 472 226 469 218 c 257
 93 218 l 257
344 568 m 256
 348 584 374 606 391 604 c 256
 409 602 420 584 416 566 c 256
 412 550 386 528 369 530 c 256
 351 532 340 550 344 568 c 256
EndSplineSet
EndChar

StartChar: Eogonek
Encoding: 280 280 270
Width: 501
VWidth: 0
Flags: HMW
LayerCount: 2
Fore
SplineSet
52 0 m 257
 69 52 l 257
 398 52 l 257
 381 0 l 257
 52 0 l 257
274 649 m 257
 291 700 l 257
 619 700 l 257
 602 648 l 257
 274 649 l 257
174 358 m 257
 192 410 l 257
 501 410 l 257
 484 358 l 257
 174 358 l 257
262 699 m 257
 318 700 l 257
 77 0 l 257
 25 0 l 257
 262 699 l 257
275 -148 m 257
 287 -183 l 257
 257 -202 225 -219 188 -219 c 256
 133 -220 92 -185 108 -127 c 256
 130 -51 224 -12 289 18 c 257
 312 0 l 257
 263 -26 178 -55 162 -116 c 256
 154 -147 171 -170 202 -173 c 256
 227 -175 254 -160 275 -148 c 257
EndSplineSet
EndChar

StartChar: eogonek
Encoding: 281 281 271
Width: 479
VWidth: 0
Flags: HMW
LayerCount: 2
Fore
SplineSet
93 218 m 257
 107 261 l 257
 428 262 l 257
 448 332 435 421 341 423 c 256
 238 425 158 335 123 250 c 257
 116 231 l 257
 91 149 101 43 206 40 c 256
 278 38 340 86 391 133 c 257
 426 104 l 257
 361 42 284 -10 191 -9 c 256
 61 -7 34 126 65 231 c 256
 71 252 80 272 90 291 c 256
 139 384 237 470 348 469 c 256
 476 468 507 346 477 242 c 256
 475 234 472 226 469 218 c 257
 93 218 l 257
183 -151 m 257
 195 -186 l 257
 165 -205 135 -223 98 -223 c 256
 43 -224 0 -189 16 -131 c 256
 37 -56 130 -16 194 14 c 257
 218 -6 l 257
 168 -29 85 -60 69 -120 c 256
 61 -151 80 -174 111 -177 c 256
 136 -179 162 -163 183 -151 c 257
EndSplineSet
EndChar

StartChar: Ecaron
Encoding: 282 282 272
Width: 501
VWidth: 0
Flags: HMW
LayerCount: 2
Fore
SplineSet
52 0 m 257
 69 52 l 257
 398 52 l 257
 381 0 l 257
 52 0 l 257
274 649 m 257
 291 700 l 257
 619 700 l 257
 602 648 l 257
 274 649 l 257
174 358 m 257
 192 410 l 257
 501 410 l 257
 484 358 l 257
 174 358 l 257
262 699 m 257
 318 700 l 257
 77 0 l 257
 25 0 l 257
 262 699 l 257
480 826 m 257
 638 935 l 257
 664 907 l 257
 467 770 l 257
 360 910 l 257
 399 936 l 257
 480 826 l 257
EndSplineSet
EndChar

StartChar: ecaron
Encoding: 283 283 273
Width: 479
VWidth: 0
Flags: HMW
LayerCount: 2
Fore
SplineSet
93 218 m 257
 107 261 l 257
 428 262 l 257
 448 332 435 421 341 423 c 256
 238 425 158 335 123 250 c 257
 116 231 l 257
 91 149 101 43 206 40 c 256
 278 38 340 86 391 133 c 257
 426 104 l 257
 361 42 284 -10 191 -9 c 256
 61 -7 34 126 65 231 c 256
 71 252 80 272 90 291 c 256
 139 384 237 470 348 469 c 256
 476 468 507 346 477 242 c 256
 475 234 472 226 469 218 c 257
 93 218 l 257
374 586 m 257
 533 695 l 257
 558 667 l 257
 361 530 l 257
 254 670 l 257
 293 696 l 257
 374 586 l 257
EndSplineSet
EndChar

StartChar: Gcircumflex
Encoding: 284 284 274
Width: 725
VWidth: 0
Flags: HMW
LayerCount: 2
Fore
SplineSet
432 297 m 257
 451 349 l 257
 744 348 l 257
 676 170 522 -9 316 -9 c 256
 117 -9 50 183 105 350 c 256
 167 537 349 709 554 709 c 256
 660 710 737 655 776 558 c 257
 728 524 l 257
 699 608 633 654 543 653 c 256
 370 653 218 506 163 350 c 256
 115 213 158 48 327 47 c 256
 483 46 601 172 671 297 c 257
 432 297 l 257
620 879 m 257
 460 771 l 257
 435 799 l 257
 632 936 l 257
 739 795 l 257
 701 770 l 257
 620 879 l 257
EndSplineSet
EndChar

StartChar: gcircumflex
Encoding: 285 285 275
Width: 525
VWidth: 0
Flags: HMW
LayerCount: 2
Fore
SplineSet
-18 -30 m 257
 32 -31 l 257
 17 -108 38 -179 129 -180 c 256
 237 -182 318 -82 354 10 c 256
 509 460 l 257
 561 460 l 257
 407 10 l 258
 363 -111 258 -229 120 -229 c 256
 0 -229 -41 -136 -18 -30 c 257
59 230 m 256
 98 350 214 472 348 470 c 256
 478 468 487 326 455 230 c 256
 419 118 321 -8 192 -9 c 256
 58 -10 24 123 59 230 c 256
111 230 m 256
 81 147 101 40 207 40 c 256
 310 40 400 142 431 232 c 256
 457 308 443 416 345 420 c 256
 238 424 144 324 111 230 c 256
414 640 m 257
 254 531 l 257
 230 559 l 257
 427 696 l 257
 533 556 l 257
 495 531 l 257
 414 640 l 257
EndSplineSet
EndChar

StartChar: Gbreve
Encoding: 286 286 276
Width: 725
VWidth: 0
Flags: HMW
LayerCount: 2
Fore
SplineSet
432 297 m 257
 451 349 l 257
 744 348 l 257
 676 170 522 -9 316 -9 c 256
 117 -9 50 183 105 350 c 256
 167 537 349 709 554 709 c 256
 660 710 737 655 776 558 c 257
 728 524 l 257
 699 608 633 654 543 653 c 256
 370 653 218 506 163 350 c 256
 115 213 158 48 327 47 c 256
 483 46 601 172 671 297 c 257
 432 297 l 257
476 909 m 257
 521 909 l 257
 514 857 529 814 589 813 c 256
 653 812 698 858 730 908 c 257
 776 907 l 257
 737 831 670 770 581 770 c 256
 494 770 464 831 476 909 c 257
EndSplineSet
EndChar

StartChar: gbreve
Encoding: 287 287 277
Width: 525
VWidth: 0
Flags: HMW
LayerCount: 2
Fore
SplineSet
-18 -30 m 257
 32 -31 l 257
 17 -108 38 -179 129 -180 c 256
 237 -182 318 -82 354 10 c 256
 509 460 l 257
 561 460 l 257
 407 10 l 258
 363 -111 258 -229 120 -229 c 256
 0 -229 -41 -136 -18 -30 c 257
59 230 m 256
 98 350 214 472 348 470 c 256
 478 468 487 326 455 230 c 256
 419 118 321 -8 192 -9 c 256
 58 -10 24 123 59 230 c 256
111 230 m 256
 81 147 101 40 207 40 c 256
 310 40 400 142 431 232 c 256
 457 308 443 416 345 420 c 256
 238 424 144 324 111 230 c 256
271 670 m 257
 315 669 l 257
 308 617 323 575 383 574 c 256
 447 573 492 619 524 669 c 257
 570 668 l 257
 531 593 464 531 375 531 c 256
 288 531 259 592 271 670 c 257
EndSplineSet
EndChar

StartChar: Gdotaccent
Encoding: 288 288 278
Width: 725
VWidth: 0
Flags: HMW
LayerCount: 2
Fore
SplineSet
432 297 m 257
 451 349 l 257
 744 348 l 257
 676 170 522 -9 316 -9 c 256
 117 -9 50 183 105 350 c 256
 167 537 349 709 554 709 c 256
 660 710 737 655 776 558 c 257
 728 524 l 257
 699 608 633 654 543 653 c 256
 370 653 218 506 163 350 c 256
 115 213 158 48 327 47 c 256
 483 46 601 172 671 297 c 257
 432 297 l 257
555 808 m 256
 559 824 585 845 602 843 c 256
 620 841 631 823 627 805 c 256
 623 789 597 768 580 770 c 256
 562 772 551 790 555 808 c 256
EndSplineSet
EndChar

StartChar: gdotaccent
Encoding: 289 289 279
Width: 525
VWidth: 0
Flags: HMW
LayerCount: 2
Fore
SplineSet
-18 -30 m 257
 32 -31 l 257
 17 -108 38 -179 129 -180 c 256
 237 -182 318 -82 354 10 c 256
 509 460 l 257
 561 460 l 257
 407 10 l 258
 363 -111 258 -229 120 -229 c 256
 0 -229 -41 -136 -18 -30 c 257
59 230 m 256
 98 350 214 472 348 470 c 256
 478 468 487 326 455 230 c 256
 419 118 321 -8 192 -9 c 256
 58 -10 24 123 59 230 c 256
111 230 m 256
 81 147 101 40 207 40 c 256
 310 40 400 142 431 232 c 256
 457 308 443 416 345 420 c 256
 238 424 144 324 111 230 c 256
369 593 m 256
 373 609 399 630 416 628 c 256
 434 626 444 608 440 590 c 256
 436 574 410 553 393 555 c 256
 375 557 365 575 369 593 c 256
EndSplineSet
EndChar

StartChar: uni0122
Encoding: 290 290 280
Width: 725
VWidth: 0
Flags: HMW
LayerCount: 2
Fore
SplineSet
432 297 m 257
 451 349 l 257
 744 348 l 257
 676 170 522 -9 316 -9 c 256
 117 -9 50 183 105 350 c 256
 167 537 349 709 554 709 c 256
 660 710 737 655 776 558 c 257
 728 524 l 257
 699 608 633 654 543 653 c 256
 370 653 218 506 163 350 c 256
 115 213 158 48 327 47 c 256
 483 46 601 172 671 297 c 257
 432 297 l 257
310 -71 m 257
 358 -92 l 257
 166 -337 l 257
 133 -324 l 257
 310 -71 l 257
EndSplineSet
EndChar

StartChar: Hcircumflex
Encoding: 292 292 281
Width: 646
VWidth: 0
Flags: HMW
LayerCount: 2
Fore
SplineSet
174 355 m 257
 191 407 l 257
 637 407 l 257
 620 355 l 257
 174 355 l 257
699 699 m 257
 756 700 l 257
 513 0 l 257
 462 0 l 257
 699 699 l 257
262 699 m 257
 318 700 l 257
 77 0 l 257
 25 0 l 257
 262 699 l 257
574 879 m 257
 414 771 l 257
 389 799 l 257
 587 936 l 257
 693 795 l 257
 655 770 l 257
 574 879 l 257
EndSplineSet
EndChar

StartChar: hcircumflex
Encoding: 293 293 282
Width: 474
VWidth: 0
Flags: HMW
LayerCount: 2
Fore
SplineSet
338 780 m 257
 69 0 l 257
 18 0 l 257
 286 780 l 257
 338 780 l 257
399 296 m 258
 416 351 417 417 344 420 c 256
 261 423 200 347 164 282 c 257
 141 282 l 257
 181 370 256 469 364 469 c 256
 463 469 474 379 451 302 c 257
 346 0 l 257
 297 0 l 257
 399 296 l 258
380 950 m 257
 220 841 l 257
 195 869 l 257
 393 1006 l 257
 499 866 l 257
 461 841 l 257
 380 950 l 257
EndSplineSet
EndChar

StartChar: Itilde
Encoding: 296 296 283
Width: 205
VWidth: 0
Flags: HMW
LayerCount: 2
Fore
SplineSet
261 699 m 257
 316 700 l 257
 74 0 l 257
 23 0 l 257
 261 699 l 257
190 819 m 257
 215 851 248 890 294 888 c 256
 333 887 356 840 395 843 c 256
 423 845 447 871 466 889 c 257
 489 861 l 257
 463 834 427 797 385 799 c 256
 347 801 326 845 287 844 c 256
 256 843 235 817 218 795 c 257
 190 819 l 257
EndSplineSet
EndChar

StartChar: itilde
Encoding: 297 297 284
Width: 217
VWidth: 0
Flags: HMW
LayerCount: 2
Fore
SplineSet
186 459 m 257
 239 460 l 257
 79 0 l 257
 30 0 l 257
 186 459 l 257
115 579 m 257
 140 611 173 650 219 648 c 256
 258 647 281 600 320 603 c 256
 348 605 372 631 391 649 c 257
 414 621 l 257
 388 594 351 557 309 559 c 256
 271 561 251 605 212 604 c 256
 181 603 160 577 143 555 c 257
 115 579 l 257
EndSplineSet
EndChar

StartChar: Imacron
Encoding: 298 298 285
Width: 205
VWidth: 0
Flags: HMW
LayerCount: 2
Fore
SplineSet
261 699 m 257
 316 700 l 257
 74 0 l 257
 23 0 l 257
 261 699 l 257
169 797 m 257
 185 845 l 257
 517 845 l 257
 500 796 l 257
 169 797 l 257
EndSplineSet
EndChar

StartChar: imacron
Encoding: 299 299 286
Width: 217
VWidth: 0
Flags: HMW
LayerCount: 2
Fore
SplineSet
186 459 m 257
 239 460 l 257
 79 0 l 257
 30 0 l 257
 186 459 l 257
93 557 m 257
 110 605 l 257
 441 605 l 257
 425 556 l 257
 93 557 l 257
EndSplineSet
EndChar

StartChar: Ibreve
Encoding: 300 300 287
Width: 205
VWidth: 0
Flags: HMW
LayerCount: 2
Fore
SplineSet
261 699 m 257
 316 700 l 257
 74 0 l 257
 23 0 l 257
 261 699 l 257
210 910 m 257
 253 909 l 257
 246 857 262 815 322 814 c 256
 386 813 431 859 463 909 c 257
 509 908 l 257
 470 833 404 771 315 771 c 256
 228 771 198 832 210 910 c 257
EndSplineSet
EndChar

StartChar: ibreve
Encoding: 301 301 288
Width: 217
VWidth: 0
Flags: HMW
LayerCount: 2
Fore
SplineSet
186 459 m 257
 239 460 l 257
 79 0 l 257
 30 0 l 257
 186 459 l 257
134 670 m 257
 178 669 l 257
 171 617 186 575 246 574 c 256
 310 573 355 619 387 669 c 257
 433 668 l 257
 394 593 328 531 239 531 c 256
 152 531 122 592 134 670 c 257
EndSplineSet
EndChar

StartChar: Iogonek
Encoding: 302 302 289
Width: 205
VWidth: 0
Flags: HMW
LayerCount: 2
Fore
SplineSet
261 699 m 257
 316 700 l 257
 74 0 l 257
 23 0 l 257
 261 699 l 257
39 -148 m 257
 51 -183 l 257
 21 -202 -10 -219 -47 -219 c 256
 -102 -220 -144 -185 -128 -127 c 256
 -106 -51 -12 -12 53 18 c 257
 76 0 l 257
 27 -26 -59 -55 -75 -116 c 256
 -83 -147 -65 -170 -34 -173 c 256
 -9 -175 18 -160 39 -148 c 257
EndSplineSet
EndChar

StartChar: iogonek
Encoding: 303 303 290
Width: 217
VWidth: 0
Flags: HMW
LayerCount: 2
Fore
SplineSet
247 669 m 256
 251 685 277 706 294 704 c 256
 312 702 323 685 319 667 c 256
 315 651 289 630 272 632 c 256
 254 634 243 651 247 669 c 256
186 459 m 257
 239 460 l 257
 79 0 l 257
 30 0 l 257
 186 459 l 257
44 -148 m 257
 56 -183 l 257
 26 -202 -5 -219 -42 -219 c 256
 -97 -220 -140 -185 -124 -127 c 256
 -102 -51 -7 -12 58 18 c 257
 81 0 l 257
 32 -26 -54 -55 -70 -116 c 256
 -78 -147 -60 -170 -29 -173 c 256
 -4 -175 23 -160 44 -148 c 257
EndSplineSet
EndChar

StartChar: Idotaccent
Encoding: 304 304 291
Width: 205
VWidth: 0
Flags: HMW
LayerCount: 2
Fore
SplineSet
261 699 m 257
 316 700 l 257
 74 0 l 257
 23 0 l 257
 261 699 l 257
289 811 m 256
 293 827 319 848 336 846 c 256
 354 844 365 826 361 808 c 256
 357 792 331 771 314 773 c 256
 296 775 285 793 289 811 c 256
EndSplineSet
EndChar

StartChar: uni0136
Encoding: 310 310 292
Width: 489
VWidth: 0
Flags: HMW
LayerCount: 2
Fore
SplineSet
261 699 m 257
 316 700 l 257
 75 0 l 257
 23 0 l 257
 261 699 l 257
584 699 m 257
 656 699 l 257
 249 369 l 257
 426 0 l 257
 364 0 l 257
 186 374 l 257
 584 699 l 257
222 -62 m 257
 270 -83 l 257
 79 -328 l 257
 46 -315 l 257
 222 -62 l 257
EndSplineSet
EndChar

StartChar: uni0137
Encoding: 311 311 293
Width: 387
VWidth: 0
Flags: HMW
LayerCount: 2
Fore
SplineSet
280 779 m 257
 333 780 l 257
 64 0 l 257
 15 0 l 257
 280 779 l 257
404 459 m 257
 473 459 l 257
 200 268 l 257
 329 0 l 257
 270 0 l 257
 139 273 l 257
 404 459 l 257
171 -62 m 257
 218 -83 l 257
 27 -328 l 257
 -6 -315 l 257
 171 -62 l 257
EndSplineSet
EndChar

StartChar: Lacute
Encoding: 313 313 294
Width: 415
VWidth: 0
Flags: HMW
LayerCount: 2
Fore
SplineSet
263 700 m 257
 318 700 l 257
 95 52 l 257
 367 52 l 257
 349 0 l 257
 23 0 l 257
 263 700 l 257
642 918 m 257
 424 771 l 257
 400 792 l 257
 603 948 l 257
 642 918 l 257
EndSplineSet
EndChar

StartChar: lacute
Encoding: 314 314 295
Width: 197
VWidth: 0
Flags: HMW
LayerCount: 2
Fore
SplineSet
285 779 m 257
 338 780 l 257
 68 0 l 257
 20 0 l 257
 285 779 l 257
525 989 m 257
 306 842 l 257
 282 863 l 257
 485 1019 l 257
 525 989 l 257
EndSplineSet
EndChar

StartChar: uni013B
Encoding: 315 315 296
Width: 415
VWidth: 0
Flags: HMW
LayerCount: 2
Fore
SplineSet
263 700 m 257
 318 700 l 257
 95 52 l 257
 367 52 l 257
 349 0 l 257
 23 0 l 257
 263 700 l 257
169 -62 m 257
 216 -83 l 257
 26 -328 l 257
 -8 -315 l 257
 169 -62 l 257
EndSplineSet
EndChar

StartChar: uni013C
Encoding: 316 316 297
Width: 197
VWidth: 0
Flags: HMW
LayerCount: 2
Fore
SplineSet
285 779 m 257
 338 780 l 257
 68 0 l 257
 20 0 l 257
 285 779 l 257
35 -62 m 257
 82 -83 l 257
 -109 -328 l 257
 -142 -315 l 257
 35 -62 l 257
EndSplineSet
EndChar

StartChar: Lcaron
Encoding: 317 317 298
Width: 415
VWidth: 0
Flags: HMW
LayerCount: 2
Fore
SplineSet
263 700 m 257
 318 700 l 257
 95 52 l 257
 367 52 l 257
 349 0 l 257
 23 0 l 257
 263 700 l 257
501 707 m 257
 548 686 l 257
 358 441 l 257
 324 455 l 257
 501 707 l 257
EndSplineSet
EndChar

StartChar: lcaron
Encoding: 318 318 299
Width: 216
VWidth: 0
Flags: HMW
LayerCount: 2
Fore
SplineSet
285 779 m 257
 338 780 l 257
 68 0 l 257
 20 0 l 257
 285 779 l 257
494 772 m 257
 541 750 l 257
 351 506 l 257
 316 519 l 257
 494 772 l 257
EndSplineSet
EndChar

StartChar: Ldot
Encoding: 319 319 300
Width: 415
VWidth: 0
Flags: HMW
LayerCount: 2
Fore
SplineSet
263 700 m 257
 318 700 l 257
 95 52 l 257
 367 52 l 257
 349 0 l 257
 23 0 l 257
 263 700 l 257
332 416 m 256
 336 432 362 453 379 451 c 256
 397 449 408 431 404 413 c 256
 400 397 374 376 357 378 c 256
 339 380 328 398 332 416 c 256
EndSplineSet
EndChar

StartChar: ldot
Encoding: 320 320 301
Width: 348
VWidth: 0
Flags: HMW
LayerCount: 2
Fore
SplineSet
285 779 m 257
 338 780 l 257
 68 0 l 257
 20 0 l 257
 285 779 l 257
292 409 m 256
 296 425 322 446 339 444 c 256
 357 442 368 424 364 406 c 256
 360 390 334 369 317 371 c 256
 299 373 288 391 292 409 c 256
EndSplineSet
EndChar

StartChar: eth
Encoding: 240 240 302
Width: 526
VWidth: 0
Flags: HMW
LayerCount: 2
Fore
SplineSet
453 226 m 256
 483 311 449 407 348 407 c 256
 247 407 152 317 120 226 c 256
 90 142 116 42 219 41 c 256
 324 40 420 131 453 226 c 256
400 700 m 257
 508 377 l 258
 522 327 520 275 504 226 c 256
 464 103 345 -9 210 -9 c 256
 78 -9 31 114 68 227 c 256
 105 338 214 447 337 448 c 256
 386 448 419 427 448 389 c 257
 446 388 l 257
 338 700 l 257
 400 700 l 257
273 543 m 257
 286 584 l 257
 559 584 l 257
 545 543 l 257
 273 543 l 257
EndSplineSet
EndChar

StartChar: racute
Encoding: 341 341 303
Width: 302
VWidth: 0
Flags: HMW
LayerCount: 2
Fore
SplineSet
228 460 m 257
 69 0 l 257
 17 0 l 257
 177 460 l 257
 228 460 l 257
353 400 m 257
 338 410 323 420 304 421 c 256
 230 424 189 337 164 282 c 257
 140 282 l 257
 172 357 229 471 325 469 c 256
 352 469 371 456 392 440 c 257
 353 400 l 257
489 679 m 257
 270 531 l 257
 247 553 l 257
 450 709 l 257
 489 679 l 257
EndSplineSet
EndChar

StartChar: rcaron
Encoding: 345 345 304
Width: 302
VWidth: 0
Flags: HMW
LayerCount: 2
Fore
SplineSet
228 460 m 257
 69 0 l 257
 17 0 l 257
 177 460 l 257
 228 460 l 257
353 400 m 257
 338 410 323 420 304 421 c 256
 230 424 189 337 164 282 c 257
 140 282 l 257
 172 357 229 471 325 469 c 256
 352 469 371 456 392 440 c 257
 353 400 l 257
326 587 m 257
 485 696 l 257
 510 667 l 257
 313 530 l 257
 206 671 l 257
 245 697 l 257
 326 587 l 257
EndSplineSet
EndChar

StartChar: Rcaron
Encoding: 344 344 305
Width: 491
VWidth: 0
Flags: HMW
LayerCount: 2
Fore
SplineSet
250 334 m 257
 307 334 l 257
 418 0 l 257
 357 0 l 257
 250 334 l 257
262 699 m 257
 318 700 l 257
 77 0 l 257
 25 0 l 257
 262 699 l 257
272 651 m 257
 290 700 l 257
 411 700 l 256
 528 695 608 616 569 496 c 256
 529 372 405 299 279 294 c 257
 150 294 l 257
 168 343 l 257
 288 343 l 257
 386 348 482 402 516 497 c 256
 548 588 490 645 401 650 c 257
 272 651 l 257
453 826 m 257
 612 935 l 257
 638 907 l 257
 440 770 l 257
 334 910 l 257
 372 936 l 257
 453 826 l 257
EndSplineSet
EndChar

StartChar: uni0213
Encoding: 531 531 306
Width: 302
VWidth: 0
Flags: HMW
LayerCount: 2
Fore
SplineSet
228 460 m 257
 69 0 l 257
 17 0 l 257
 177 460 l 257
 228 460 l 257
353 400 m 257
 338 410 323 420 304 421 c 256
 230 424 189 337 164 282 c 257
 140 282 l 257
 172 357 229 471 325 469 c 256
 352 469 371 456 392 440 c 257
 353 400 l 257
163 538 m 257
 211 539 l 257
 242 590 286 634 350 634 c 256
 411 634 430 591 424 537 c 257
 460 538 l 257
 476 613 452 675 366 677 c 256
 274 679 205 613 163 538 c 257
EndSplineSet
EndChar

StartChar: uni0212
Encoding: 530 530 307
Width: 491
VWidth: 0
Flags: HMW
LayerCount: 2
Fore
SplineSet
250 334 m 257
 307 334 l 257
 418 0 l 257
 357 0 l 257
 250 334 l 257
262 699 m 257
 318 700 l 257
 77 0 l 257
 25 0 l 257
 262 699 l 257
272 651 m 257
 290 700 l 257
 411 700 l 256
 528 695 608 616 569 496 c 256
 529 372 405 299 279 294 c 257
 150 294 l 257
 168 343 l 257
 288 343 l 257
 386 348 482 402 516 497 c 256
 548 588 490 645 401 650 c 257
 272 651 l 257
310 770 m 257
 358 770 l 257
 389 821 433 865 497 865 c 256
 558 865 576 823 570 769 c 257
 607 769 l 257
 623 844 599 906 513 908 c 256
 421 910 352 845 310 770 c 257
EndSplineSet
EndChar

StartChar: OE
Encoding: 338 338 308
Width: 913
VWidth: 0
Flags: HMW
LayerCount: 2
Fore
SplineSet
580 359 m 257
 598 410 l 257
 912 410 l 257
 895 358 l 257
 580 359 l 257
661 679 m 257
 717 680 l 257
 488 20 l 257
 437 21 l 257
 661 679 l 257
808 51 m 257
 791 0 l 257
 317 0 l 256
 121 7 44 176 101 350 c 256
 164 541 343 694 547 700 c 256
 1030 700 l 257
 1011 648 l 257
 689 648 l 257
 673 648 l 257
 538 648 l 256
 364 642 211 511 155 350 c 256
 104 206 160 59 326 52 c 256
 458 52 l 257
 481 52 l 257
 808 51 l 257
EndSplineSet
EndChar

StartChar: oe
Encoding: 339 339 309
Width: 856
VWidth: 0
Flags: HMW
LayerCount: 2
Fore
SplineSet
799 250 m 257
 825 326 809 421 712 423 c 256
 608 425 528 336 487 250 c 257
 480 231 l 257
 452 147 462 43 572 40 c 256
 646 38 710 86 762 133 c 257
 796 104 l 257
 732 45 655 -10 564 -9 c 256
 432 -7 403 124 436 230 c 256
 441 247 448 263 456 279 c 256
 506 378 608 471 725 469 c 256
 850 467 880 343 849 242 c 256
 847 234 843 226 840 218 c 257
 791 231 l 257
 799 250 l 257
463 218 m 257
 477 261 l 257
 842 262 l 257
 840 217 l 257
 463 218 l 257
59 230 m 256
 98 349 213 470 346 469 c 256
 478 468 494 331 461 230 c 256
 423 115 321 -8 190 -9 c 256
 57 -10 24 123 59 230 c 256
111 230 m 256
 82 148 99 40 205 40 c 256
 307 40 393 141 425 230 c 256
 451 305 445 416 344 420 c 256
 237 424 144 323 111 230 c 256
EndSplineSet
EndChar

StartChar: a.alt
Encoding: 65536 -1 310
Width: 525
VWidth: 0
Flags: HMW
LayerCount: 2
Fore
SplineSet
511 459 m 257
 561 460 l 257
 401 0 l 257
 355 0 l 257
 511 459 l 257
59 230 m 256
 98 350 214 472 348 470 c 256
 478 468 487 326 455 230 c 256
 419 118 321 -8 192 -9 c 256
 58 -10 24 123 59 230 c 256
111 230 m 256
 82 147 101 39 207 40 c 256
 309 41 399 141 431 230 c 256
 457 306 444 416 345 420 c 256
 238 424 144 324 111 230 c 256
EndSplineSet
EndChar

StartChar: Jcircumflex
Encoding: 308 308 312
Width: 209
VWidth: 0
Flags: HMW
LayerCount: 2
Fore
SplineSet
-186 -127 m 257
 -167 -150 -148 -168 -115 -167 c 256
 -50 -166 -12 -104 9 -50 c 257
 266 700 l 257
 318 700 l 257
 58 -61 l 258
 28 -142 -33 -221 -128 -219 c 256
 -171 -218 -200 -198 -226 -167 c 257
 -186 -127 l 257
356 879 m 257
 196 771 l 257
 172 799 l 257
 369 936 l 257
 475 795 l 257
 437 770 l 257
 356 879 l 257
EndSplineSet
EndChar

StartChar: jcircumflex
Encoding: 309 309 313
Width: 208
VWidth: 0
Flags: HMW
LayerCount: 2
Fore
SplineSet
-149 -135 m 257
 -138 -151 -126 -167 -104 -168 c 256
 -50 -169 -19 -105 -2 -63 c 258
 178 460 l 257
 229 460 l 257
 49 -69 l 258
 23 -139 -32 -223 -118 -219 c 256
 -151 -218 -170 -199 -189 -175 c 257
 -149 -135 l 257
268 640 m 257
 109 531 l 257
 83 559 l 257
 281 696 l 257
 387 556 l 257
 350 531 l 257
 268 640 l 257
EndSplineSet
EndChar

StartChar: Nacute
Encoding: 323 323 314
Width: 687
VWidth: 0
Flags: HMW
LayerCount: 2
Fore
SplineSet
749 700 m 257
 803 700 l 257
 553 -26 l 257
 264 584 l 257
 62 0 l 257
 7 0 l 257
 257 726 l 257
 547 114 l 257
 749 700 l 257
752 904 m 257
 534 757 l 257
 510 778 l 257
 713 934 l 257
 752 904 l 257
EndSplineSet
EndChar

StartChar: nacute
Encoding: 324 324 315
Width: 474
VWidth: 0
Flags: HMW
LayerCount: 2
Fore
SplineSet
228 460 m 257
 69 0 l 257
 17 0 l 257
 177 460 l 257
 228 460 l 257
399 296 m 258
 416 351 417 417 344 420 c 256
 261 423 200 347 164 282 c 257
 146 282 l 257
 185 370 257 469 364 469 c 256
 463 469 474 379 451 302 c 257
 346 0 l 257
 297 0 l 257
 399 296 l 258
552 683 m 257
 335 535 l 257
 311 557 l 257
 514 713 l 257
 552 683 l 257
EndSplineSet
EndChar

StartChar: uni0145
Encoding: 325 325 316
Width: 687
VWidth: 0
Flags: HMW
LayerCount: 2
Fore
SplineSet
285 -41 m 257
 332 -62 l 257
 141 -307 l 257
 108 -294 l 257
 285 -41 l 257
749 700 m 257
 803 700 l 257
 553 -26 l 257
 264 584 l 257
 62 0 l 257
 7 0 l 257
 257 726 l 257
 547 114 l 257
 749 700 l 257
EndSplineSet
EndChar

StartChar: uni0146
Encoding: 326 326 317
Width: 474
VWidth: 0
Flags: HMW
LayerCount: 2
Fore
SplineSet
228 460 m 257
 69 0 l 257
 17 0 l 257
 177 460 l 257
 228 460 l 257
399 296 m 258
 416 351 417 417 344 420 c 256
 261 423 200 347 164 282 c 257
 141 282 l 257
 181 370 256 469 364 469 c 256
 463 469 474 379 451 302 c 257
 346 0 l 257
 297 0 l 257
 399 296 l 258
172 -54 m 257
 220 -75 l 257
 29 -320 l 257
 -5 -307 l 257
 172 -54 l 257
EndSplineSet
EndChar

StartChar: Ncaron
Encoding: 327 327 318
Width: 687
VWidth: 0
Flags: HMW
LayerCount: 2
Fore
SplineSet
582 840 m 257
 741 949 l 257
 766 920 l 257
 569 783 l 257
 463 924 l 257
 501 950 l 257
 582 840 l 257
749 700 m 257
 803 700 l 257
 553 -26 l 257
 264 584 l 257
 62 0 l 257
 7 0 l 257
 257 726 l 257
 547 114 l 257
 749 700 l 257
EndSplineSet
EndChar

StartChar: ncaron
Encoding: 328 328 319
Width: 474
VWidth: 0
Flags: HMW
LayerCount: 2
Fore
SplineSet
228 460 m 257
 69 0 l 257
 17 0 l 257
 177 460 l 257
 228 460 l 257
399 296 m 258
 416 351 417 417 344 420 c 256
 261 423 200 347 164 282 c 257
 141 282 l 257
 181 370 256 469 364 469 c 256
 463 469 474 379 451 302 c 257
 346 0 l 257
 297 0 l 257
 399 296 l 258
380 587 m 257
 539 696 l 257
 564 667 l 257
 367 530 l 257
 260 671 l 257
 298 697 l 257
 380 587 l 257
EndSplineSet
EndChar

StartChar: Omacron
Encoding: 332 332 320
Width: 737
VWidth: 0
Flags: HMW
LayerCount: 2
Fore
SplineSet
163 350 m 256
 115 213 157 49 326 47 c 256
 499 45 651 196 705 350 c 256
 753 487 711 651 542 653 c 256
 369 655 217 504 163 350 c 256
105 350 m 256
 166 536 348 710 552 709 c 256
 751 708 818 517 763 350 c 256
 702 164 520 -10 316 -9 c 256
 117 -8 50 183 105 350 c 256
415 778 m 257
 431 826 l 257
 763 826 l 257
 746 777 l 257
 415 778 l 257
EndSplineSet
EndChar

StartChar: omacron
Encoding: 333 333 321
Width: 517
VWidth: 0
Flags: HMW
LayerCount: 2
Fore
SplineSet
59 230 m 256
 99 354 225 469 361 469 c 256
 494 469 544 344 507 230 c 256
 467 106 341 -9 205 -9 c 256
 72 -9 22 116 59 230 c 256
111 230 m 256
 80 144 109 41 214 40 c 256
 322 39 421 133 455 230 c 256
 486 316 457 419 352 420 c 256
 244 421 145 327 111 230 c 256
224 539 m 257
 240 587 l 257
 571 587 l 257
 555 538 l 257
 224 539 l 257
EndSplineSet
EndChar

StartChar: Obreve
Encoding: 334 334 322
Width: 737
VWidth: 0
Flags: HMW
LayerCount: 2
Fore
SplineSet
163 350 m 256
 115 213 157 49 326 47 c 256
 499 45 651 196 705 350 c 256
 753 487 711 651 542 653 c 256
 369 655 217 504 163 350 c 256
105 350 m 256
 166 536 348 710 552 709 c 256
 751 708 818 517 763 350 c 256
 702 164 520 -10 316 -9 c 256
 117 -8 50 183 105 350 c 256
475 909 m 257
 519 909 l 257
 512 857 528 814 588 813 c 256
 652 812 697 858 729 908 c 257
 775 907 l 257
 736 832 669 770 580 770 c 256
 493 770 463 831 475 909 c 257
EndSplineSet
EndChar

StartChar: obreve
Encoding: 335 335 323
Width: 517
VWidth: 0
Flags: HMW
LayerCount: 2
Fore
SplineSet
59 230 m 256
 99 354 225 469 361 469 c 256
 494 469 544 344 507 230 c 256
 467 106 341 -9 205 -9 c 256
 72 -9 22 116 59 230 c 256
111 230 m 256
 80 144 109 41 214 40 c 256
 322 39 421 133 455 230 c 256
 486 316 457 419 352 420 c 256
 244 421 145 327 111 230 c 256
284 670 m 257
 328 669 l 257
 321 617 336 575 396 574 c 256
 460 573 505 619 537 669 c 257
 583 668 l 257
 544 593 478 531 389 531 c 256
 302 531 272 592 284 670 c 257
EndSplineSet
EndChar

StartChar: Racute
Encoding: 340 340 324
Width: 491
VWidth: 0
Flags: HMW
LayerCount: 2
Fore
SplineSet
250 334 m 257
 307 334 l 257
 418 0 l 257
 357 0 l 257
 250 334 l 257
262 699 m 257
 318 700 l 257
 77 0 l 257
 25 0 l 257
 262 699 l 257
272 651 m 257
 290 700 l 257
 411 700 l 256
 528 695 608 616 569 496 c 256
 529 372 405 299 279 294 c 257
 150 294 l 257
 168 343 l 257
 288 343 l 257
 386 348 482 402 516 497 c 256
 548 588 490 645 401 650 c 257
 272 651 l 257
627 918 m 257
 409 771 l 257
 384 792 l 257
 588 948 l 257
 627 918 l 257
EndSplineSet
EndChar

StartChar: uni0156
Encoding: 342 342 325
Width: 491
VWidth: 0
Flags: HMW
LayerCount: 2
Fore
SplineSet
250 334 m 257
 307 334 l 257
 418 0 l 257
 357 0 l 257
 250 334 l 257
262 699 m 257
 318 700 l 257
 77 0 l 257
 25 0 l 257
 262 699 l 257
272 651 m 257
 290 700 l 257
 411 700 l 256
 528 695 608 616 569 496 c 256
 529 372 405 299 279 294 c 257
 150 294 l 257
 168 343 l 257
 288 343 l 257
 386 348 482 402 516 497 c 256
 548 588 490 645 401 650 c 257
 272 651 l 257
200 -62 m 257
 248 -83 l 257
 58 -328 l 257
 24 -315 l 257
 200 -62 l 257
EndSplineSet
EndChar

StartChar: uni0157
Encoding: 343 343 326
Width: 302
VWidth: 0
Flags: HMW
LayerCount: 2
Fore
SplineSet
228 460 m 257
 69 0 l 257
 17 0 l 257
 177 460 l 257
 228 460 l 257
353 400 m 257
 338 410 323 420 304 421 c 256
 230 424 189 337 164 282 c 257
 140 282 l 257
 172 357 229 471 325 469 c 256
 352 469 371 456 392 440 c 257
 353 400 l 257
27 -62 m 257
 74 -83 l 257
 -116 -328 l 257
 -150 -315 l 257
 27 -62 l 257
EndSplineSet
EndChar

StartChar: Scedilla
Encoding: 350 350 327
Width: 492
VWidth: 0
Flags: HMW
LayerCount: 2
Fore
SplineSet
100 214 m 257
 104 137 123 45 219 44 c 256
 302 43 377 103 404 180 c 256
 433 263 377 312 309 346 c 256
 230 385 171 443 201 539 c 256
 232 636 334 708 436 708 c 256
 530 708 569 638 580 555 c 257
 529 528 l 257
 521 592 496 654 421 655 c 256
 351 656 279 603 256 537 c 256
 228 456 300 416 361 385 c 256
 442 344 490 276 461 183 c 256
 428 75 321 -9 206 -8 c 256
 92 -7 54 90 47 188 c 257
 100 214 l 257
219 33 m 257
 260 33 l 257
 168 -62 l 257
 178 -58 190 -52 201 -53 c 256
 239 -59 258 -92 248 -129 c 256
 234 -181 169 -220 117 -220 c 256
 84 -220 64 -203 42 -181 c 257
 71 -157 l 257
 86 -171 101 -184 124 -184 c 256
 156 -184 202 -158 211 -126 c 256
 218 -101 202 -82 178 -80 c 256
 154 -77 126 -90 104 -99 c 257
 219 33 l 257
EndSplineSet
EndChar

StartChar: scedilla
Encoding: 351 351 328
Width: 379
VWidth: 0
Flags: HMW
LayerCount: 2
Fore
SplineSet
66 156 m 257
 71 103 87 42 152 40 c 256
 200 38 256 74 272 121 c 256
 290 174 244 201 203 220 c 256
 146 248 97 281 120 352 c 256
 143 422 219 469 291 469 c 256
 355 469 390 432 408 375 c 257
 361 351 l 257
 348 389 327 420 282 421 c 256
 239 422 185 396 170 353 c 256
 150 298 207 277 247 259 c 256
 303 233 344 190 325 125 c 256
 302 47 223 -9 143 -8 c 256
 57 -7 26 60 19 133 c 257
 66 156 l 257
155 33 m 257
 197 33 l 257
 104 -62 l 257
 113 -58 125 -53 136 -54 c 256
 175 -60 193 -91 184 -129 c 256
 171 -182 105 -221 53 -220 c 256
 20 -219 1 -203 -21 -181 c 257
 7 -157 l 257
 22 -171 37 -184 60 -184 c 256
 92 -184 138 -159 147 -127 c 256
 154 -102 137 -82 113 -80 c 256
 89 -77 63 -91 41 -100 c 257
 155 33 l 257
EndSplineSet
EndChar

StartChar: Zcaron
Encoding: 381 381 329
Width: 508
VWidth: 0
Flags: HMW
LayerCount: 2
Fore
SplineSet
200 648 m 257
 219 700 l 257
 680 699 l 257
 71 53 l 257
 443 52 l 257
 424 0 l 257
 -42 0 l 257
 568 647 l 257
 200 648 l 257
487 826 m 257
 646 935 l 257
 672 907 l 257
 474 770 l 257
 368 910 l 257
 406 936 l 257
 487 826 l 257
EndSplineSet
EndChar

StartChar: zcaron
Encoding: 382 382 330
Width: 420
VWidth: 0
Flags: HMW
LayerCount: 2
Fore
SplineSet
363 587 m 257
 523 696 l 257
 547 667 l 257
 350 530 l 257
 244 671 l 257
 282 697 l 257
 363 587 l 257
395 410 m 257
 125 411 l 257
 142 460 l 257
 508 459 l 257
 70 50 l 257
 358 49 l 257
 341 0 l 257
 -42 0 l 257
 395 410 l 257
EndSplineSet
EndChar

StartChar: Ydieresis
Encoding: 376 376 331
Width: 507
VWidth: 0
Flags: HMW
LayerCount: 2
Fore
SplineSet
349 808 m 256
 353 824 378 845 395 843 c 256
 413 841 425 823 421 805 c 256
 417 789 390 768 373 770 c 256
 354 772 345 791 349 808 c 256
529 808 m 256
 533 824 559 845 576 843 c 256
 594 841 606 823 602 805 c 256
 598 789 571 768 554 770 c 256
 535 772 525 791 529 808 c 256
623 699 m 257
 687 699 l 257
 322 285 l 257
 224 0 l 257
 169 0 l 257
 271 291 l 257
 194 700 l 257
 251 700 l 257
 311 340 l 257
 623 699 l 257
EndSplineSet
EndChar

StartChar: Scaron
Encoding: 352 352 332
Width: 492
VWidth: 0
Flags: HMW
LayerCount: 2
Fore
SplineSet
100 214 m 257
 104 137 123 45 219 44 c 256
 302 43 377 103 404 180 c 256
 433 263 377 311 309 346 c 256
 231 386 171 449 201 542 c 256
 232 638 336 709 436 708 c 256
 529 707 571 638 580 555 c 257
 529 528 l 257
 522 591 501 653 427 655 c 256
 356 656 279 604 256 537 c 256
 228 457 300 416 361 385 c 256
 442 344 489 276 460 183 c 256
 427 74 322 -9 206 -8 c 256
 92 -7 54 90 47 188 c 257
 100 214 l 257
477 830 m 257
 636 939 l 257
 662 911 l 257
 464 774 l 257
 358 914 l 257
 396 940 l 257
 477 830 l 257
EndSplineSet
EndChar

StartChar: scaron
Encoding: 353 353 333
Width: 379
VWidth: 0
Flags: HMW
LayerCount: 2
Fore
SplineSet
68 155 m 257
 67 98 81 41 149 40 c 256
 199 39 256 73 272 121 c 256
 291 175 244 201 203 221 c 256
 148 248 98 285 121 354 c 256
 143 423 221 468 291 468 c 256
 355 468 393 433 408 374 c 257
 361 350 l 257
 347 387 327 419 282 419 c 256
 239 419 183 392 169 349 c 256
 151 296 207 274 246 256 c 256
 299 230 343 188 325 124 c 256
 303 44 218 -11 137 -9 c 256
 51 -8 19 56 19 132 c 257
 68 155 l 257
331 587 m 257
 490 696 l 257
 516 667 l 257
 318 530 l 257
 211 671 l 257
 250 697 l 257
 331 587 l 257
EndSplineSet
EndChar

StartChar: Lslash
Encoding: 321 321 334
Width: 394
VWidth: 0
Flags: HMW
LayerCount: 2
Fore
SplineSet
68 360 m 257
 66 397 l 257
 378 564 l 257
 381 527 l 257
 68 360 l 257
260 700 m 257
 315 700 l 257
 92 52 l 257
 351 52 l 257
 332 0 l 257
 19 0 l 257
 260 700 l 257
EndSplineSet
EndChar

StartChar: lslash
Encoding: 322 322 335
Width: 189
VWidth: 0
Flags: HMW
LayerCount: 2
Fore
SplineSet
69 360 m 257
 66 397 l 257
 326 544 l 257
 329 507 l 257
 69 360 l 257
282 779 m 257
 334 780 l 257
 65 0 l 257
 16 0 l 257
 282 779 l 257
EndSplineSet
EndChar

StartChar: uni0218
Encoding: 536 536 336
Width: 492
VWidth: 0
Flags: HMW
LayerCount: 2
Fore
SplineSet
100 214 m 257
 104 137 123 45 219 44 c 256
 302 43 377 103 404 180 c 256
 433 263 377 311 309 346 c 256
 231 386 171 449 201 542 c 256
 232 638 336 709 436 708 c 256
 529 707 571 638 580 555 c 257
 529 528 l 257
 522 591 501 653 427 655 c 256
 356 656 279 604 256 537 c 256
 228 457 300 416 361 385 c 256
 442 344 490 276 461 183 c 256
 428 74 322 -9 206 -8 c 256
 92 -7 54 90 47 188 c 257
 100 214 l 257
200 -71 m 257
 247 -92 l 257
 57 -337 l 257
 23 -324 l 257
 200 -71 l 257
EndSplineSet
EndChar

StartChar: uni0219
Encoding: 537 537 337
Width: 379
VWidth: 0
Flags: HMW
LayerCount: 2
Fore
SplineSet
68 155 m 257
 67 98 80 41 148 40 c 256
 198 39 256 73 272 121 c 256
 291 175 244 201 203 221 c 256
 148 248 98 285 121 354 c 256
 143 423 221 468 291 468 c 256
 355 468 393 433 408 374 c 257
 361 350 l 257
 347 387 327 419 282 419 c 256
 239 419 183 392 169 349 c 256
 151 296 207 274 246 256 c 256
 299 230 343 188 325 124 c 256
 303 44 218 -11 137 -9 c 256
 51 -8 19 56 19 132 c 257
 68 155 l 257
131 -72 m 257
 177 -93 l 257
 -13 -338 l 257
 -47 -325 l 257
 131 -72 l 257
EndSplineSet
EndChar

StartChar: pi
Encoding: 960 960 338
Width: 481
VWidth: 0
Flags: HMW
LayerCount: 2
Fore
SplineSet
178 437 m 257
 232 438 l 257
 79 0 l 257
 30 0 l 257
 178 437 l 257
130 460 m 257
 548 460 l 257
 531 411 l 257
 113 411 l 257
 130 460 l 257
415 438 m 257
 467 438 l 257
 360 133 l 257
 347 90 337 63 380 43 c 257
 363 -8 l 257
 288 7 285 52 306 121 c 257
 415 438 l 257
EndSplineSet
EndChar

StartChar: trademark
Encoding: 8482 8482 339
Width: 625
VWidth: 0
Flags: HMW
LayerCount: 2
Fore
SplineSet
208 674 m 257
 216 699 l 257
 417 699 l 257
 409 674 l 257
 321 674 l 257
 210 351 l 257
 183 351 l 257
 293 674 l 257
 208 674 l 257
702 636 m 257
 751 720 l 257
 660 350 l 257
 633 351 l 257
 702 636 l 257
484 712 m 257
 474 632 l 257
 347 351 l 257
 320 352 l 257
 484 712 l 257
752 719 m 257
 726 650 l 257
 504 389 l 257
 464 658 l 257
 483 713 l 257
 520 447 l 257
 752 719 l 257
EndSplineSet
EndChar

StartChar: uni2219
Encoding: 8729 8729 340
Width: 266
VWidth: 0
Flags: HMW
LayerCount: 2
Fore
SplineSet
190 430 m 256
 194 446 220 467 237 465 c 256
 255 463 265 445 261 427 c 256
 257 411 231 390 214 392 c 256
 196 394 186 412 190 430 c 256
EndSplineSet
EndChar

StartChar: agrave.alt
Encoding: 65537 -1 341
Width: 525
VWidth: 0
Flags: HMW
LayerCount: 2
Fore
SplineSet
511 459 m 257
 561 460 l 257
 401 0 l 257
 355 0 l 257
 511 459 l 257
59 230 m 256
 98 350 214 472 348 470 c 256
 478 468 487 326 455 230 c 256
 419 118 321 -8 192 -9 c 256
 58 -10 24 123 59 230 c 256
111 230 m 256
 82 147 101 39 207 40 c 256
 309 41 399 141 431 230 c 256
 457 306 444 416 345 420 c 256
 238 424 144 324 111 230 c 256
304 688 m 257
 357 714 l 257
 454 553 l 257
 423 534 l 257
 304 688 l 257
EndSplineSet
EndChar

StartChar: aacute.alt
Encoding: 65538 -1 342
Width: 525
VWidth: 0
Flags: HMW
LayerCount: 2
Fore
SplineSet
511 459 m 257
 561 460 l 257
 401 1 l 257
 355 0 l 257
 511 459 l 257
59 230 m 256
 98 350 214 472 348 470 c 256
 478 468 487 326 455 230 c 256
 419 118 321 -8 192 -9 c 256
 58 -10 24 123 59 230 c 256
111 230 m 256
 82 147 101 39 207 40 c 256
 309 41 399 141 431 230 c 256
 457 306 444 416 345 420 c 256
 238 424 144 324 111 230 c 256
537 683 m 257
 318 536 l 257
 294 557 l 257
 497 713 l 257
 537 683 l 257
EndSplineSet
EndChar

StartChar: acircumflex.alt
Encoding: 65539 -1 343
Width: 525
VWidth: 0
Flags: HMW
LayerCount: 2
Fore
SplineSet
511 459 m 257
 561 460 l 257
 401 0 l 257
 355 0 l 257
 511 459 l 257
59 230 m 256
 98 350 214 472 348 470 c 256
 478 468 487 326 455 230 c 256
 419 118 321 -8 192 -9 c 256
 58 -10 24 123 59 230 c 256
111 230 m 256
 82 147 101 39 207 40 c 256
 309 41 399 141 431 230 c 256
 457 306 444 416 345 420 c 256
 238 424 144 324 111 230 c 256
428 648 m 257
 269 539 l 257
 243 567 l 257
 441 704 l 257
 547 564 l 257
 509 539 l 257
 428 648 l 257
EndSplineSet
EndChar

StartChar: atilde.alt
Encoding: 65540 -1 344
Width: 525
VWidth: 0
Flags: HMW
LayerCount: 2
Fore
SplineSet
511 459 m 257
 561 460 l 257
 401 0 l 257
 355 0 l 257
 511 459 l 257
59 230 m 256
 98 350 214 472 348 470 c 256
 478 468 487 326 455 230 c 256
 419 118 321 -8 192 -9 c 256
 58 -10 24 123 59 230 c 256
111 230 m 256
 82 147 101 39 207 40 c 256
 309 41 399 141 431 230 c 256
 457 306 444 416 345 420 c 256
 238 424 144 324 111 230 c 256
252 563 m 257
 265 597 322 632 357 632 c 256
 396 632 418 584 458 587 c 256
 486 589 509 615 528 633 c 257
 552 605 l 257
 526 578 489 541 447 543 c 256
 409 545 388 590 349 588 c 256
 318 586 298 561 281 539 c 257
 252 563 l 257
EndSplineSet
EndChar

StartChar: adieresis.alt
Encoding: 65541 -1 345
Width: 525
VWidth: 0
Flags: HMW
LayerCount: 2
Fore
SplineSet
511 459 m 257
 561 460 l 257
 401 0 l 257
 355 0 l 257
 511 459 l 257
59 230 m 256
 98 350 214 472 348 470 c 256
 478 468 487 326 455 230 c 256
 419 118 321 -8 192 -9 c 256
 58 -10 24 123 59 230 c 256
111 230 m 256
 82 147 101 39 207 40 c 256
 309 41 399 141 431 230 c 256
 457 306 444 416 345 420 c 256
 238 424 144 324 111 230 c 256
465 589 m 256
 469 605 495 626 512 624 c 256
 530 622 541 604 537 586 c 256
 533 570 506 549 489 551 c 256
 471 553 461 571 465 589 c 256
277 589 m 256
 281 605 307 626 324 624 c 256
 342 622 352 604 348 586 c 256
 344 570 318 549 301 551 c 256
 283 553 273 571 277 589 c 256
EndSplineSet
EndChar

StartChar: aring.alt
Encoding: 65542 -1 346
Width: 525
VWidth: 0
Flags: HMW
LayerCount: 2
Fore
SplineSet
511 459 m 257
 561 460 l 257
 401 0 l 257
 355 0 l 257
 511 459 l 257
59 230 m 256
 98 350 214 472 348 470 c 256
 478 468 487 326 455 230 c 256
 419 118 321 -8 192 -9 c 256
 58 -10 24 123 59 230 c 256
111 230 m 256
 82 147 101 39 207 40 c 256
 309 41 399 141 431 230 c 256
 457 306 444 416 345 420 c 256
 238 424 144 324 111 230 c 256
289 630 m 256
 305 680 363 729 417 728 c 256
 471 727 498 677 483 628 c 256
 467 578 408 529 354 530 c 256
 300 531 274 581 289 630 c 256
322 629 m 256
 313 600 327 564 360 563 c 256
 394 562 440 599 450 630 c 256
 459 659 445 695 412 696 c 256
 377 697 332 660 322 629 c 256
EndSplineSet
EndChar

StartChar: amacron.alt
Encoding: 65543 -1 347
Width: 525
VWidth: 0
Flags: HMW
LayerCount: 2
Fore
SplineSet
511 459 m 257
 561 460 l 257
 401 0 l 257
 355 0 l 257
 511 459 l 257
59 230 m 256
 98 350 214 472 348 470 c 256
 478 468 487 326 455 230 c 256
 419 118 321 -8 192 -9 c 256
 58 -10 24 123 59 230 c 256
111 230 m 256
 82 147 101 39 207 40 c 256
 309 41 399 141 431 230 c 256
 457 306 444 416 345 420 c 256
 238 424 144 324 111 230 c 256
216 551 m 257
 232 599 l 257
 564 599 l 257
 547 550 l 257
 216 551 l 257
EndSplineSet
EndChar

StartChar: abreve.alt
Encoding: 65544 -1 348
Width: 525
VWidth: 0
Flags: HMW
LayerCount: 2
Fore
SplineSet
511 459 m 257
 561 460 l 257
 401 0 l 257
 355 0 l 257
 511 459 l 257
59 230 m 256
 98 350 214 472 348 470 c 256
 478 468 487 326 455 230 c 256
 419 118 321 -8 192 -9 c 256
 58 -10 24 123 59 230 c 256
111 230 m 256
 82 147 101 39 207 40 c 256
 309 41 399 141 431 230 c 256
 457 306 444 416 345 420 c 256
 238 424 144 324 111 230 c 256
249 677 m 257
 293 677 l 257
 287 625 303 582 363 581 c 256
 427 580 472 625 503 676 c 257
 549 675 l 257
 512 599 446 538 357 538 c 256
 271 538 238 599 249 677 c 257
EndSplineSet
EndChar

StartChar: aogonek.alt
Encoding: 65545 -1 349
Width: 525
VWidth: 0
Flags: HMW
LayerCount: 2
Fore
SplineSet
511 459 m 257
 561 460 l 257
 401 1 l 257
 355 0 l 257
 511 459 l 257
59 230 m 256
 98 350 214 472 348 470 c 256
 478 468 487 326 455 230 c 256
 419 118 321 -8 192 -9 c 256
 58 -10 24 123 59 230 c 256
111 230 m 256
 82 147 101 39 207 40 c 256
 309 41 399 141 431 230 c 256
 457 306 444 416 345 420 c 256
 238 424 144 324 111 230 c 256
366 -148 m 257
 377 -183 l 257
 347 -202 316 -219 279 -219 c 256
 224 -220 183 -185 199 -127 c 256
 221 -51 315 -12 380 18 c 257
 403 0 l 257
 354 -26 269 -55 253 -116 c 256
 245 -147 262 -170 293 -173 c 256
 318 -175 345 -160 366 -148 c 257
EndSplineSet
EndChar

StartChar: dagger
Encoding: 8224 8224 350
Width: 509
VWidth: 0
Flags: HMW
LayerCount: 2
Fore
SplineSet
216 540 m 257
 559 540 l 257
 543 491 l 257
 200 491 l 257
 216 540 l 257
411 700 m 257
 463 700 l 257
 199 -150 l 257
 150 -149 l 257
 411 700 l 257
EndSplineSet
EndChar

StartChar: daggerdbl
Encoding: 8225 8225 351
Width: 509
VWidth: 0
Flags: HMW
LayerCount: 2
Fore
SplineSet
86 120 m 257
 430 120 l 257
 414 71 l 257
 71 71 l 257
 86 120 l 257
216 540 m 257
 559 540 l 257
 543 491 l 257
 200 491 l 257
 216 540 l 257
411 700 m 257
 463 700 l 257
 199 -150 l 257
 150 -149 l 257
 411 700 l 257
EndSplineSet
EndChar

StartChar: ellipsis
Encoding: 8230 8230 352
Width: 813
VWidth: 0
Flags: HMW
LayerCount: 2
Fore
SplineSet
52 26 m 256
 56 42 82 63 99 61 c 256
 117 59 128 41 124 23 c 256
 120 7 94 -14 77 -12 c 256
 59 -10 48 8 52 26 c 256
325 26 m 256
 329 42 355 63 372 61 c 256
 390 59 401 41 397 23 c 256
 393 7 367 -14 350 -12 c 256
 332 -10 321 8 325 26 c 256
598 26 m 256
 602 42 628 63 645 61 c 256
 663 59 674 41 670 23 c 256
 666 7 640 -14 623 -12 c 256
 605 -10 594 8 598 26 c 256
EndSplineSet
EndChar

StartChar: uniFF10
Encoding: 65296 65296 353
Width: 533
VWidth: 0
Flags: HMW
LayerCount: 2
Fore
SplineSet
156 350 m 256
 126 264 73 46 223 43 c 256
 373 40 468 231 509 350 c 256
 539 436 592 654 442 657 c 256
 292 660 197 469 156 350 c 256
102 350 m 256
 151 498 270 710 451 709 c 256
 636 708 602 467 563 350 c 256
 514 202 394 -10 213 -9 c 256
 28 -8 63 233 102 350 c 256
EndSplineSet
EndChar

StartChar: uniFF11
Encoding: 65297 65297 354
Width: 533
VWidth: 0
Flags: HMW
LayerCount: 2
Fore
SplineSet
275 599 m 257
 296 658 l 257
 520 709 l 257
 276 0 l 257
 222 0 l 257
 442 639 l 257
 275 599 l 257
EndSplineSet
EndChar

StartChar: uniFF12
Encoding: 65298 65298 355
Width: 533
VWidth: 0
Flags: HMW
LayerCount: 2
Fore
SplineSet
-24 0 m 257
 398 345 l 258
 453 390 511 442 535 511 c 256
 560 581 533 655 451 658 c 256
 337 661 261 553 219 461 c 257
 166 462 l 257
 217 583 315 712 461 710 c 256
 575 709 621 607 588 507 c 256
 562 428 498 366 436 315 c 258
 105 53 l 257
 446 52 l 257
 428 0 l 257
 -24 0 l 257
EndSplineSet
EndChar

StartChar: uniFF13
Encoding: 65299 65299 356
Width: 533
VWidth: 0
Flags: HMW
LayerCount: 2
Fore
SplineSet
311 353 m 257
 322 388 l 257
 407 400 497 439 529 526 c 256
 552 590 528 657 453 659 c 256
 369 661 309 594 272 527 c 257
 220 528 l 257
 265 625 348 710 462 709 c 256
 563 708 615 620 584 527 c 256
 546 411 423 362 311 353 c 257
221 -9 m 256
 103 -9 52 77 75 185 c 257
 129 184 l 257
 114 105 141 44 230 43 c 256
 316 42 404 105 432 187 c 256
 465 283 391 328 307 339 c 257
 318 374 l 257
 428 365 524 304 484 180 c 256
 448 70 336 -9 221 -9 c 256
EndSplineSet
EndChar

StartChar: uniFF14
Encoding: 65300 65300 357
Width: 533
VWidth: 0
Flags: HMW
LayerCount: 2
Fore
SplineSet
9 141 m 257
 70 188 l 257
 377 189 l 257
 389 189 l 257
 518 189 l 257
 501 140 l 257
 9 141 l 257
70 142 m 257
 9 141 l 257
 565 698 l 257
 588 699 l 257
 348 0 l 257
 294 0 l 257
 351 162 l 257
 353 171 l 257
 490 565 l 257
 70 142 l 257
EndSplineSet
EndChar

StartChar: uniFF15
Encoding: 65301 65301 358
Width: 533
VWidth: 0
Flags: HMW
LayerCount: 2
Fore
SplineSet
509 230 m 256
 468 101 346 -9 206 -9 c 256
 109 -9 55 49 33 138 c 257
 85 168 l 257
 100 98 138 44 216 43 c 256
 325 42 418 131 453 230 c 256
 482 311 456 403 358 407 c 256
 281 411 211 369 149 330 c 257
 199 380 l 257
 249 425 320 458 388 457 c 256
 513 455 541 331 509 230 c 256
390 651 m 257
 238 392 l 257
 142 323 l 257
 362 699 l 257
 675 700 l 257
 659 652 l 257
 390 651 l 257
EndSplineSet
EndChar

StartChar: uniFF16
Encoding: 65302 65302 359
Width: 533
VWidth: 0
Flags: HMW
LayerCount: 2
Fore
SplineSet
124 226 m 256
 94 142 120 42 223 41 c 256
 328 40 424 131 457 226 c 256
 485 307 459 405 360 407 c 256
 256 409 158 320 124 226 c 256
497 699 m 257
 568 699 l 257
 244 390 l 257
 239 395 l 257
 283 425 330 449 385 448 c 256
 505 445 539 324 508 225 c 256
 469 101 348 -9 213 -9 c 256
 80 -9 36 113 73 226 c 256
 92 283 127 334 168 377 c 258
 497 699 l 257
EndSplineSet
EndChar

StartChar: uniFF17
Encoding: 65303 65303 360
Width: 533
VWidth: 0
Flags: HMW
LayerCount: 2
Fore
SplineSet
218 648 m 257
 236 700 l 257
 694 699 l 257
 124 0 l 257
 65 0 l 257
 592 647 l 257
 218 648 l 257
EndSplineSet
EndChar

StartChar: uniFF18
Encoding: 65304 65304 361
Width: 533
VWidth: 0
Flags: HMW
LayerCount: 2
Fore
SplineSet
221 536 m 256
 251 629 351 710 451 709 c 256
 547 708 599 622 571 534 c 256
 541 439 441 361 340 361 c 256
 242 361 192 446 221 536 c 256
269 529 m 256
 249 470 274 399 344 397 c 256
 417 395 494 463 518 529 c 256
 540 590 515 658 443 660 c 256
 369 662 293 597 269 529 c 256
80 189 m 256
 115 295 227 383 340 382 c 256
 449 382 506 288 474 187 c 256
 440 79 327 -10 213 -9 c 256
 103 -8 48 89 80 189 c 256
133 194 m 256
 106 120 136 42 222 40 c 256
 310 38 398 113 426 194 c 256
 450 264 417 344 335 346 c 256
 250 348 161 271 133 194 c 256
EndSplineSet
EndChar

StartChar: uniFF19
Encoding: 65305 65305 362
Width: 533
VWidth: 0
Flags: HMW
LayerCount: 2
Fore
SplineSet
541 474 m 256
 571 558 546 658 443 659 c 256
 338 660 241 569 208 474 c 256
 180 393 206 295 305 293 c 256
 409 291 507 380 541 474 c 256
168 0 m 257
 97 0 l 257
 420 310 l 257
 426 305 l 257
 382 275 336 251 281 252 c 256
 161 255 126 376 157 475 c 256
 196 599 316 709 451 709 c 256
 584 709 630 587 593 474 c 256
 574 417 537 366 496 323 c 258
 168 0 l 257
EndSplineSet
EndChar

StartChar: caron
Encoding: 711 711 363
Width: 451
VWidth: 0
Flags: HMW
LayerCount: 2
Fore
SplineSet
382 627 m 257
 540 736 l 257
 566 707 l 257
 369 570 l 257
 262 711 l 257
 300 737 l 257
 382 627 l 257
EndSplineSet
EndChar

StartChar: napostrophe
Encoding: 329 329 364
Width: 589
VWidth: 0
Flags: HMW
LayerCount: 2
Fore
SplineSet
324 460 m 257
 165 0 l 257
 114 0 l 257
 273 460 l 257
 324 460 l 257
495 296 m 258
 512 351 513 417 440 420 c 256
 357 423 297 347 261 282 c 257
 237 282 l 257
 277 370 352 469 460 469 c 256
 559 469 570 379 547 302 c 257
 442 0 l 257
 393 0 l 257
 495 296 l 258
322 699 m 257
 386 699 l 257
 211 472 l 257
 174 472 l 257
 322 699 l 257
EndSplineSet
EndChar

StartChar: IJ
Encoding: 306 306 365
Width: 461
VWidth: 0
Flags: HMW
LayerCount: 2
Fore
SplineSet
49 -127 m 257
 68 -150 88 -168 121 -167 c 256
 186 -166 223 -104 244 -50 c 257
 501 700 l 257
 553 700 l 257
 293 -61 l 258
 263 -142 203 -221 108 -219 c 256
 65 -218 35 -198 9 -167 c 257
 49 -127 l 257
261 699 m 257
 316 700 l 257
 74 0 l 257
 23 0 l 257
 261 699 l 257
EndSplineSet
EndChar

StartChar: ij
Encoding: 307 307 366
Width: 479
VWidth: 0
Flags: HMW
LayerCount: 2
Fore
SplineSet
482 669 m 256
 486 685 513 706 530 704 c 256
 548 702 558 685 554 667 c 256
 550 651 524 630 507 632 c 256
 489 634 478 651 482 669 c 256
95 -135 m 257
 108 -135 124 -166 141 -168 c 256
 193 -174 227 -102 242 -63 c 258
 423 460 l 257
 474 460 l 257
 293 -69 l 258
 267 -139 213 -223 127 -219 c 256
 94 -218 76 -199 56 -175 c 257
 95 -135 l 257
247 669 m 256
 251 685 277 706 294 704 c 256
 312 702 323 685 319 667 c 256
 315 651 289 630 272 632 c 256
 254 634 243 651 247 669 c 256
186 459 m 257
 239 460 l 257
 79 0 l 257
 30 0 l 257
 186 459 l 257
EndSplineSet
EndChar

StartChar: uni0237
Encoding: 567 567 367
Width: 208
VWidth: 0
Flags: HMW
LayerCount: 2
Fore
SplineSet
-149 -135 m 257
 -138 -151 -126 -167 -104 -168 c 256
 -50 -169 -19 -105 -2 -63 c 258
 178 460 l 257
 229 460 l 257
 49 -69 l 258
 23 -139 -32 -223 -118 -219 c 256
 -151 -218 -170 -199 -189 -175 c 257
 -149 -135 l 257
EndSplineSet
EndChar

StartChar: Sacute
Encoding: 346 346 368
Width: 492
VWidth: 0
Flags: HMW
LayerCount: 2
Fore
SplineSet
100 214 m 257
 104 137 123 45 219 44 c 256
 302 43 377 103 404 180 c 256
 433 263 377 311 309 346 c 256
 231 386 171 449 201 542 c 256
 232 638 336 709 436 708 c 256
 529 707 571 638 580 555 c 257
 529 528 l 257
 522 591 501 653 427 655 c 256
 356 656 279 604 256 537 c 256
 228 457 300 416 361 385 c 256
 442 344 490 276 461 183 c 256
 428 74 322 -9 206 -8 c 256
 92 -7 54 90 47 188 c 257
 100 214 l 257
674 918 m 257
 456 771 l 257
 432 792 l 257
 634 948 l 257
 674 918 l 257
EndSplineSet
EndChar

StartChar: sacute
Encoding: 347 347 369
Width: 379
VWidth: 0
Flags: HMW
LayerCount: 2
Fore
SplineSet
68 155 m 257
 67 98 80 41 148 40 c 256
 198 39 256 73 272 121 c 256
 291 175 244 201 203 221 c 256
 148 248 98 285 121 354 c 256
 143 423 221 468 291 468 c 256
 355 468 393 433 408 374 c 257
 361 350 l 257
 347 387 327 419 282 419 c 256
 239 419 183 392 169 349 c 256
 151 296 207 274 246 256 c 256
 299 230 343 188 325 124 c 256
 303 44 218 -11 137 -9 c 256
 51 -8 19 56 19 132 c 257
 68 155 l 257
529 679 m 257
 312 532 l 257
 287 553 l 257
 489 709 l 257
 529 679 l 257
EndSplineSet
EndChar

StartChar: Scircumflex
Encoding: 348 348 370
Width: 492
VWidth: 0
Flags: HMW
LayerCount: 2
Fore
SplineSet
100 214 m 257
 104 137 123 45 219 44 c 256
 302 43 377 103 404 180 c 256
 433 263 377 311 309 346 c 256
 231 386 171 449 201 542 c 256
 232 638 336 709 436 708 c 256
 529 707 571 638 580 555 c 257
 529 528 l 257
 522 591 501 653 427 655 c 256
 356 656 279 604 256 537 c 256
 228 457 300 416 361 385 c 256
 442 344 489 276 460 183 c 256
 427 74 322 -9 206 -8 c 256
 92 -7 54 90 47 188 c 257
 100 214 l 257
502 879 m 257
 343 771 l 257
 318 799 l 257
 515 936 l 257
 622 795 l 257
 584 770 l 257
 502 879 l 257
EndSplineSet
EndChar

StartChar: scircumflex
Encoding: 349 349 371
Width: 379
VWidth: 0
Flags: HMW
LayerCount: 2
Fore
SplineSet
68 155 m 257
 67 98 81 41 149 40 c 256
 199 39 256 73 272 121 c 256
 291 175 244 201 203 221 c 256
 148 248 98 285 121 354 c 256
 143 423 221 468 291 468 c 256
 355 468 393 433 408 374 c 257
 361 350 l 257
 347 387 327 419 282 419 c 256
 239 419 183 392 169 349 c 256
 151 296 207 274 246 256 c 256
 299 230 343 188 325 124 c 256
 303 44 218 -11 137 -9 c 256
 51 -8 19 56 19 132 c 257
 68 155 l 257
357 640 m 257
 198 531 l 257
 173 559 l 257
 370 696 l 257
 476 556 l 257
 438 531 l 257
 357 640 l 257
EndSplineSet
EndChar

StartChar: uni1E9E
Encoding: 7838 7838 372
Width: 654
VWidth: 0
Flags: HMW
LayerCount: 2
Fore
SplineSet
349 -9 m 256
 233 -9 186 80 207 185 c 257
 260 184 l 257
 246 109 271 44 358 43 c 256
 445 42 529 110 557 191 c 256
 591 289 514 328 430 338 c 257
 442 373 l 257
 552 365 651 310 610 184 c 256
 575 76 464 -9 349 -9 c 256
435 353 m 257
 446 388 l 257
 532 399 623 437 653 526 c 256
 682 611 609 658 532 659 c 256
 376 660 261 534 210 398 c 258
 73 0 l 257
 19 0 l 257
 155 398 l 258
 214 563 354 711 541 710 c 256
 643 710 746 647 710 533 c 256
 673 413 551 363 435 353 c 257
EndSplineSet
EndChar

StartChar: Zacute
Encoding: 377 377 373
Width: 508
VWidth: 0
Flags: HW
LayerCount: 2
Fore
SplineSet
200 648 m 257
 219 700 l 257
 680 699 l 257
 71 53 l 257
 443 52 l 257
 424 0 l 257
 -42 0 l 257
 568 647 l 257
 200 648 l 257
671 918 m 257
 452 771 l 257
 428 792 l 257
 631 948 l 257
 671 918 l 257
EndSplineSet
EndChar

StartChar: zacute
Encoding: 378 378 374
Width: 420
VWidth: 0
Flags: HW
LayerCount: 2
Fore
SplineSet
395 410 m 257
 125 411 l 257
 142 460 l 257
 508 459 l 257
 71 50 l 257
 358 49 l 257
 341 0 l 257
 -42 0 l 257
 395 410 l 257
551 691 m 257
 332 544 l 257
 308 565 l 257
 511 721 l 257
 551 691 l 257
EndSplineSet
EndChar

StartChar: Zdotaccent
Encoding: 379 379 375
Width: 508
VWidth: 0
Flags: HW
LayerCount: 2
Fore
SplineSet
200 648 m 257
 219 700 l 257
 680 699 l 257
 71 53 l 257
 443 52 l 257
 424 0 l 257
 -42 0 l 257
 568 647 l 257
 200 648 l 257
449 808 m 256
 453 824 478 845 495 843 c 256
 513 841 525 823 521 805 c 256
 517 789 490 768 473 770 c 256
 455 772 445 790 449 808 c 256
EndSplineSet
EndChar

StartChar: zdotaccent
Encoding: 380 380 376
Width: 420
VWidth: 0
Flags: HW
LayerCount: 2
Fore
SplineSet
395 410 m 257
 125 411 l 257
 142 460 l 257
 508 459 l 257
 71 50 l 257
 358 49 l 257
 341 0 l 257
 -42 0 l 257
 395 410 l 257
335 599 m 256
 339 615 365 636 382 634 c 256
 400 632 411 614 407 596 c 256
 403 580 377 559 360 561 c 256
 342 563 331 581 335 599 c 256
EndSplineSet
EndChar

StartChar: Tcaron
Encoding: 356 356 377
Width: 424
VWidth: 0
Flags: HW
LayerCount: 2
Fore
SplineSet
178 648 m 257
 197 700 l 257
 598 700 l 257
 579 648 l 257
 406 648 l 257
 184 0 l 257
 130 0 l 257
 352 648 l 257
 178 648 l 257
436 826 m 257
 595 935 l 257
 620 907 l 257
 423 770 l 257
 317 910 l 257
 355 936 l 257
 436 826 l 257
EndSplineSet
EndChar

StartChar: tcaron
Encoding: 357 357 378
Width: 302
VWidth: 0
Flags: HW
LayerCount: 2
Fore
SplineSet
111 460 m 257
 303 460 l 257
 285 411 l 257
 93 411 l 257
 111 460 l 257
235 619 m 257
 288 620 l 257
 73 0 l 257
 25 0 l 257
 235 619 l 257
485 794 m 257
 532 773 l 257
 342 528 l 257
 309 541 l 257
 485 794 l 257
EndSplineSet
EndChar

StartChar: Uring
Encoding: 366 366 379
Width: 569
VWidth: 0
Flags: HW
LayerCount: 2
Fore
SplineSet
259 700 m 257
 313 700 l 257
 149 226 l 258
 123 143 135 45 242 43 c 256
 350 41 429 133 465 226 c 258
 629 700 l 257
 683 700 l 257
 521 226 l 258
 477 104 371 -9 232 -9 c 256
 96 -9 63 113 97 226 c 257
 259 700 l 257
430 871 m 256
 446 921 505 969 559 968 c 256
 613 967 640 917 625 868 c 256
 609 818 550 769 496 770 c 256
 442 771 415 822 430 871 c 256
464 869 m 256
 455 840 469 805 502 802 c 256
 536 799 582 839 592 870 c 256
 601 899 586 933 553 936 c 256
 519 939 474 900 464 869 c 256
EndSplineSet
EndChar

StartChar: uring
Encoding: 367 367 380
Width: 474
VWidth: 0
Flags: HW
LayerCount: 2
Fore
SplineSet
295 0 m 257
 454 460 l 257
 506 460 l 257
 347 0 l 257
 295 0 l 257
126 168 m 258
 109 113 105 42 180 40 c 256
 263 37 323 112 359 178 c 257
 377 178 l 257
 338 90 266 -10 159 -9 c 256
 58 -9 51 85 74 162 c 257
 178 460 l 257
 226 459 l 257
 126 168 l 258
301 632 m 256
 317 682 376 730 430 729 c 256
 484 728 510 677 495 628 c 256
 479 578 421 530 367 531 c 256
 313 532 286 583 301 632 c 256
334 629 m 256
 325 600 339 566 372 563 c 256
 406 560 452 600 462 631 c 256
 471 660 457 694 424 697 c 256
 390 700 344 660 334 629 c 256
EndSplineSet
EndChar
